<svg xmlns="http://www.w3.org/2000/svg" width="1024" height="1024" viewBox="1152 960 64 64"><rect x="1152" y="960" width="64" height="64" fill="#ece8db"/><path fill="#d6dfa7" fill-rule="evenodd" d="M1148.08,956.50L1148.50,956.08L1149.50,956.00L1150.50,956.00L1151.50,956.00L1152.50,956.00L1153.50,956.00L1154.50,956.00L1155.50,956.00L1156.50,956.00L1157.50,956.00L1158.50,956.00L1159.50,956.00L1160.50,956.00L1161.50,956.00L1162.50,956.00L1163.50,956.00L1164.50,956.00L1165.50,956.00L1166.50,956.00L1167.50,956.00L1168.50,956.00L1169.50,956.00L1170.50,956.00L1171.50,956.00L1172.50,956.00L1173.50,956.00L1174.50,956.00L1175.50,956.00L1176.50,956.00L1177.50,956.00L1178.50,956.00L1179.50,956.00L1180.50,956.00L1181.50,956.00L1182.50,956.00L1183.50,956.00L1184.50,956.00L1185.50,956.00L1186.50,956.00L1187.50,956.00L1188.50,956.00L1189.50,956.00L1190.50,956.00L1191.50,956.00L1192.50,956.00L1193.50,956.00L1194.50,956.00L1195.50,956.00L1196.50,956.00L1197.50,956.00L1198.50,956.00L1199.50,956.00L1200.50,956.00L1201.50,956.00L1202.50,956.00L1203.50,956.00L1204.50,956.00L1205.50,956.00L1206.50,956.00L1207.50,956.00L1208.50,956.00L1209.50,956.00L1210.50,956.00L1211.50,956.00L1212.50,956.00L1213.50,956.00L1214.50,956.00L1215.50,956.00L1216.50,956.00L1217.50,956.00L1218.50,956.00L1219.50,956.08L1219.92,956.50L1220.00,957.50L1220.00,958.50L1220.00,959.50L1220.00,960.50L1220.00,961.50L1220.00,962.50L1220.00,963.50L1220.00,964.50L1220.00,965.50L1220.00,966.50L1220.00,967.50L1220.00,968.50L1220.00,969.50L1220.00,970.50L1220.00,971.50L1220.00,972.50L1220.00,973.50L1220.00,974.50L1220.00,975.50L1220.00,976.50L1220.00,977.50L1220.00,978.50L1220.00,979.50L1220.00,980.50L1220.00,981.50L1220.00,982.50L1220.00,983.50L1220.00,984.50L1220.00,985.50L1220.00,986.50L1220.00,987.50L1220.00,988.50L1220.00,989.50L1220.00,990.50L1220.00,991.50L1220.00,992.50L1220.00,993.50L1220.00,994.50L1220.00,995.50L1220.00,996.50L1220.00,997.50L1220.00,998.50L1220.00,999.50L1220.00,1000.50L1220.00,1001.50L1220.00,1002.50L1220.00,1003.50L1220.00,1004.50L1220.00,1005.50L1220.00,1006.50L1220.00,1007.50L1220.00,1008.50L1220.00,1009.50L1220.00,1010.50L1220.00,1011.50L1220.00,1012.50L1220.00,1013.50L1220.00,1014.50L1220.00,1015.50L1220.00,1016.50L1220.00,1017.50L1220.00,1018.50L1220.00,1019.50L1220.00,1020.50L1220.00,1021.50L1220.00,1022.50L1220.00,1023.50L1220.00,1024.50L1220.00,1025.50L1220.00,1026.50L1219.92,1027.50L1219.50,1027.92L1218.50,1028.00L1217.50,1028.00L1216.50,1028.00L1215.50,1028.00L1214.50,1028.00L1213.50,1028.00L1212.50,1028.00L1211.50,1028.00L1210.50,1028.00L1209.50,1028.00L1208.50,1028.00L1207.50,1028.00L1206.50,1028.00L1205.50,1028.00L1204.50,1028.00L1203.50,1028.00L1202.50,1028.00L1201.50,1028.00L1200.50,1028.00L1199.50,1028.00L1198.50,1028.00L1197.50,1028.00L1196.50,1028.00L1195.50,1028.00L1194.50,1028.00L1193.50,1028.00L1192.50,1028.00L1191.50,1028.00L1190.50,1028.00L1189.50,1028.00L1188.50,1028.00L1187.50,1028.00L1186.50,1028.00L1185.50,1028.00L1184.50,1028.00L1183.50,1028.00L1182.50,1028.00L1181.50,1028.00L1180.50,1028.00L1179.50,1028.00L1178.50,1028.00L1177.50,1028.00L1176.50,1028.00L1175.50,1028.00L1174.50,1028.00L1173.50,1028.00L1172.50,1028.00L1171.50,1028.00L1170.50,1028.00L1169.50,1028.00L1168.50,1028.00L1167.50,1028.00L1166.50,1028.00L1165.50,1028.00L1164.50,1028.00L1163.50,1028.00L1162.50,1028.00L1161.50,1028.00L1160.50,1028.00L1159.50,1028.00L1158.50,1028.00L1157.50,1028.00L1156.50,1028.00L1155.50,1028.00L1154.50,1028.00L1153.50,1028.00L1152.50,1028.00L1151.50,1028.00L1150.50,1028.00L1149.50,1028.00L1148.50,1027.92L1148.08,1027.50L1148.00,1026.50L1148.00,1025.50L1148.00,1024.50L1148.00,1023.50L1148.00,1022.50L1148.00,1021.50L1148.00,1020.50L1148.00,1019.50L1148.00,1018.50L1148.00,1017.50L1148.00,1016.50L1148.00,1015.50L1148.00,1014.50L1148.00,1013.50L1148.00,1012.50L1148.00,1011.50L1148.00,1010.50L1148.00,1009.50L1148.00,1008.50L1148.00,1007.50L1148.00,1006.50L1148.00,1005.50L1148.00,1004.50L1148.00,1003.50L1148.00,1002.50L1148.00,1001.50L1148.00,1000.50L1148.00,999.50L1148.00,998.50L1148.00,997.50L1148.00,996.50L1148.00,995.50L1148.00,994.50L1148.00,993.50L1148.00,992.50L1148.00,991.50L1148.00,990.50L1148.00,989.50L1148.00,988.50L1148.00,987.50L1148.00,986.50L1148.00,985.50L1148.00,984.50L1148.00,983.50L1148.00,982.50L1148.00,981.50L1148.00,980.50L1148.00,979.50L1148.00,978.50L1148.00,977.50L1148.00,976.50L1148.00,975.50L1148.00,974.50L1148.00,973.50L1148.00,972.50L1148.00,971.50L1148.00,970.50L1148.00,969.50L1148.00,968.50L1148.00,967.50L1148.00,966.50L1148.00,965.50L1148.00,964.50L1148.00,963.50L1148.00,962.50L1148.00,961.50L1148.00,960.50L1148.00,959.50L1148.00,958.50L1148.00,957.50L1148.08,956.50Z"/><path fill="#91be72" fill-rule="evenodd" d="M1157.28,963.50L1157.50,963.28L1157.72,963.50L1157.50,963.72L1157.28,963.50ZM1167.28,965.50L1167.50,965.28L1167.76,965.50L1167.50,965.72L1167.28,965.50ZM1169.24,965.50L1169.50,965.28L1169.72,965.50L1169.50,965.72L1169.24,965.50Z"/><path fill="#7fbabf" fill-rule="evenodd" d="M1163.28,965.50L1163.50,965.28L1163.72,965.50L1163.50,965.72L1163.28,965.50ZM1168.28,965.50L1168.50,965.28L1168.72,965.50L1168.50,965.72L1168.28,965.50ZM1151.28,1020.50L1151.50,1020.28L1151.72,1020.50L1151.50,1020.73L1151.28,1020.50ZM1150.17,1022.50L1150.50,1022.17L1150.83,1022.50L1150.90,1023.50L1150.50,1023.90L1150.15,1023.50L1150.17,1022.50ZM1151.10,1024.50L1151.50,1024.10L1151.85,1024.50L1151.90,1025.50L1151.50,1025.83L1151.17,1025.50L1151.10,1024.50ZM1153.10,1025.50L1153.50,1025.17L1153.83,1025.50L1153.83,1026.50L1153.50,1026.83L1153.16,1026.50L1153.10,1025.50Z"/><path fill="#adb8b8" fill-rule="evenodd" d="M1148.08,956.50L1148.50,956.08L1149.50,956.00L1150.50,956.00L1151.50,956.00L1152.50,956.08L1152.92,956.50L1152.93,957.50L1152.50,958.00L1152.07,958.50L1151.93,959.50L1151.50,959.99L1151.00,960.50L1150.50,961.01L1150.07,961.50L1149.93,962.50L1149.50,962.99L1148.90,963.50L1148.50,963.84L1148.15,963.50L1148.01,962.50L1148.00,961.50L1148.00,960.50L1148.00,959.50L1148.00,958.50L1148.00,957.50L1148.08,956.50ZM1217.08,956.50L1217.50,956.08L1218.50,956.00L1219.50,956.08L1219.92,956.50L1219.93,957.50L1219.50,958.00L1219.07,958.50L1218.93,959.50L1218.50,959.99L1218.00,960.50L1217.50,961.01L1217.07,961.50L1216.93,962.50L1216.50,963.00L1216.07,963.50L1216.00,964.50L1216.00,965.50L1216.07,966.50L1216.50,966.99L1217.00,967.50L1217.50,968.01L1217.93,968.50L1218.07,969.50L1218.50,969.93L1219.50,970.08L1219.92,970.50L1219.99,971.50L1219.85,972.50L1219.50,972.84L1219.10,972.50L1218.50,972.00L1218.00,971.50L1217.50,970.99L1217.01,970.50L1216.50,970.00L1215.99,969.50L1215.50,969.07L1214.50,968.99L1214.01,968.50L1214.00,967.50L1213.93,966.50L1213.50,965.92L1213.15,965.50L1213.50,965.08L1213.93,964.50L1214.00,963.50L1214.07,962.50L1214.50,962.00L1214.93,961.50L1215.07,960.50L1215.50,960.00L1215.93,959.50L1216.07,958.50L1216.50,958.00L1216.93,957.50L1217.08,956.50ZM1213.26,969.50L1213.50,969.21L1213.79,969.50L1213.50,969.74L1213.26,969.50ZM1219.10,998.50L1219.50,998.16L1219.85,998.50L1219.99,999.50L1220.00,1000.50L1219.93,1001.50L1219.50,1001.99L1219.00,1002.50L1218.50,1003.00L1218.00,1003.50L1217.50,1004.00L1217.00,1004.50L1216.50,1005.00L1216.00,1005.50L1215.50,1006.00L1215.00,1006.50L1214.50,1007.00L1214.00,1007.50L1213.50,1008.00L1213.00,1008.50L1212.50,1009.00L1211.99,1009.50L1211.50,1009.93L1210.50,1010.07L1210.01,1010.50L1209.50,1011.00L1208.99,1011.50L1208.50,1011.93L1207.50,1012.07L1207.00,1012.50L1206.50,1012.93L1205.50,1013.07L1205.01,1013.50L1204.50,1014.00L1203.99,1014.50L1203.50,1014.93L1202.50,1015.07L1202.00,1015.50L1201.50,1015.93L1200.50,1016.00L1199.50,1016.07L1199.01,1016.50L1198.50,1017.09L1198.15,1017.50L1198.50,1017.92L1198.93,1018.50L1199.00,1019.50L1199.00,1020.50L1199.00,1021.50L1199.00,1022.50L1199.00,1023.50L1199.00,1024.50L1199.00,1025.50L1199.00,1026.50L1198.92,1027.50L1198.50,1027.92L1197.50,1027.92L1197.08,1027.50L1197.00,1026.50L1197.00,1025.50L1197.00,1024.50L1197.00,1023.50L1197.00,1022.50L1197.00,1021.50L1197.00,1020.50L1196.93,1019.50L1196.50,1019.01L1195.99,1018.50L1195.50,1018.07L1194.50,1018.00L1193.50,1018.00L1192.50,1018.07L1192.00,1018.50L1191.50,1018.93L1190.50,1019.00L1189.50,1019.07L1189.00,1019.50L1188.50,1019.93L1187.50,1020.00L1186.50,1020.07L1186.00,1020.50L1185.50,1020.93L1184.50,1021.00L1183.50,1021.07L1183.00,1021.50L1182.50,1021.93L1181.50,1022.00L1180.50,1022.07L1180.00,1022.50L1179.50,1022.93L1178.50,1022.93L1177.92,1022.50L1177.50,1022.15L1177.08,1022.50L1176.50,1022.93L1175.50,1023.00L1174.50,1023.00L1173.50,1023.07L1173.00,1023.50L1172.50,1023.93L1171.50,1024.00L1170.50,1024.07L1170.00,1024.50L1169.50,1024.93L1168.50,1025.00L1167.50,1025.00L1166.50,1025.07L1165.92,1025.50L1165.50,1025.85L1165.08,1025.50L1164.50,1025.07L1163.50,1025.00L1162.50,1025.06L1162.01,1025.50L1161.50,1026.00L1160.99,1026.50L1160.50,1026.93L1159.50,1027.00L1158.50,1027.07L1158.00,1027.50L1157.50,1027.93L1156.50,1028.00L1155.50,1028.00L1154.50,1027.92L1154.08,1027.50L1154.00,1026.50L1153.93,1025.50L1153.50,1024.99L1153.08,1024.50L1153.00,1023.50L1152.50,1023.00L1152.07,1022.50L1152.01,1021.50L1152.00,1020.50L1151.50,1019.99L1151.01,1019.50L1150.99,1018.50L1150.50,1018.01L1149.99,1017.50L1149.83,1016.50L1149.50,1016.17L1149.10,1016.50L1148.99,1017.50L1148.91,1018.50L1148.50,1018.90L1148.15,1018.50L1148.08,1017.50L1148.07,1016.50L1148.01,1015.50L1148.00,1014.50L1148.00,1013.50L1148.00,1012.50L1148.00,1011.50L1148.01,1010.50L1148.07,1009.50L1148.17,1008.50L1148.50,1008.17L1148.83,1008.50L1148.99,1009.50L1149.50,1010.00L1149.93,1010.50L1150.07,1011.50L1150.50,1012.00L1150.93,1012.50L1151.00,1013.50L1151.07,1014.50L1151.50,1015.00L1151.93,1015.50L1152.00,1016.50L1151.99,1017.50L1152.00,1018.50L1152.50,1019.01L1152.92,1019.50L1153.00,1020.50L1153.50,1021.00L1153.93,1021.50L1153.99,1022.50L1154.01,1023.50L1154.50,1023.93L1155.50,1024.07L1156.00,1024.50L1156.50,1024.93L1157.50,1025.00L1158.50,1024.93L1159.00,1024.50L1159.50,1024.07L1160.50,1024.00L1161.50,1023.94L1162.00,1023.50L1162.50,1023.07L1163.50,1023.00L1164.50,1023.00L1165.50,1022.93L1166.00,1022.50L1166.50,1022.07L1167.50,1022.00L1168.50,1022.00L1169.50,1022.00L1170.50,1022.00L1171.50,1021.93L1172.00,1021.50L1172.50,1021.07L1173.50,1021.00L1174.50,1020.93L1175.00,1020.50L1175.50,1020.07L1176.50,1020.00L1177.50,1020.00L1178.50,1019.93L1179.00,1019.50L1179.50,1019.07L1180.50,1019.00L1181.50,1019.00L1182.50,1018.93L1183.00,1018.50L1183.50,1018.07L1184.50,1018.00L1185.50,1017.93L1186.00,1017.50L1186.50,1017.07L1187.50,1017.00L1188.50,1017.00L1189.50,1016.93L1190.00,1016.50L1190.50,1016.07L1191.50,1016.00L1192.50,1016.00L1193.50,1015.93L1194.00,1015.50L1194.50,1015.07L1195.50,1015.00L1196.50,1014.93L1197.00,1014.50L1197.50,1014.07L1198.50,1013.93L1199.00,1013.50L1199.50,1013.07L1200.50,1012.93L1201.00,1012.50L1201.50,1012.07L1202.50,1011.93L1203.00,1011.50L1203.50,1011.07L1204.50,1011.00L1205.50,1010.93L1205.99,1010.50L1206.50,1010.00L1207.01,1009.50L1207.50,1009.07L1208.50,1008.93L1208.99,1008.50L1209.50,1008.00L1210.00,1007.50L1210.50,1007.00L1211.00,1006.50L1211.50,1006.00L1212.00,1005.50L1212.50,1005.00L1213.00,1004.50L1213.50,1004.00L1214.00,1003.50L1214.50,1003.00L1215.00,1002.50L1215.50,1002.00L1216.00,1001.50L1216.50,1001.00L1217.00,1000.50L1217.50,1000.00L1218.00,999.50L1218.50,999.00L1219.10,998.50ZM1149.10,1019.50L1149.50,1019.09L1149.91,1019.50L1149.84,1020.50L1149.50,1020.83L1149.17,1020.50L1149.10,1019.50Z"/><defs><clipPath id="r14223"><path d="M1212.01,955.50L1212.50,955.07L1213.50,955.00L1214.50,955.07L1214.99,955.50L1215.50,956.00L1216.00,956.50L1216.50,957.10L1216.84,957.50L1216.50,957.85L1215.50,958.07L1215.08,958.50L1215.00,959.50L1214.99,960.50L1214.85,961.50L1214.50,961.84L1214.01,961.50L1213.50,961.15L1213.09,961.50L1212.50,962.00L1211.99,962.50L1211.50,962.93L1210.50,962.92L1210.08,962.50L1210.00,961.50L1210.00,960.50L1210.07,959.50L1210.50,959.00L1210.93,958.50L1211.00,957.50L1211.07,956.50L1211.50,956.01L1212.01,955.50Z" fill-rule="evenodd"/></clipPath></defs><g clip-path="url(#r14223)"><path d="M1212.01,955.50L1212.50,955.07L1213.50,955.00L1214.50,955.07L1214.99,955.50L1215.50,956.00L1216.00,956.50L1216.50,957.10L1216.84,957.50L1216.50,957.85L1215.50,958.07L1215.08,958.50L1215.00,959.50L1214.99,960.50L1214.85,961.50L1214.50,961.84L1214.01,961.50L1213.50,961.15L1213.09,961.50L1212.50,962.00L1211.99,962.50L1211.50,962.93L1210.50,962.92L1210.08,962.50L1210.00,961.50L1210.00,960.50L1210.07,959.50L1210.50,959.00L1210.93,958.50L1211.00,957.50L1211.07,956.50L1211.50,956.01L1212.01,955.50Z" fill="#aa755e" stroke="#46514c" stroke-width=".30"/><rect x="1213.5" y="955" width="7" height="8" fill="#825746"/><path d="M1213.50 955V963" stroke="#c99775" stroke-width=".22"/><path d="M1210 955.50H1217" stroke="#c99775" stroke-opacity=".25" stroke-width=".07"/><path d="M1210 956.35H1217" stroke="#c99775" stroke-opacity=".25" stroke-width=".07"/><path d="M1210 957.20H1217" stroke="#c99775" stroke-opacity=".25" stroke-width=".07"/><path d="M1210 958.05H1217" stroke="#c99775" stroke-opacity=".25" stroke-width=".07"/><path d="M1210 958.90H1217" stroke="#c99775" stroke-opacity=".25" stroke-width=".07"/><path d="M1210 959.75H1217" stroke="#c99775" stroke-opacity=".25" stroke-width=".07"/><path d="M1210 960.60H1217" stroke="#c99775" stroke-opacity=".25" stroke-width=".07"/><path d="M1210 961.45H1217" stroke="#c99775" stroke-opacity=".25" stroke-width=".07"/><path d="M1210 962.30H1217" stroke="#c99775" stroke-opacity=".25" stroke-width=".07"/><rect x="1212.50" y="957.60" width="1.2" height=".75" rx=".08" fill="#c4dadd" stroke="#825746" stroke-width=".15"/><path d="M1213.10 957.60v.75" stroke="#748995" stroke-width=".1"/></g><defs><clipPath id="r14504"><path d="M1206.01,965.50L1206.50,965.07L1207.50,965.07L1208.00,965.50L1208.50,965.93L1209.50,966.00L1210.50,966.08L1210.92,966.50L1210.93,967.50L1210.50,967.99L1210.00,968.50L1209.50,969.00L1208.99,969.50L1208.50,969.93L1207.50,970.00L1206.50,970.00L1205.50,970.00L1204.50,969.92L1204.08,969.50L1204.07,968.50L1204.50,968.00L1204.93,967.50L1205.07,966.50L1205.50,966.01L1206.01,965.50Z" fill-rule="evenodd"/></clipPath></defs><g clip-path="url(#r14504)"><path d="M1206.01,965.50L1206.50,965.07L1207.50,965.07L1208.00,965.50L1208.50,965.93L1209.50,966.00L1210.50,966.08L1210.92,966.50L1210.93,967.50L1210.50,967.99L1210.00,968.50L1209.50,969.00L1208.99,969.50L1208.50,969.93L1207.50,970.00L1206.50,970.00L1205.50,970.00L1204.50,969.92L1204.08,969.50L1204.07,968.50L1204.50,968.00L1204.93,967.50L1205.07,966.50L1205.50,966.01L1206.01,965.50Z" fill="#a49573" stroke="#46514c" stroke-width=".30"/><rect x="1204" y="967.5" width="7" height="5" fill="#7e7259"/><path d="M1204 967.50H1211" stroke="#d1c09a" stroke-width=".22"/><path d="M1204 965.50H1211" stroke="#d1c09a" stroke-opacity=".25" stroke-width=".07"/><path d="M1204 966.35H1211" stroke="#d1c09a" stroke-opacity=".25" stroke-width=".07"/><path d="M1204 967.20H1211" stroke="#d1c09a" stroke-opacity=".25" stroke-width=".07"/><path d="M1204 968.05H1211" stroke="#d1c09a" stroke-opacity=".25" stroke-width=".07"/><path d="M1204 968.90H1211" stroke="#d1c09a" stroke-opacity=".25" stroke-width=".07"/><path d="M1204 969.75H1211" stroke="#d1c09a" stroke-opacity=".25" stroke-width=".07"/><rect x="1206.50" y="966.10" width="1.2" height=".75" rx=".08" fill="#c4dadd" stroke="#7e7259" stroke-width=".15"/><path d="M1207.10 966.10v.75" stroke="#748995" stroke-width=".1"/></g><defs><clipPath id="r14679"><path d="M1210.15,972.50L1210.50,972.16L1210.90,972.50L1211.50,973.00L1212.00,973.50L1212.50,974.00L1213.00,974.50L1213.50,975.09L1213.85,975.50L1213.50,975.91L1213.00,976.50L1212.50,977.00L1212.00,977.50L1211.50,978.00L1210.99,978.50L1210.50,978.93L1209.50,979.07L1209.00,979.50L1208.50,980.00L1208.06,980.50L1207.92,981.50L1207.50,981.92L1206.50,982.00L1205.50,982.00L1205.00,981.50L1205.07,980.50L1205.50,980.07L1206.50,979.93L1207.00,979.50L1207.50,978.91L1207.85,978.50L1207.50,978.15L1206.50,978.00L1205.50,978.00L1205.00,978.50L1204.50,979.00L1204.00,979.50L1203.50,980.00L1203.06,980.50L1203.08,981.50L1203.50,981.92L1204.50,982.00L1205.00,982.50L1204.92,983.50L1204.50,983.92L1203.50,984.07L1203.01,984.50L1202.50,985.00L1201.99,985.50L1201.50,985.93L1200.50,985.93L1200.01,985.50L1199.50,985.00L1199.00,984.50L1198.50,983.91L1198.15,983.50L1198.50,983.08L1198.93,982.50L1199.08,981.50L1199.50,981.08L1200.50,980.93L1200.99,980.50L1201.50,980.00L1202.01,979.50L1202.50,979.01L1203.01,978.50L1203.50,978.01L1204.02,977.50L1204.50,977.08L1205.50,977.00L1206.00,976.50L1206.50,976.07L1207.50,975.93L1207.99,975.50L1208.50,975.00L1209.00,974.50L1209.50,973.99L1209.94,973.50L1210.15,972.50Z" fill-rule="evenodd"/></clipPath></defs><g clip-path="url(#r14679)"><path d="M1210.15,972.50L1210.50,972.16L1210.90,972.50L1211.50,973.00L1212.00,973.50L1212.50,974.00L1213.00,974.50L1213.50,975.09L1213.85,975.50L1213.50,975.91L1213.00,976.50L1212.50,977.00L1212.00,977.50L1211.50,978.00L1210.99,978.50L1210.50,978.93L1209.50,979.07L1209.00,979.50L1208.50,980.00L1208.06,980.50L1207.92,981.50L1207.50,981.92L1206.50,982.00L1205.50,982.00L1205.00,981.50L1205.07,980.50L1205.50,980.07L1206.50,979.93L1207.00,979.50L1207.50,978.91L1207.85,978.50L1207.50,978.15L1206.50,978.00L1205.50,978.00L1205.00,978.50L1204.50,979.00L1204.00,979.50L1203.50,980.00L1203.06,980.50L1203.08,981.50L1203.50,981.92L1204.50,982.00L1205.00,982.50L1204.92,983.50L1204.50,983.92L1203.50,984.07L1203.01,984.50L1202.50,985.00L1201.99,985.50L1201.50,985.93L1200.50,985.93L1200.01,985.50L1199.50,985.00L1199.00,984.50L1198.50,983.91L1198.15,983.50L1198.50,983.08L1198.93,982.50L1199.08,981.50L1199.50,981.08L1200.50,980.93L1200.99,980.50L1201.50,980.00L1202.01,979.50L1202.50,979.01L1203.01,978.50L1203.50,978.01L1204.02,977.50L1204.50,977.08L1205.50,977.00L1206.00,976.50L1206.50,976.07L1207.50,975.93L1207.99,975.50L1208.50,975.00L1209.00,974.50L1209.50,973.99L1209.94,973.50L1210.15,972.50Z" fill="#a49573" stroke="#46514c" stroke-width=".30"/><rect x="1198" y="979.0" width="16" height="14" fill="#7e7259"/><path d="M1198 979.00H1214" stroke="#d1c09a" stroke-width=".22"/><path d="M1198 972.50H1214" stroke="#d1c09a" stroke-opacity=".25" stroke-width=".07"/><path d="M1198 973.35H1214" stroke="#d1c09a" stroke-opacity=".25" stroke-width=".07"/><path d="M1198 974.20H1214" stroke="#d1c09a" stroke-opacity=".25" stroke-width=".07"/><path d="M1198 975.05H1214" stroke="#d1c09a" stroke-opacity=".25" stroke-width=".07"/><path d="M1198 975.90H1214" stroke="#d1c09a" stroke-opacity=".25" stroke-width=".07"/><path d="M1198 976.75H1214" stroke="#d1c09a" stroke-opacity=".25" stroke-width=".07"/><path d="M1198 977.60H1214" stroke="#d1c09a" stroke-opacity=".25" stroke-width=".07"/><path d="M1198 978.45H1214" stroke="#d1c09a" stroke-opacity=".25" stroke-width=".07"/><path d="M1198 979.30H1214" stroke="#d1c09a" stroke-opacity=".25" stroke-width=".07"/><path d="M1198 980.15H1214" stroke="#d1c09a" stroke-opacity=".25" stroke-width=".07"/><path d="M1198 981.00H1214" stroke="#d1c09a" stroke-opacity=".25" stroke-width=".07"/><path d="M1198 981.85H1214" stroke="#d1c09a" stroke-opacity=".25" stroke-width=".07"/><path d="M1198 982.70H1214" stroke="#d1c09a" stroke-opacity=".25" stroke-width=".07"/><path d="M1198 983.55H1214" stroke="#d1c09a" stroke-opacity=".25" stroke-width=".07"/><path d="M1198 984.40H1214" stroke="#d1c09a" stroke-opacity=".25" stroke-width=".07"/><path d="M1198 985.25H1214" stroke="#d1c09a" stroke-opacity=".25" stroke-width=".07"/><rect x="1205.00" y="977.60" width="1.2" height=".75" rx=".08" fill="#c4dadd" stroke="#7e7259" stroke-width=".15"/><path d="M1205.60 977.60v.75" stroke="#748995" stroke-width=".1"/><rect x="1199" y="973" width="2.6" height="1.7" rx=".12" fill="#d4d6c4" stroke="#68797a" stroke-width=".12"/><circle cx="1199.7" cy="973.8" r=".4" fill="#869490"/></g><defs><clipPath id="r14743"><path d="M1162.15,975.50L1162.50,975.16L1162.91,975.50L1163.50,975.93L1164.50,975.93L1165.08,975.50L1165.50,975.15L1165.91,975.50L1166.50,976.00L1167.01,976.50L1167.50,976.93L1168.50,976.93L1169.00,976.50L1169.50,976.07L1170.50,976.08L1170.92,976.50L1171.00,977.50L1171.07,978.50L1171.50,979.00L1171.93,979.50L1171.92,980.50L1171.50,980.92L1170.50,981.00L1169.50,981.00L1168.50,981.00L1167.50,981.07L1167.00,981.50L1166.50,981.93L1165.50,982.00L1164.50,982.08L1164.08,982.50L1164.00,983.50L1164.00,984.50L1164.00,985.50L1163.93,986.50L1163.50,986.99L1162.99,987.50L1162.50,987.93L1161.50,988.00L1160.50,987.93L1160.00,987.50L1159.50,987.07L1158.50,987.00L1157.50,986.92L1157.08,986.50L1156.93,985.50L1156.50,985.00L1156.07,984.50L1156.00,983.50L1155.92,982.50L1155.50,982.08L1154.50,982.00L1153.50,982.08L1153.08,982.50L1153.07,983.50L1153.50,984.08L1153.85,984.50L1153.50,984.91L1152.99,985.50L1152.50,985.93L1151.50,986.00L1150.50,986.07L1149.92,986.50L1149.50,986.85L1149.08,986.50L1148.50,986.06L1147.50,985.85L1147.16,985.50L1147.50,985.01L1147.85,984.50L1147.50,984.08L1147.07,983.50L1147.00,982.50L1147.08,981.50L1147.50,981.08L1148.50,981.00L1149.50,981.00L1150.50,980.93L1151.00,980.50L1151.50,980.07L1152.50,979.93L1153.00,979.50L1153.50,979.07L1154.50,979.07L1155.08,979.50L1155.50,979.85L1155.92,979.50L1156.50,979.07L1157.50,979.00L1158.50,978.93L1159.00,978.50L1159.50,978.07L1160.50,977.93L1160.99,977.50L1161.50,976.99L1161.94,976.50L1162.15,975.50Z" fill-rule="evenodd"/></clipPath></defs><g clip-path="url(#r14743)"><path d="M1162.15,975.50L1162.50,975.16L1162.91,975.50L1163.50,975.93L1164.50,975.93L1165.08,975.50L1165.50,975.15L1165.91,975.50L1166.50,976.00L1167.01,976.50L1167.50,976.93L1168.50,976.93L1169.00,976.50L1169.50,976.07L1170.50,976.08L1170.92,976.50L1171.00,977.50L1171.07,978.50L1171.50,979.00L1171.93,979.50L1171.92,980.50L1171.50,980.92L1170.50,981.00L1169.50,981.00L1168.50,981.00L1167.50,981.07L1167.00,981.50L1166.50,981.93L1165.50,982.00L1164.50,982.08L1164.08,982.50L1164.00,983.50L1164.00,984.50L1164.00,985.50L1163.93,986.50L1163.50,986.99L1162.99,987.50L1162.50,987.93L1161.50,988.00L1160.50,987.93L1160.00,987.50L1159.50,987.07L1158.50,987.00L1157.50,986.92L1157.08,986.50L1156.93,985.50L1156.50,985.00L1156.07,984.50L1156.00,983.50L1155.92,982.50L1155.50,982.08L1154.50,982.00L1153.50,982.08L1153.08,982.50L1153.07,983.50L1153.50,984.08L1153.85,984.50L1153.50,984.91L1152.99,985.50L1152.50,985.93L1151.50,986.00L1150.50,986.07L1149.92,986.50L1149.50,986.85L1149.08,986.50L1148.50,986.06L1147.50,985.85L1147.16,985.50L1147.50,985.01L1147.85,984.50L1147.50,984.08L1147.07,983.50L1147.00,982.50L1147.08,981.50L1147.50,981.08L1148.50,981.00L1149.50,981.00L1150.50,980.93L1151.00,980.50L1151.50,980.07L1152.50,979.93L1153.00,979.50L1153.50,979.07L1154.50,979.07L1155.08,979.50L1155.50,979.85L1155.92,979.50L1156.50,979.07L1157.50,979.00L1158.50,978.93L1159.00,978.50L1159.50,978.07L1160.50,977.93L1160.99,977.50L1161.50,976.99L1161.94,976.50L1162.15,975.50Z" fill="#aa755e" stroke="#46514c" stroke-width=".30"/><rect x="1147" y="981.5" width="25" height="13" fill="#825746"/><path d="M1147 981.50H1172" stroke="#c99775" stroke-width=".22"/><path d="M1147 975.50H1172" stroke="#c99775" stroke-opacity=".25" stroke-width=".07"/><path d="M1147 976.35H1172" stroke="#c99775" stroke-opacity=".25" stroke-width=".07"/><path d="M1147 977.20H1172" stroke="#c99775" stroke-opacity=".25" stroke-width=".07"/><path d="M1147 978.05H1172" stroke="#c99775" stroke-opacity=".25" stroke-width=".07"/><path d="M1147 978.90H1172" stroke="#c99775" stroke-opacity=".25" stroke-width=".07"/><path d="M1147 979.75H1172" stroke="#c99775" stroke-opacity=".25" stroke-width=".07"/><path d="M1147 980.60H1172" stroke="#c99775" stroke-opacity=".25" stroke-width=".07"/><path d="M1147 981.45H1172" stroke="#c99775" stroke-opacity=".25" stroke-width=".07"/><path d="M1147 982.30H1172" stroke="#c99775" stroke-opacity=".25" stroke-width=".07"/><path d="M1147 983.15H1172" stroke="#c99775" stroke-opacity=".25" stroke-width=".07"/><path d="M1147 984.00H1172" stroke="#c99775" stroke-opacity=".25" stroke-width=".07"/><path d="M1147 984.85H1172" stroke="#c99775" stroke-opacity=".25" stroke-width=".07"/><path d="M1147 985.70H1172" stroke="#c99775" stroke-opacity=".25" stroke-width=".07"/><path d="M1147 986.55H1172" stroke="#c99775" stroke-opacity=".25" stroke-width=".07"/><path d="M1147 987.40H1172" stroke="#c99775" stroke-opacity=".25" stroke-width=".07"/><rect x="1158.50" y="980.10" width="1.2" height=".75" rx=".08" fill="#c4dadd" stroke="#825746" stroke-width=".15"/><path d="M1159.10 980.10v.75" stroke="#748995" stroke-width=".1"/><rect x="1148" y="976" width="2.6" height="1.7" rx=".12" fill="#d4d6c4" stroke="#68797a" stroke-width=".12"/><circle cx="1148.7" cy="976.8" r=".4" fill="#869490"/></g><defs><clipPath id="r14934"><path d="M1178.09,982.50L1178.50,982.15L1178.91,982.50L1179.50,983.00L1180.00,983.50L1180.50,984.00L1181.00,984.50L1181.50,985.00L1182.00,985.50L1182.50,986.01L1182.93,986.50L1182.93,987.50L1182.50,987.99L1182.00,988.50L1181.50,989.00L1180.90,989.50L1180.50,989.84L1180.15,989.50L1179.94,988.50L1179.50,988.01L1178.91,987.50L1178.50,987.15L1178.00,987.50L1177.50,987.85L1177.09,987.50L1176.50,986.99L1176.07,986.50L1176.00,985.50L1176.07,984.50L1176.50,984.01L1177.00,983.50L1177.50,983.00L1178.09,982.50Z" fill-rule="evenodd"/></clipPath></defs><g clip-path="url(#r14934)"><path d="M1178.09,982.50L1178.50,982.15L1178.91,982.50L1179.50,983.00L1180.00,983.50L1180.50,984.00L1181.00,984.50L1181.50,985.00L1182.00,985.50L1182.50,986.01L1182.93,986.50L1182.93,987.50L1182.50,987.99L1182.00,988.50L1181.50,989.00L1180.90,989.50L1180.50,989.84L1180.15,989.50L1179.94,988.50L1179.50,988.01L1178.91,987.50L1178.50,987.15L1178.00,987.50L1177.50,987.85L1177.09,987.50L1176.50,986.99L1176.07,986.50L1176.00,985.50L1176.07,984.50L1176.50,984.01L1177.00,983.50L1177.50,983.00L1178.09,982.50Z" fill="#a49573" stroke="#46514c" stroke-width=".30"/><rect x="1179.5" y="982" width="7" height="8" fill="#7e7259"/><path d="M1179.50 982V990" stroke="#d1c09a" stroke-width=".22"/><path d="M1176 982.50H1183" stroke="#d1c09a" stroke-opacity=".25" stroke-width=".07"/><path d="M1176 983.35H1183" stroke="#d1c09a" stroke-opacity=".25" stroke-width=".07"/><path d="M1176 984.20H1183" stroke="#d1c09a" stroke-opacity=".25" stroke-width=".07"/><path d="M1176 985.05H1183" stroke="#d1c09a" stroke-opacity=".25" stroke-width=".07"/><path d="M1176 985.90H1183" stroke="#d1c09a" stroke-opacity=".25" stroke-width=".07"/><path d="M1176 986.75H1183" stroke="#d1c09a" stroke-opacity=".25" stroke-width=".07"/><path d="M1176 987.60H1183" stroke="#d1c09a" stroke-opacity=".25" stroke-width=".07"/><path d="M1176 988.45H1183" stroke="#d1c09a" stroke-opacity=".25" stroke-width=".07"/><path d="M1176 989.30H1183" stroke="#d1c09a" stroke-opacity=".25" stroke-width=".07"/><rect x="1178.50" y="984.60" width="1.2" height=".75" rx=".08" fill="#c4dadd" stroke="#7e7259" stroke-width=".15"/><path d="M1179.10 984.60v.75" stroke="#748995" stroke-width=".1"/></g><defs><clipPath id="r15129"><path d="M1175.00,989.50L1175.50,989.07L1176.50,989.08L1176.92,989.50L1177.08,990.50L1177.50,990.92L1178.50,991.08L1178.92,991.50L1179.07,992.50L1179.50,993.08L1179.85,993.50L1179.50,994.00L1179.15,994.50L1179.50,994.92L1179.93,995.50L1180.07,996.50L1180.50,997.08L1180.85,997.50L1180.50,997.92L1180.07,998.50L1180.00,999.50L1180.00,1000.50L1180.00,1001.50L1180.07,1002.50L1180.50,1002.99L1181.00,1003.50L1181.50,1004.02L1181.92,1004.50L1181.93,1005.50L1181.83,1006.50L1181.50,1006.83L1181.16,1006.50L1180.92,1005.50L1180.50,1005.15L1180.09,1005.50L1179.50,1005.93L1178.50,1006.00L1177.50,1006.07L1176.91,1006.50L1176.50,1006.84L1176.15,1006.50L1175.94,1005.50L1175.50,1005.00L1175.07,1004.50L1175.00,1003.50L1174.93,1002.50L1174.50,1002.00L1174.07,1001.50L1174.00,1000.50L1173.93,999.50L1173.50,999.00L1173.06,998.50L1172.85,997.50L1172.50,997.16L1172.09,997.50L1171.50,997.93L1170.50,998.07L1170.00,998.50L1169.50,998.93L1168.50,998.93L1168.01,998.50L1167.50,997.99L1167.07,997.50L1167.00,996.50L1167.00,995.50L1166.93,994.50L1166.50,993.92L1166.15,993.50L1166.50,993.09L1167.01,992.50L1167.50,992.07L1168.50,992.00L1169.50,991.93L1170.00,991.50L1170.50,991.07L1171.50,990.93L1172.00,990.50L1172.50,990.07L1173.50,990.00L1174.50,989.93L1175.00,989.50ZM1176.50,995.28L1176.28,995.50L1176.50,995.72L1176.72,995.50L1176.50,995.28Z" fill-rule="evenodd"/></clipPath></defs><g clip-path="url(#r15129)"><path d="M1175.00,989.50L1175.50,989.07L1176.50,989.08L1176.92,989.50L1177.08,990.50L1177.50,990.92L1178.50,991.08L1178.92,991.50L1179.07,992.50L1179.50,993.08L1179.85,993.50L1179.50,994.00L1179.15,994.50L1179.50,994.92L1179.93,995.50L1180.07,996.50L1180.50,997.08L1180.85,997.50L1180.50,997.92L1180.07,998.50L1180.00,999.50L1180.00,1000.50L1180.00,1001.50L1180.07,1002.50L1180.50,1002.99L1181.00,1003.50L1181.50,1004.02L1181.92,1004.50L1181.93,1005.50L1181.83,1006.50L1181.50,1006.83L1181.16,1006.50L1180.92,1005.50L1180.50,1005.15L1180.09,1005.50L1179.50,1005.93L1178.50,1006.00L1177.50,1006.07L1176.91,1006.50L1176.50,1006.84L1176.15,1006.50L1175.94,1005.50L1175.50,1005.00L1175.07,1004.50L1175.00,1003.50L1174.93,1002.50L1174.50,1002.00L1174.07,1001.50L1174.00,1000.50L1173.93,999.50L1173.50,999.00L1173.06,998.50L1172.85,997.50L1172.50,997.16L1172.09,997.50L1171.50,997.93L1170.50,998.07L1170.00,998.50L1169.50,998.93L1168.50,998.93L1168.01,998.50L1167.50,997.99L1167.07,997.50L1167.00,996.50L1167.00,995.50L1166.93,994.50L1166.50,993.92L1166.15,993.50L1166.50,993.09L1167.01,992.50L1167.50,992.07L1168.50,992.00L1169.50,991.93L1170.00,991.50L1170.50,991.07L1171.50,990.93L1172.00,990.50L1172.50,990.07L1173.50,990.00L1174.50,989.93L1175.00,989.50ZM1176.50,995.28L1176.28,995.50L1176.50,995.72L1176.72,995.50L1176.50,995.28Z" fill="#a49573" stroke="#46514c" stroke-width=".30"/><rect x="1174.0" y="989" width="16" height="18" fill="#7e7259"/><path d="M1174.00 989V1007" stroke="#d1c09a" stroke-width=".22"/><path d="M1166 989.50H1182" stroke="#d1c09a" stroke-opacity=".25" stroke-width=".07"/><path d="M1166 990.35H1182" stroke="#d1c09a" stroke-opacity=".25" stroke-width=".07"/><path d="M1166 991.20H1182" stroke="#d1c09a" stroke-opacity=".25" stroke-width=".07"/><path d="M1166 992.05H1182" stroke="#d1c09a" stroke-opacity=".25" stroke-width=".07"/><path d="M1166 992.90H1182" stroke="#d1c09a" stroke-opacity=".25" stroke-width=".07"/><path d="M1166 993.75H1182" stroke="#d1c09a" stroke-opacity=".25" stroke-width=".07"/><path d="M1166 994.60H1182" stroke="#d1c09a" stroke-opacity=".25" stroke-width=".07"/><path d="M1166 995.45H1182" stroke="#d1c09a" stroke-opacity=".25" stroke-width=".07"/><path d="M1166 996.30H1182" stroke="#d1c09a" stroke-opacity=".25" stroke-width=".07"/><path d="M1166 997.15H1182" stroke="#d1c09a" stroke-opacity=".25" stroke-width=".07"/><path d="M1166 998.00H1182" stroke="#d1c09a" stroke-opacity=".25" stroke-width=".07"/><path d="M1166 998.85H1182" stroke="#d1c09a" stroke-opacity=".25" stroke-width=".07"/><path d="M1166 999.70H1182" stroke="#d1c09a" stroke-opacity=".25" stroke-width=".07"/><path d="M1166 1000.55H1182" stroke="#d1c09a" stroke-opacity=".25" stroke-width=".07"/><path d="M1166 1001.40H1182" stroke="#d1c09a" stroke-opacity=".25" stroke-width=".07"/><path d="M1166 1002.25H1182" stroke="#d1c09a" stroke-opacity=".25" stroke-width=".07"/><path d="M1166 1003.10H1182" stroke="#d1c09a" stroke-opacity=".25" stroke-width=".07"/><path d="M1166 1003.95H1182" stroke="#d1c09a" stroke-opacity=".25" stroke-width=".07"/><path d="M1166 1004.80H1182" stroke="#d1c09a" stroke-opacity=".25" stroke-width=".07"/><path d="M1166 1005.65H1182" stroke="#d1c09a" stroke-opacity=".25" stroke-width=".07"/><path d="M1166 1006.50H1182" stroke="#d1c09a" stroke-opacity=".25" stroke-width=".07"/><rect x="1173.00" y="996.60" width="1.2" height=".75" rx=".08" fill="#c4dadd" stroke="#7e7259" stroke-width=".15"/><path d="M1173.60 996.60v.75" stroke="#748995" stroke-width=".1"/><rect x="1167" y="990" width="2.6" height="1.7" rx=".12" fill="#d4d6c4" stroke="#68797a" stroke-width=".12"/><circle cx="1167.7" cy="990.8" r=".4" fill="#869490"/></g><defs><clipPath id="r15172"><path d="M1162.01,991.50L1162.50,991.07L1163.50,991.00L1164.50,991.08L1164.92,991.50L1165.00,992.50L1165.00,993.50L1164.99,994.50L1165.01,995.50L1165.50,996.00L1165.93,996.50L1165.93,997.50L1165.50,997.99L1164.91,998.50L1164.50,998.85L1164.00,998.50L1163.50,998.15L1163.09,998.50L1162.50,999.00L1161.99,999.50L1161.50,999.93L1160.50,1000.00L1159.50,1000.07L1159.00,1000.50L1158.50,1000.93L1157.50,1001.00L1156.50,1000.92L1156.08,1000.50L1156.00,999.50L1155.92,998.50L1155.50,998.01L1154.50,997.83L1154.17,997.50L1154.50,997.17L1155.50,997.00L1156.00,996.50L1156.50,996.07L1157.50,995.93L1158.00,995.50L1158.50,995.07L1159.50,994.93L1160.00,994.50L1160.50,994.06L1161.50,993.85L1161.84,993.50L1161.50,993.01L1161.15,992.50L1161.50,992.09L1162.01,991.50ZM1162.50,995.16L1162.17,995.50L1162.50,995.83L1163.50,995.83L1163.89,995.50L1163.50,995.17L1162.50,995.16Z" fill-rule="evenodd"/></clipPath></defs><g clip-path="url(#r15172)"><path d="M1162.01,991.50L1162.50,991.07L1163.50,991.00L1164.50,991.08L1164.92,991.50L1165.00,992.50L1165.00,993.50L1164.99,994.50L1165.01,995.50L1165.50,996.00L1165.93,996.50L1165.93,997.50L1165.50,997.99L1164.91,998.50L1164.50,998.85L1164.00,998.50L1163.50,998.15L1163.09,998.50L1162.50,999.00L1161.99,999.50L1161.50,999.93L1160.50,1000.00L1159.50,1000.07L1159.00,1000.50L1158.50,1000.93L1157.50,1001.00L1156.50,1000.92L1156.08,1000.50L1156.00,999.50L1155.92,998.50L1155.50,998.01L1154.50,997.83L1154.17,997.50L1154.50,997.17L1155.50,997.00L1156.00,996.50L1156.50,996.07L1157.50,995.93L1158.00,995.50L1158.50,995.07L1159.50,994.93L1160.00,994.50L1160.50,994.06L1161.50,993.85L1161.84,993.50L1161.50,993.01L1161.15,992.50L1161.50,992.09L1162.01,991.50ZM1162.50,995.16L1162.17,995.50L1162.50,995.83L1163.50,995.83L1163.89,995.50L1163.50,995.17L1162.50,995.16Z" fill="#747b87" stroke="#46514c" stroke-width=".30"/><rect x="1154" y="996.0" width="12" height="10" fill="#545b68"/><path d="M1154 996.00H1166" stroke="#9ca8b3" stroke-width=".22"/><path d="M1154 991.50H1166" stroke="#9ca8b3" stroke-opacity=".25" stroke-width=".07"/><path d="M1154 992.35H1166" stroke="#9ca8b3" stroke-opacity=".25" stroke-width=".07"/><path d="M1154 993.20H1166" stroke="#9ca8b3" stroke-opacity=".25" stroke-width=".07"/><path d="M1154 994.05H1166" stroke="#9ca8b3" stroke-opacity=".25" stroke-width=".07"/><path d="M1154 994.90H1166" stroke="#9ca8b3" stroke-opacity=".25" stroke-width=".07"/><path d="M1154 995.75H1166" stroke="#9ca8b3" stroke-opacity=".25" stroke-width=".07"/><path d="M1154 996.60H1166" stroke="#9ca8b3" stroke-opacity=".25" stroke-width=".07"/><path d="M1154 997.45H1166" stroke="#9ca8b3" stroke-opacity=".25" stroke-width=".07"/><path d="M1154 998.30H1166" stroke="#9ca8b3" stroke-opacity=".25" stroke-width=".07"/><path d="M1154 999.15H1166" stroke="#9ca8b3" stroke-opacity=".25" stroke-width=".07"/><path d="M1154 1000.00H1166" stroke="#9ca8b3" stroke-opacity=".25" stroke-width=".07"/><path d="M1154 1000.85H1166" stroke="#9ca8b3" stroke-opacity=".25" stroke-width=".07"/><rect x="1159.00" y="994.60" width="1.2" height=".75" rx=".08" fill="#c4dadd" stroke="#545b68" stroke-width=".15"/><path d="M1159.60 994.60v.75" stroke="#748995" stroke-width=".1"/><rect x="1155" y="992" width="2.6" height="1.7" rx=".12" fill="#d4d6c4" stroke="#68797a" stroke-width=".12"/><circle cx="1155.7" cy="992.8" r=".4" fill="#869490"/></g><defs><clipPath id="r15231"><path d="M1185.00,993.50L1185.50,993.07L1186.50,993.08L1186.92,993.50L1187.07,994.50L1187.50,995.00L1187.93,995.50L1188.00,996.50L1187.93,997.50L1187.50,997.99L1186.91,998.50L1186.50,998.85L1186.00,998.50L1185.50,998.15L1185.00,998.50L1184.50,998.85L1184.08,998.50L1183.50,998.07L1182.50,997.92L1182.08,997.50L1182.00,996.50L1182.00,995.50L1182.08,994.50L1182.50,994.08L1183.50,994.00L1184.50,993.93L1185.00,993.50Z" fill-rule="evenodd"/></clipPath></defs><g clip-path="url(#r15231)"><path d="M1185.00,993.50L1185.50,993.07L1186.50,993.08L1186.92,993.50L1187.07,994.50L1187.50,995.00L1187.93,995.50L1188.00,996.50L1187.93,997.50L1187.50,997.99L1186.91,998.50L1186.50,998.85L1186.00,998.50L1185.50,998.15L1185.00,998.50L1184.50,998.85L1184.08,998.50L1183.50,998.07L1182.50,997.92L1182.08,997.50L1182.00,996.50L1182.00,995.50L1182.08,994.50L1182.50,994.08L1183.50,994.00L1184.50,993.93L1185.00,993.50Z" fill="#728f89" stroke="#46514c" stroke-width=".30"/><rect x="1182" y="996.0" width="6" height="6" fill="#506c66"/><path d="M1182 996.00H1188" stroke="#a2b7a0" stroke-width=".22"/><path d="M1182 993.50H1188" stroke="#a2b7a0" stroke-opacity=".25" stroke-width=".07"/><path d="M1182 994.35H1188" stroke="#a2b7a0" stroke-opacity=".25" stroke-width=".07"/><path d="M1182 995.20H1188" stroke="#a2b7a0" stroke-opacity=".25" stroke-width=".07"/><path d="M1182 996.05H1188" stroke="#a2b7a0" stroke-opacity=".25" stroke-width=".07"/><path d="M1182 996.90H1188" stroke="#a2b7a0" stroke-opacity=".25" stroke-width=".07"/><path d="M1182 997.75H1188" stroke="#a2b7a0" stroke-opacity=".25" stroke-width=".07"/><path d="M1182 998.60H1188" stroke="#a2b7a0" stroke-opacity=".25" stroke-width=".07"/><rect x="1184.00" y="994.60" width="1.2" height=".75" rx=".08" fill="#c4dadd" stroke="#506c66" stroke-width=".15"/><path d="M1184.60 994.60v.75" stroke="#748995" stroke-width=".1"/></g><defs><clipPath id="r15377"><path d="M1209.09,998.50L1209.50,998.15L1209.91,998.50L1210.50,999.00L1211.00,999.50L1211.50,1000.00L1212.00,1000.50L1212.50,1001.01L1212.93,1001.50L1212.93,1002.50L1212.50,1002.99L1211.99,1003.50L1211.50,1003.93L1210.50,1004.07L1210.01,1004.50L1209.50,1005.00L1208.99,1005.50L1208.50,1005.93L1207.50,1006.07L1207.00,1006.50L1206.50,1006.93L1205.50,1006.92L1205.08,1006.50L1204.93,1005.50L1204.50,1005.01L1204.00,1004.50L1203.50,1003.99L1203.07,1003.50L1203.08,1002.50L1203.50,1002.08L1204.50,1001.93L1205.00,1001.50L1205.50,1001.07L1206.50,1000.93L1206.99,1000.50L1207.50,1000.00L1208.00,999.50L1208.50,999.00L1209.09,998.50Z" fill-rule="evenodd"/></clipPath></defs><g clip-path="url(#r15377)"><path d="M1209.09,998.50L1209.50,998.15L1209.91,998.50L1210.50,999.00L1211.00,999.50L1211.50,1000.00L1212.00,1000.50L1212.50,1001.01L1212.93,1001.50L1212.93,1002.50L1212.50,1002.99L1211.99,1003.50L1211.50,1003.93L1210.50,1004.07L1210.01,1004.50L1209.50,1005.00L1208.99,1005.50L1208.50,1005.93L1207.50,1006.07L1207.00,1006.50L1206.50,1006.93L1205.50,1006.92L1205.08,1006.50L1204.93,1005.50L1204.50,1005.01L1204.00,1004.50L1203.50,1003.99L1203.07,1003.50L1203.08,1002.50L1203.50,1002.08L1204.50,1001.93L1205.00,1001.50L1205.50,1001.07L1206.50,1000.93L1206.99,1000.50L1207.50,1000.00L1208.00,999.50L1208.50,999.00L1209.09,998.50Z" fill="#747b87" stroke="#46514c" stroke-width=".30"/><rect x="1203" y="1002.5" width="10" height="9" fill="#545b68"/><path d="M1203 1002.50H1213" stroke="#9ca8b3" stroke-width=".22"/><path d="M1203 998.50H1213" stroke="#9ca8b3" stroke-opacity=".25" stroke-width=".07"/><path d="M1203 999.35H1213" stroke="#9ca8b3" stroke-opacity=".25" stroke-width=".07"/><path d="M1203 1000.20H1213" stroke="#9ca8b3" stroke-opacity=".25" stroke-width=".07"/><path d="M1203 1001.05H1213" stroke="#9ca8b3" stroke-opacity=".25" stroke-width=".07"/><path d="M1203 1001.90H1213" stroke="#9ca8b3" stroke-opacity=".25" stroke-width=".07"/><path d="M1203 1002.75H1213" stroke="#9ca8b3" stroke-opacity=".25" stroke-width=".07"/><path d="M1203 1003.60H1213" stroke="#9ca8b3" stroke-opacity=".25" stroke-width=".07"/><path d="M1203 1004.45H1213" stroke="#9ca8b3" stroke-opacity=".25" stroke-width=".07"/><path d="M1203 1005.30H1213" stroke="#9ca8b3" stroke-opacity=".25" stroke-width=".07"/><path d="M1203 1006.15H1213" stroke="#9ca8b3" stroke-opacity=".25" stroke-width=".07"/><rect x="1207.00" y="1001.10" width="1.2" height=".75" rx=".08" fill="#c4dadd" stroke="#545b68" stroke-width=".15"/><path d="M1207.60 1001.10v.75" stroke="#748995" stroke-width=".1"/><rect x="1204" y="999" width="2.6" height="1.7" rx=".12" fill="#d4d6c4" stroke="#68797a" stroke-width=".12"/><circle cx="1204.7" cy="999.8" r=".4" fill="#869490"/></g><defs><clipPath id="r15409"><path d="M1188.00,999.50L1188.50,999.07L1189.50,999.00L1190.50,999.08L1190.92,999.50L1191.00,1000.50L1191.07,1001.50L1191.50,1002.08L1191.85,1002.50L1191.50,1002.92L1191.06,1003.50L1190.85,1004.50L1190.50,1004.84L1190.01,1004.50L1189.50,1004.15L1189.08,1004.50L1188.50,1004.93L1187.50,1004.92L1187.08,1004.50L1187.00,1003.50L1186.93,1002.50L1186.50,1002.00L1186.07,1001.50L1186.08,1000.50L1186.50,1000.08L1187.50,999.93L1188.00,999.50Z" fill-rule="evenodd"/></clipPath></defs><g clip-path="url(#r15409)"><path d="M1188.00,999.50L1188.50,999.07L1189.50,999.00L1190.50,999.08L1190.92,999.50L1191.00,1000.50L1191.07,1001.50L1191.50,1002.08L1191.85,1002.50L1191.50,1002.92L1191.06,1003.50L1190.85,1004.50L1190.50,1004.84L1190.01,1004.50L1189.50,1004.15L1189.08,1004.50L1188.50,1004.93L1187.50,1004.92L1187.08,1004.50L1187.00,1003.50L1186.93,1002.50L1186.50,1002.00L1186.07,1001.50L1186.08,1000.50L1186.50,1000.08L1187.50,999.93L1188.00,999.50Z" fill="#a49573" stroke="#46514c" stroke-width=".30"/><rect x="1186" y="1002.0" width="6" height="6" fill="#7e7259"/><path d="M1186 1002.00H1192" stroke="#d1c09a" stroke-width=".22"/><path d="M1186 999.50H1192" stroke="#d1c09a" stroke-opacity=".25" stroke-width=".07"/><path d="M1186 1000.35H1192" stroke="#d1c09a" stroke-opacity=".25" stroke-width=".07"/><path d="M1186 1001.20H1192" stroke="#d1c09a" stroke-opacity=".25" stroke-width=".07"/><path d="M1186 1002.05H1192" stroke="#d1c09a" stroke-opacity=".25" stroke-width=".07"/><path d="M1186 1002.90H1192" stroke="#d1c09a" stroke-opacity=".25" stroke-width=".07"/><path d="M1186 1003.75H1192" stroke="#d1c09a" stroke-opacity=".25" stroke-width=".07"/><path d="M1186 1004.60H1192" stroke="#d1c09a" stroke-opacity=".25" stroke-width=".07"/><rect x="1188.00" y="1000.60" width="1.2" height=".75" rx=".08" fill="#c4dadd" stroke="#7e7259" stroke-width=".15"/><path d="M1188.60 1000.60v.75" stroke="#748995" stroke-width=".1"/></g><defs><clipPath id="r15444"><path d="M1153.08,1000.50L1153.50,1000.08L1154.50,1000.08L1154.92,1000.50L1155.07,1001.50L1155.50,1002.01L1155.92,1002.50L1155.85,1003.50L1155.50,1003.84L1155.09,1003.50L1154.50,1003.06L1153.50,1002.92L1153.08,1002.50L1153.00,1001.50L1153.08,1000.50Z" fill-rule="evenodd"/></clipPath></defs><g clip-path="url(#r15444)"><path d="M1153.08,1000.50L1153.50,1000.08L1154.50,1000.08L1154.92,1000.50L1155.07,1001.50L1155.50,1002.01L1155.92,1002.50L1155.85,1003.50L1155.50,1003.84L1155.09,1003.50L1154.50,1003.06L1153.50,1002.92L1153.08,1002.50L1153.00,1001.50L1153.08,1000.50Z" fill="#a49573" stroke="#46514c" stroke-width=".30"/><rect x="1154.5" y="1000" width="3" height="4" fill="#7e7259"/><path d="M1154.50 1000V1004" stroke="#d1c09a" stroke-width=".22"/><path d="M1153 1000.50H1156" stroke="#d1c09a" stroke-opacity=".25" stroke-width=".07"/><path d="M1153 1001.35H1156" stroke="#d1c09a" stroke-opacity=".25" stroke-width=".07"/><path d="M1153 1002.20H1156" stroke="#d1c09a" stroke-opacity=".25" stroke-width=".07"/><path d="M1153 1003.05H1156" stroke="#d1c09a" stroke-opacity=".25" stroke-width=".07"/><path d="M1153 1003.90H1156" stroke="#d1c09a" stroke-opacity=".25" stroke-width=".07"/></g><defs><clipPath id="r15464"><path d="M1163.00,1001.50L1163.50,1001.07L1164.50,1001.07L1164.99,1001.50L1165.50,1002.02L1165.92,1002.50L1165.94,1003.50L1166.09,1004.50L1166.50,1004.84L1166.91,1004.50L1167.50,1004.07L1168.50,1004.08L1168.92,1004.50L1169.00,1005.50L1169.00,1006.50L1169.07,1007.50L1169.50,1008.00L1169.93,1008.50L1169.99,1009.50L1169.85,1010.50L1169.50,1010.84L1169.09,1010.50L1168.50,1010.07L1167.50,1010.00L1166.50,1010.07L1166.00,1010.50L1165.50,1010.93L1164.50,1011.00L1163.50,1011.07L1163.00,1011.50L1162.50,1011.93L1161.50,1011.92L1161.08,1011.50L1160.93,1010.50L1160.50,1010.00L1160.07,1009.50L1159.93,1008.50L1159.50,1008.00L1159.07,1007.50L1159.00,1006.50L1159.08,1005.50L1159.50,1005.08L1160.50,1005.00L1161.50,1005.00L1162.50,1005.07L1163.08,1005.50L1163.50,1005.85L1163.91,1005.50L1164.50,1004.99L1165.00,1004.50L1165.00,1003.50L1164.50,1003.07L1163.50,1002.99L1162.50,1002.93L1161.50,1002.92L1160.50,1002.92L1159.50,1002.83L1159.17,1002.50L1159.50,1002.17L1160.50,1002.08L1161.50,1002.08L1162.50,1002.01L1163.00,1001.50Z" fill-rule="evenodd"/></clipPath></defs><g clip-path="url(#r15464)"><path d="M1163.00,1001.50L1163.50,1001.07L1164.50,1001.07L1164.99,1001.50L1165.50,1002.02L1165.92,1002.50L1165.94,1003.50L1166.09,1004.50L1166.50,1004.84L1166.91,1004.50L1167.50,1004.07L1168.50,1004.08L1168.92,1004.50L1169.00,1005.50L1169.00,1006.50L1169.07,1007.50L1169.50,1008.00L1169.93,1008.50L1169.99,1009.50L1169.85,1010.50L1169.50,1010.84L1169.09,1010.50L1168.50,1010.07L1167.50,1010.00L1166.50,1010.07L1166.00,1010.50L1165.50,1010.93L1164.50,1011.00L1163.50,1011.07L1163.00,1011.50L1162.50,1011.93L1161.50,1011.92L1161.08,1011.50L1160.93,1010.50L1160.50,1010.00L1160.07,1009.50L1159.93,1008.50L1159.50,1008.00L1159.07,1007.50L1159.00,1006.50L1159.08,1005.50L1159.50,1005.08L1160.50,1005.00L1161.50,1005.00L1162.50,1005.07L1163.08,1005.50L1163.50,1005.85L1163.91,1005.50L1164.50,1004.99L1165.00,1004.50L1165.00,1003.50L1164.50,1003.07L1163.50,1002.99L1162.50,1002.93L1161.50,1002.92L1160.50,1002.92L1159.50,1002.83L1159.17,1002.50L1159.50,1002.17L1160.50,1002.08L1161.50,1002.08L1162.50,1002.01L1163.00,1001.50Z" fill="#a49573" stroke="#46514c" stroke-width=".30"/><rect x="1159" y="1006.5" width="11" height="11" fill="#7e7259"/><path d="M1159 1006.50H1170" stroke="#d1c09a" stroke-width=".22"/><path d="M1159 1001.50H1170" stroke="#d1c09a" stroke-opacity=".25" stroke-width=".07"/><path d="M1159 1002.35H1170" stroke="#d1c09a" stroke-opacity=".25" stroke-width=".07"/><path d="M1159 1003.20H1170" stroke="#d1c09a" stroke-opacity=".25" stroke-width=".07"/><path d="M1159 1004.05H1170" stroke="#d1c09a" stroke-opacity=".25" stroke-width=".07"/><path d="M1159 1004.90H1170" stroke="#d1c09a" stroke-opacity=".25" stroke-width=".07"/><path d="M1159 1005.75H1170" stroke="#d1c09a" stroke-opacity=".25" stroke-width=".07"/><path d="M1159 1006.60H1170" stroke="#d1c09a" stroke-opacity=".25" stroke-width=".07"/><path d="M1159 1007.45H1170" stroke="#d1c09a" stroke-opacity=".25" stroke-width=".07"/><path d="M1159 1008.30H1170" stroke="#d1c09a" stroke-opacity=".25" stroke-width=".07"/><path d="M1159 1009.15H1170" stroke="#d1c09a" stroke-opacity=".25" stroke-width=".07"/><path d="M1159 1010.00H1170" stroke="#d1c09a" stroke-opacity=".25" stroke-width=".07"/><path d="M1159 1010.85H1170" stroke="#d1c09a" stroke-opacity=".25" stroke-width=".07"/><path d="M1159 1011.70H1170" stroke="#d1c09a" stroke-opacity=".25" stroke-width=".07"/><rect x="1163.50" y="1005.10" width="1.2" height=".75" rx=".08" fill="#c4dadd" stroke="#7e7259" stroke-width=".15"/><path d="M1164.10 1005.10v.75" stroke="#748995" stroke-width=".1"/><rect x="1160" y="1002" width="2.6" height="1.7" rx=".12" fill="#d4d6c4" stroke="#68797a" stroke-width=".12"/><circle cx="1160.7" cy="1002.8" r=".4" fill="#869490"/></g><defs><clipPath id="r15512"><path d="M1196.00,1003.50L1196.50,1003.07L1197.50,1003.07L1198.08,1003.50L1198.50,1003.85L1198.92,1003.50L1199.50,1003.07L1200.50,1003.07L1200.99,1003.50L1201.50,1004.01L1201.93,1004.50L1202.07,1005.50L1202.50,1006.08L1202.85,1006.50L1202.50,1006.92L1202.07,1007.50L1201.93,1008.50L1201.50,1008.99L1200.99,1009.50L1200.50,1009.93L1199.50,1010.00L1198.50,1010.00L1197.50,1010.00L1196.50,1010.07L1195.91,1010.50L1195.50,1010.84L1195.15,1010.50L1194.94,1009.50L1194.50,1009.00L1194.07,1008.50L1194.00,1007.50L1193.93,1006.50L1193.50,1005.92L1193.15,1005.50L1193.50,1005.09L1194.01,1004.50L1194.50,1004.07L1195.50,1003.93L1196.00,1003.50Z" fill-rule="evenodd"/></clipPath></defs><g clip-path="url(#r15512)"><path d="M1196.00,1003.50L1196.50,1003.07L1197.50,1003.07L1198.08,1003.50L1198.50,1003.85L1198.92,1003.50L1199.50,1003.07L1200.50,1003.07L1200.99,1003.50L1201.50,1004.01L1201.93,1004.50L1202.07,1005.50L1202.50,1006.08L1202.85,1006.50L1202.50,1006.92L1202.07,1007.50L1201.93,1008.50L1201.50,1008.99L1200.99,1009.50L1200.50,1009.93L1199.50,1010.00L1198.50,1010.00L1197.50,1010.00L1196.50,1010.07L1195.91,1010.50L1195.50,1010.84L1195.15,1010.50L1194.94,1009.50L1194.50,1009.00L1194.07,1008.50L1194.00,1007.50L1193.93,1006.50L1193.50,1005.92L1193.15,1005.50L1193.50,1005.09L1194.01,1004.50L1194.50,1004.07L1195.50,1003.93L1196.00,1003.50Z" fill="#747b87" stroke="#46514c" stroke-width=".30"/><rect x="1193" y="1007.0" width="10" height="8" fill="#545b68"/><path d="M1193 1007.00H1203" stroke="#9ca8b3" stroke-width=".22"/><path d="M1193 1003.50H1203" stroke="#9ca8b3" stroke-opacity=".25" stroke-width=".07"/><path d="M1193 1004.35H1203" stroke="#9ca8b3" stroke-opacity=".25" stroke-width=".07"/><path d="M1193 1005.20H1203" stroke="#9ca8b3" stroke-opacity=".25" stroke-width=".07"/><path d="M1193 1006.05H1203" stroke="#9ca8b3" stroke-opacity=".25" stroke-width=".07"/><path d="M1193 1006.90H1203" stroke="#9ca8b3" stroke-opacity=".25" stroke-width=".07"/><path d="M1193 1007.75H1203" stroke="#9ca8b3" stroke-opacity=".25" stroke-width=".07"/><path d="M1193 1008.60H1203" stroke="#9ca8b3" stroke-opacity=".25" stroke-width=".07"/><path d="M1193 1009.45H1203" stroke="#9ca8b3" stroke-opacity=".25" stroke-width=".07"/><path d="M1193 1010.30H1203" stroke="#9ca8b3" stroke-opacity=".25" stroke-width=".07"/><rect x="1197.00" y="1005.60" width="1.2" height=".75" rx=".08" fill="#c4dadd" stroke="#545b68" stroke-width=".15"/><path d="M1197.60 1005.60v.75" stroke="#748995" stroke-width=".1"/><rect x="1194" y="1004" width="2.6" height="1.7" rx=".12" fill="#d4d6c4" stroke="#68797a" stroke-width=".12"/><circle cx="1194.7" cy="1004.8" r=".4" fill="#869490"/></g><defs><clipPath id="r15670"><path d="M1175.08,1009.50L1175.50,1009.15L1175.91,1009.50L1176.50,1010.01L1176.93,1010.50L1177.00,1011.50L1177.07,1012.50L1177.50,1013.00L1177.93,1013.50L1178.07,1014.50L1178.50,1015.08L1178.85,1015.50L1178.50,1015.91L1177.99,1016.50L1177.50,1016.93L1176.50,1017.07L1176.00,1017.50L1175.50,1017.93L1174.50,1017.92L1174.08,1017.50L1173.93,1016.50L1173.50,1016.00L1173.07,1015.50L1173.00,1014.50L1173.00,1013.50L1172.93,1012.50L1172.50,1012.00L1172.07,1011.50L1172.08,1010.50L1172.50,1010.08L1173.50,1010.00L1174.50,1009.93L1175.08,1009.50Z" fill-rule="evenodd"/></clipPath></defs><g clip-path="url(#r15670)"><path d="M1175.08,1009.50L1175.50,1009.15L1175.91,1009.50L1176.50,1010.01L1176.93,1010.50L1177.00,1011.50L1177.07,1012.50L1177.50,1013.00L1177.93,1013.50L1178.07,1014.50L1178.50,1015.08L1178.85,1015.50L1178.50,1015.91L1177.99,1016.50L1177.50,1016.93L1176.50,1017.07L1176.00,1017.50L1175.50,1017.93L1174.50,1017.92L1174.08,1017.50L1173.93,1016.50L1173.50,1016.00L1173.07,1015.50L1173.00,1014.50L1173.00,1013.50L1172.93,1012.50L1172.50,1012.00L1172.07,1011.50L1172.08,1010.50L1172.50,1010.08L1173.50,1010.00L1174.50,1009.93L1175.08,1009.50Z" fill="#647c93" stroke="#46514c" stroke-width=".30"/><rect x="1175.5" y="1009" width="7" height="9" fill="#445971"/><path d="M1175.50 1009V1018" stroke="#8da5b5" stroke-width=".22"/><path d="M1172 1009.50H1179" stroke="#8da5b5" stroke-opacity=".25" stroke-width=".07"/><path d="M1172 1010.35H1179" stroke="#8da5b5" stroke-opacity=".25" stroke-width=".07"/><path d="M1172 1011.20H1179" stroke="#8da5b5" stroke-opacity=".25" stroke-width=".07"/><path d="M1172 1012.05H1179" stroke="#8da5b5" stroke-opacity=".25" stroke-width=".07"/><path d="M1172 1012.90H1179" stroke="#8da5b5" stroke-opacity=".25" stroke-width=".07"/><path d="M1172 1013.75H1179" stroke="#8da5b5" stroke-opacity=".25" stroke-width=".07"/><path d="M1172 1014.60H1179" stroke="#8da5b5" stroke-opacity=".25" stroke-width=".07"/><path d="M1172 1015.45H1179" stroke="#8da5b5" stroke-opacity=".25" stroke-width=".07"/><path d="M1172 1016.30H1179" stroke="#8da5b5" stroke-opacity=".25" stroke-width=".07"/><path d="M1172 1017.15H1179" stroke="#8da5b5" stroke-opacity=".25" stroke-width=".07"/><rect x="1174.50" y="1012.10" width="1.2" height=".75" rx=".08" fill="#c4dadd" stroke="#445971" stroke-width=".15"/><path d="M1175.10 1012.10v.75" stroke="#748995" stroke-width=".1"/></g><defs><clipPath id="r15941"><path d="M1193.00,1019.50L1193.50,1019.07L1194.50,1019.00L1195.50,1019.00L1196.50,1019.08L1196.92,1019.50L1196.93,1020.50L1196.50,1021.00L1196.07,1021.50L1195.93,1022.50L1195.50,1022.99L1195.00,1023.50L1194.50,1024.00L1193.99,1024.50L1193.50,1024.93L1192.50,1025.07L1192.00,1025.50L1191.50,1025.93L1190.50,1026.00L1189.50,1026.00L1188.50,1025.92L1188.00,1025.50L1187.83,1024.50L1187.50,1024.17L1187.17,1024.50L1187.07,1025.50L1186.93,1026.50L1186.50,1026.92L1185.50,1027.00L1184.50,1026.93L1184.01,1026.50L1183.50,1026.00L1182.99,1025.50L1182.50,1025.07L1181.50,1024.92L1181.08,1024.50L1181.07,1023.50L1181.50,1023.01L1182.00,1022.50L1182.50,1022.00L1183.09,1021.50L1183.50,1021.15L1184.00,1021.50L1184.50,1021.85L1185.00,1021.50L1185.50,1021.15L1185.92,1021.50L1186.50,1021.93L1187.50,1021.93L1188.00,1021.50L1188.50,1021.07L1189.50,1021.00L1190.50,1020.93L1191.00,1020.50L1191.50,1020.07L1192.50,1019.93L1193.00,1019.50Z" fill-rule="evenodd"/></clipPath></defs><g clip-path="url(#r15941)"><path d="M1193.00,1019.50L1193.50,1019.07L1194.50,1019.00L1195.50,1019.00L1196.50,1019.08L1196.92,1019.50L1196.93,1020.50L1196.50,1021.00L1196.07,1021.50L1195.93,1022.50L1195.50,1022.99L1195.00,1023.50L1194.50,1024.00L1193.99,1024.50L1193.50,1024.93L1192.50,1025.07L1192.00,1025.50L1191.50,1025.93L1190.50,1026.00L1189.50,1026.00L1188.50,1025.92L1188.00,1025.50L1187.83,1024.50L1187.50,1024.17L1187.17,1024.50L1187.07,1025.50L1186.93,1026.50L1186.50,1026.92L1185.50,1027.00L1184.50,1026.93L1184.01,1026.50L1183.50,1026.00L1182.99,1025.50L1182.50,1025.07L1181.50,1024.92L1181.08,1024.50L1181.07,1023.50L1181.50,1023.01L1182.00,1022.50L1182.50,1022.00L1183.09,1021.50L1183.50,1021.15L1184.00,1021.50L1184.50,1021.85L1185.00,1021.50L1185.50,1021.15L1185.92,1021.50L1186.50,1021.93L1187.50,1021.93L1188.00,1021.50L1188.50,1021.07L1189.50,1021.00L1190.50,1020.93L1191.00,1020.50L1191.50,1020.07L1192.50,1019.93L1193.00,1019.50Z" fill="#728f89" stroke="#46514c" stroke-width=".30"/><rect x="1181" y="1023.0" width="16" height="8" fill="#506c66"/><path d="M1181 1023.00H1197" stroke="#a2b7a0" stroke-width=".22"/><path d="M1181 1019.50H1197" stroke="#a2b7a0" stroke-opacity=".25" stroke-width=".07"/><path d="M1181 1020.35H1197" stroke="#a2b7a0" stroke-opacity=".25" stroke-width=".07"/><path d="M1181 1021.20H1197" stroke="#a2b7a0" stroke-opacity=".25" stroke-width=".07"/><path d="M1181 1022.05H1197" stroke="#a2b7a0" stroke-opacity=".25" stroke-width=".07"/><path d="M1181 1022.90H1197" stroke="#a2b7a0" stroke-opacity=".25" stroke-width=".07"/><path d="M1181 1023.75H1197" stroke="#a2b7a0" stroke-opacity=".25" stroke-width=".07"/><path d="M1181 1024.60H1197" stroke="#a2b7a0" stroke-opacity=".25" stroke-width=".07"/><path d="M1181 1025.45H1197" stroke="#a2b7a0" stroke-opacity=".25" stroke-width=".07"/><path d="M1181 1026.30H1197" stroke="#a2b7a0" stroke-opacity=".25" stroke-width=".07"/><rect x="1188.00" y="1021.60" width="1.2" height=".75" rx=".08" fill="#c4dadd" stroke="#506c66" stroke-width=".15"/><path d="M1188.60 1021.60v.75" stroke="#748995" stroke-width=".1"/><rect x="1182" y="1020" width="2.6" height="1.7" rx=".12" fill="#d4d6c4" stroke="#68797a" stroke-width=".12"/><circle cx="1182.7" cy="1020.8" r=".4" fill="#869490"/></g><defs><clipPath id="r15969"><path d="M1205.01,1020.50L1205.50,1020.07L1206.50,1020.00L1207.50,1020.00L1208.50,1020.00L1209.50,1020.07L1209.99,1020.50L1210.50,1021.01L1210.93,1021.50L1211.07,1022.50L1211.50,1023.00L1211.93,1023.50L1212.01,1024.50L1212.15,1025.50L1212.50,1025.84L1212.91,1025.50L1213.50,1025.07L1214.50,1025.08L1214.92,1025.50L1214.93,1026.50L1214.50,1027.01L1214.08,1027.50L1214.15,1028.50L1214.50,1028.90L1214.99,1028.50L1215.50,1028.14L1215.91,1028.50L1216.50,1029.02L1216.92,1029.50L1216.85,1030.50L1216.50,1030.85L1216.09,1030.50L1215.50,1030.05L1214.50,1030.02L1214.07,1030.50L1214.01,1031.50L1214.50,1031.92L1215.50,1032.07L1215.92,1032.50L1216.07,1033.50L1216.50,1034.00L1216.93,1034.50L1217.00,1035.50L1217.07,1036.50L1217.50,1036.99L1218.00,1037.50L1218.50,1038.01L1218.93,1038.50L1219.07,1039.50L1219.50,1040.00L1219.93,1040.50L1220.07,1041.50L1220.50,1042.00L1220.93,1042.50L1220.93,1043.50L1220.50,1044.00L1220.07,1044.50L1219.92,1045.50L1219.50,1045.92L1218.50,1046.07L1218.00,1046.50L1217.50,1046.93L1216.50,1047.07L1216.01,1047.50L1215.50,1048.00L1214.99,1048.50L1214.50,1048.93L1213.50,1049.00L1212.50,1048.93L1212.01,1048.50L1211.50,1047.99L1211.07,1047.50L1210.93,1046.50L1210.50,1046.00L1210.07,1045.50L1210.00,1044.50L1210.00,1043.50L1209.93,1042.50L1209.50,1042.00L1209.07,1041.50L1208.93,1040.50L1208.50,1040.00L1208.07,1039.50L1207.93,1038.50L1207.50,1038.00L1207.07,1037.50L1207.00,1036.50L1206.93,1035.50L1206.50,1034.92L1206.15,1034.50L1206.50,1034.00L1206.85,1033.50L1206.50,1032.99L1206.16,1032.50L1206.50,1032.15L1207.50,1032.01L1208.50,1031.99L1209.50,1032.02L1209.92,1032.50L1210.08,1033.50L1210.50,1033.92L1211.50,1033.93L1211.99,1033.50L1212.50,1032.99L1212.94,1032.50L1213.00,1031.50L1212.50,1031.01L1211.99,1030.50L1211.50,1030.07L1210.50,1030.07L1209.92,1030.50L1209.50,1030.91L1209.08,1030.50L1208.50,1030.07L1207.50,1030.00L1206.50,1030.00L1205.50,1030.00L1204.50,1029.92L1204.08,1029.50L1203.93,1028.50L1203.50,1028.00L1203.07,1027.50L1202.93,1026.50L1202.50,1026.00L1202.07,1025.50L1202.00,1024.50L1202.00,1023.50L1202.08,1022.50L1202.50,1022.08L1203.50,1021.93L1203.99,1021.50L1204.50,1021.00L1205.01,1020.50Z" fill-rule="evenodd"/></clipPath></defs><g clip-path="url(#r15969)"><path d="M1205.01,1020.50L1205.50,1020.07L1206.50,1020.00L1207.50,1020.00L1208.50,1020.00L1209.50,1020.07L1209.99,1020.50L1210.50,1021.01L1210.93,1021.50L1211.07,1022.50L1211.50,1023.00L1211.93,1023.50L1212.01,1024.50L1212.15,1025.50L1212.50,1025.84L1212.91,1025.50L1213.50,1025.07L1214.50,1025.08L1214.92,1025.50L1214.93,1026.50L1214.50,1027.01L1214.08,1027.50L1214.15,1028.50L1214.50,1028.90L1214.99,1028.50L1215.50,1028.14L1215.91,1028.50L1216.50,1029.02L1216.92,1029.50L1216.85,1030.50L1216.50,1030.85L1216.09,1030.50L1215.50,1030.05L1214.50,1030.02L1214.07,1030.50L1214.01,1031.50L1214.50,1031.92L1215.50,1032.07L1215.92,1032.50L1216.07,1033.50L1216.50,1034.00L1216.93,1034.50L1217.00,1035.50L1217.07,1036.50L1217.50,1036.99L1218.00,1037.50L1218.50,1038.01L1218.93,1038.50L1219.07,1039.50L1219.50,1040.00L1219.93,1040.50L1220.07,1041.50L1220.50,1042.00L1220.93,1042.50L1220.93,1043.50L1220.50,1044.00L1220.07,1044.50L1219.92,1045.50L1219.50,1045.92L1218.50,1046.07L1218.00,1046.50L1217.50,1046.93L1216.50,1047.07L1216.01,1047.50L1215.50,1048.00L1214.99,1048.50L1214.50,1048.93L1213.50,1049.00L1212.50,1048.93L1212.01,1048.50L1211.50,1047.99L1211.07,1047.50L1210.93,1046.50L1210.50,1046.00L1210.07,1045.50L1210.00,1044.50L1210.00,1043.50L1209.93,1042.50L1209.50,1042.00L1209.07,1041.50L1208.93,1040.50L1208.50,1040.00L1208.07,1039.50L1207.93,1038.50L1207.50,1038.00L1207.07,1037.50L1207.00,1036.50L1206.93,1035.50L1206.50,1034.92L1206.15,1034.50L1206.50,1034.00L1206.85,1033.50L1206.50,1032.99L1206.16,1032.50L1206.50,1032.15L1207.50,1032.01L1208.50,1031.99L1209.50,1032.02L1209.92,1032.50L1210.08,1033.50L1210.50,1033.92L1211.50,1033.93L1211.99,1033.50L1212.50,1032.99L1212.94,1032.50L1213.00,1031.50L1212.50,1031.01L1211.99,1030.50L1211.50,1030.07L1210.50,1030.07L1209.92,1030.50L1209.50,1030.91L1209.08,1030.50L1208.50,1030.07L1207.50,1030.00L1206.50,1030.00L1205.50,1030.00L1204.50,1029.92L1204.08,1029.50L1203.93,1028.50L1203.50,1028.00L1203.07,1027.50L1202.93,1026.50L1202.50,1026.00L1202.07,1025.50L1202.00,1024.50L1202.00,1023.50L1202.08,1022.50L1202.50,1022.08L1203.50,1021.93L1203.99,1021.50L1204.50,1021.00L1205.01,1020.50Z" fill="#a49573" stroke="#46514c" stroke-width=".30"/><rect x="1211.5" y="1020" width="19" height="29" fill="#7e7259"/><path d="M1211.50 1020V1049" stroke="#d1c09a" stroke-width=".22"/><path d="M1202 1020.50H1221" stroke="#d1c09a" stroke-opacity=".25" stroke-width=".07"/><path d="M1202 1021.35H1221" stroke="#d1c09a" stroke-opacity=".25" stroke-width=".07"/><path d="M1202 1022.20H1221" stroke="#d1c09a" stroke-opacity=".25" stroke-width=".07"/><path d="M1202 1023.05H1221" stroke="#d1c09a" stroke-opacity=".25" stroke-width=".07"/><path d="M1202 1023.90H1221" stroke="#d1c09a" stroke-opacity=".25" stroke-width=".07"/><path d="M1202 1024.75H1221" stroke="#d1c09a" stroke-opacity=".25" stroke-width=".07"/><path d="M1202 1025.60H1221" stroke="#d1c09a" stroke-opacity=".25" stroke-width=".07"/><path d="M1202 1026.45H1221" stroke="#d1c09a" stroke-opacity=".25" stroke-width=".07"/><path d="M1202 1027.30H1221" stroke="#d1c09a" stroke-opacity=".25" stroke-width=".07"/><path d="M1202 1028.15H1221" stroke="#d1c09a" stroke-opacity=".25" stroke-width=".07"/><path d="M1202 1029.00H1221" stroke="#d1c09a" stroke-opacity=".25" stroke-width=".07"/><path d="M1202 1029.85H1221" stroke="#d1c09a" stroke-opacity=".25" stroke-width=".07"/><path d="M1202 1030.70H1221" stroke="#d1c09a" stroke-opacity=".25" stroke-width=".07"/><path d="M1202 1031.55H1221" stroke="#d1c09a" stroke-opacity=".25" stroke-width=".07"/><path d="M1202 1032.40H1221" stroke="#d1c09a" stroke-opacity=".25" stroke-width=".07"/><path d="M1202 1033.25H1221" stroke="#d1c09a" stroke-opacity=".25" stroke-width=".07"/><path d="M1202 1034.10H1221" stroke="#d1c09a" stroke-opacity=".25" stroke-width=".07"/><path d="M1202 1034.95H1221" stroke="#d1c09a" stroke-opacity=".25" stroke-width=".07"/><path d="M1202 1035.80H1221" stroke="#d1c09a" stroke-opacity=".25" stroke-width=".07"/><path d="M1202 1036.65H1221" stroke="#d1c09a" stroke-opacity=".25" stroke-width=".07"/><path d="M1202 1037.50H1221" stroke="#d1c09a" stroke-opacity=".25" stroke-width=".07"/><path d="M1202 1038.35H1221" stroke="#d1c09a" stroke-opacity=".25" stroke-width=".07"/><path d="M1202 1039.20H1221" stroke="#d1c09a" stroke-opacity=".25" stroke-width=".07"/><path d="M1202 1040.05H1221" stroke="#d1c09a" stroke-opacity=".25" stroke-width=".07"/><path d="M1202 1040.90H1221" stroke="#d1c09a" stroke-opacity=".25" stroke-width=".07"/><path d="M1202 1041.75H1221" stroke="#d1c09a" stroke-opacity=".25" stroke-width=".07"/><path d="M1202 1042.60H1221" stroke="#d1c09a" stroke-opacity=".25" stroke-width=".07"/><path d="M1202 1043.45H1221" stroke="#d1c09a" stroke-opacity=".25" stroke-width=".07"/><path d="M1202 1044.30H1221" stroke="#d1c09a" stroke-opacity=".25" stroke-width=".07"/><path d="M1202 1045.15H1221" stroke="#d1c09a" stroke-opacity=".25" stroke-width=".07"/><path d="M1202 1046.00H1221" stroke="#d1c09a" stroke-opacity=".25" stroke-width=".07"/><path d="M1202 1046.85H1221" stroke="#d1c09a" stroke-opacity=".25" stroke-width=".07"/><path d="M1202 1047.70H1221" stroke="#d1c09a" stroke-opacity=".25" stroke-width=".07"/><path d="M1202 1048.55H1221" stroke="#d1c09a" stroke-opacity=".25" stroke-width=".07"/><rect x="1210.50" y="1033.10" width="1.2" height=".75" rx=".08" fill="#c4dadd" stroke="#7e7259" stroke-width=".15"/><path d="M1211.10 1033.10v.75" stroke="#748995" stroke-width=".1"/><rect x="1203" y="1021" width="2.6" height="1.7" rx=".12" fill="#d4d6c4" stroke="#68797a" stroke-width=".12"/><circle cx="1203.7" cy="1021.8" r=".4" fill="#869490"/></g></svg>