<svg xmlns="http://www.w3.org/2000/svg" width="1024" height="1024" viewBox="1152 832 64 64"><rect x="1152" y="832" width="64" height="64" fill="#ece8db"/><path fill="#d6dfa7" fill-rule="evenodd" d="M1148.08,828.50L1148.50,828.08L1149.50,828.00L1150.50,828.00L1151.50,828.00L1152.50,828.00L1153.50,828.00L1154.50,828.00L1155.50,828.00L1156.50,828.00L1157.50,828.00L1158.50,828.00L1159.50,828.00L1160.50,828.00L1161.50,828.00L1162.50,828.00L1163.50,828.00L1164.50,828.00L1165.50,828.00L1166.50,828.00L1167.50,828.00L1168.50,828.00L1169.50,828.00L1170.50,828.00L1171.50,828.00L1172.50,828.00L1173.50,828.00L1174.50,828.00L1175.50,828.00L1176.50,828.00L1177.50,828.00L1178.50,828.00L1179.50,828.00L1180.50,828.00L1181.50,828.00L1182.50,828.00L1183.50,828.00L1184.50,828.00L1185.50,828.00L1186.50,828.00L1187.50,828.00L1188.50,828.00L1189.50,828.00L1190.50,828.00L1191.50,828.00L1192.50,828.00L1193.50,828.00L1194.50,828.00L1195.50,828.00L1196.50,828.00L1197.50,828.00L1198.50,828.00L1199.50,828.00L1200.50,828.00L1201.50,828.00L1202.50,828.00L1203.50,828.00L1204.50,828.00L1205.50,828.00L1206.50,828.00L1207.50,828.00L1208.50,828.00L1209.50,828.00L1210.50,828.00L1211.50,828.00L1212.50,828.00L1213.50,828.00L1214.50,828.00L1215.50,828.00L1216.50,828.00L1217.50,828.00L1218.50,828.00L1219.50,828.08L1219.92,828.50L1220.00,829.50L1220.00,830.50L1220.00,831.50L1220.00,832.50L1220.00,833.50L1220.00,834.50L1220.00,835.50L1220.00,836.50L1220.00,837.50L1220.00,838.50L1220.00,839.50L1220.00,840.50L1220.00,841.50L1220.00,842.50L1220.00,843.50L1220.00,844.50L1220.00,845.50L1220.00,846.50L1220.00,847.50L1220.00,848.50L1220.00,849.50L1220.00,850.50L1220.00,851.50L1220.00,852.50L1220.00,853.50L1220.00,854.50L1220.00,855.50L1220.00,856.50L1220.00,857.50L1220.00,858.50L1220.00,859.50L1220.00,860.50L1220.00,861.50L1220.00,862.50L1220.00,863.50L1220.00,864.50L1220.00,865.50L1220.00,866.50L1220.00,867.50L1220.00,868.50L1220.00,869.50L1220.00,870.50L1220.00,871.50L1220.00,872.50L1220.00,873.50L1220.00,874.50L1220.00,875.50L1220.00,876.50L1220.00,877.50L1220.00,878.50L1220.00,879.50L1220.00,880.50L1220.00,881.50L1220.00,882.50L1220.00,883.50L1220.00,884.50L1220.00,885.50L1220.00,886.50L1220.00,887.50L1220.00,888.50L1220.00,889.50L1220.00,890.50L1220.00,891.50L1220.00,892.50L1220.00,893.50L1220.00,894.50L1220.00,895.50L1220.00,896.50L1220.00,897.50L1220.00,898.50L1219.92,899.50L1219.50,899.92L1218.50,900.00L1217.50,900.00L1216.50,900.00L1215.50,900.00L1214.50,900.00L1213.50,900.00L1212.50,900.00L1211.50,900.00L1210.50,900.00L1209.50,900.00L1208.50,900.00L1207.50,900.00L1206.50,900.00L1205.50,900.00L1204.50,900.00L1203.50,900.00L1202.50,900.00L1201.50,900.00L1200.50,900.00L1199.50,900.00L1198.50,900.00L1197.50,900.00L1196.50,900.00L1195.50,900.00L1194.50,900.00L1193.50,900.00L1192.50,900.00L1191.50,900.00L1190.50,900.00L1189.50,900.00L1188.50,900.00L1187.50,900.00L1186.50,900.00L1185.50,900.00L1184.50,900.00L1183.50,900.00L1182.50,900.00L1181.50,900.00L1180.50,900.00L1179.50,900.00L1178.50,900.00L1177.50,900.00L1176.50,900.00L1175.50,900.00L1174.50,900.00L1173.50,900.00L1172.50,900.00L1171.50,900.00L1170.50,900.00L1169.50,900.00L1168.50,900.00L1167.50,900.00L1166.50,900.00L1165.50,900.00L1164.50,900.00L1163.50,900.00L1162.50,900.00L1161.50,900.00L1160.50,900.00L1159.50,900.00L1158.50,900.00L1157.50,900.00L1156.50,900.00L1155.50,900.00L1154.50,900.00L1153.50,900.00L1152.50,900.00L1151.50,900.00L1150.50,900.00L1149.50,900.00L1148.50,899.92L1148.08,899.50L1148.00,898.50L1148.00,897.50L1148.00,896.50L1148.00,895.50L1148.00,894.50L1148.00,893.50L1148.00,892.50L1148.00,891.50L1148.00,890.50L1148.00,889.50L1148.00,888.50L1148.00,887.50L1148.00,886.50L1148.00,885.50L1148.00,884.50L1148.00,883.50L1148.00,882.50L1148.00,881.50L1148.00,880.50L1148.00,879.50L1148.00,878.50L1148.00,877.50L1148.00,876.50L1148.00,875.50L1148.00,874.50L1148.00,873.50L1148.00,872.50L1148.00,871.50L1148.00,870.50L1148.00,869.50L1148.00,868.50L1148.00,867.50L1148.00,866.50L1148.00,865.50L1148.00,864.50L1148.00,863.50L1148.00,862.50L1148.00,861.50L1148.00,860.50L1148.00,859.50L1148.00,858.50L1148.00,857.50L1148.00,856.50L1148.00,855.50L1148.00,854.50L1148.00,853.50L1148.00,852.50L1148.00,851.50L1148.00,850.50L1148.00,849.50L1148.00,848.50L1148.00,847.50L1148.00,846.50L1148.00,845.50L1148.00,844.50L1148.00,843.50L1148.00,842.50L1148.00,841.50L1148.00,840.50L1148.00,839.50L1148.00,838.50L1148.00,837.50L1148.00,836.50L1148.00,835.50L1148.00,834.50L1148.00,833.50L1148.00,832.50L1148.00,831.50L1148.00,830.50L1148.00,829.50L1148.08,828.50Z"/><path fill="#7fbabf" fill-rule="evenodd" d="M1209.28,879.50L1209.50,879.28L1209.72,879.50L1209.50,879.72L1209.28,879.50ZM1205.28,880.50L1205.50,880.28L1205.72,880.50L1205.50,880.72L1205.28,880.50ZM1174.28,888.50L1174.50,888.28L1174.72,888.50L1174.50,888.72L1174.28,888.50ZM1186.28,899.50L1186.50,899.28L1186.72,899.50L1186.50,899.72L1186.28,899.50Z"/><path fill="#adb8b8" fill-rule="evenodd" d="M1152.16,828.50L1152.50,828.15L1153.50,828.01L1154.50,828.07L1154.99,828.50L1155.50,829.01L1155.93,829.50L1156.07,830.50L1156.50,831.00L1156.93,831.50L1157.00,832.50L1157.07,833.50L1157.50,833.99L1158.00,834.50L1158.50,835.09L1158.85,835.50L1158.50,836.00L1158.15,836.50L1158.50,836.91L1159.00,837.50L1159.50,838.00L1160.00,838.50L1160.50,839.00L1161.09,839.50L1161.50,839.85L1161.92,839.50L1162.50,839.07L1163.50,839.00L1164.50,838.93L1165.00,838.50L1165.50,838.07L1166.50,837.94L1166.99,837.50L1167.50,837.00L1168.01,836.50L1168.50,836.07L1169.50,835.93L1169.99,835.50L1170.50,835.00L1171.01,834.50L1171.50,834.07L1172.50,833.93L1173.00,833.50L1173.50,833.07L1174.50,832.93L1175.00,832.50L1175.50,832.07L1176.50,831.93L1176.99,831.50L1177.50,831.00L1178.01,830.50L1178.50,830.07L1179.50,829.93L1180.00,829.50L1180.50,829.07L1181.50,828.93L1182.00,828.50L1182.50,828.07L1183.50,828.00L1184.50,828.01L1185.50,828.15L1185.84,828.50L1185.50,828.90L1184.99,829.50L1184.50,829.93L1183.50,830.07L1183.00,830.50L1182.50,830.93L1181.50,831.07L1181.00,831.50L1180.50,831.93L1179.50,832.07L1179.01,832.50L1178.50,833.00L1177.99,833.50L1177.50,833.93L1176.50,834.07L1176.01,834.50L1175.50,835.00L1174.99,835.50L1174.50,835.93L1173.50,836.07L1173.00,836.50L1172.50,836.93L1171.50,837.07L1171.00,837.50L1170.50,837.93L1169.50,838.07L1169.00,838.50L1168.50,838.93L1167.50,839.06L1167.01,839.50L1166.50,840.00L1165.99,840.50L1165.50,840.93L1164.50,841.07L1164.01,841.50L1163.50,842.01L1163.07,842.50L1163.00,843.50L1163.00,844.50L1163.00,845.50L1163.07,846.50L1163.50,847.00L1163.93,847.50L1164.07,848.50L1164.50,849.00L1164.93,849.50L1165.07,850.50L1165.50,851.00L1165.93,851.50L1166.07,852.50L1166.50,853.00L1166.93,853.50L1167.07,854.50L1167.50,855.00L1167.93,855.50L1168.07,856.50L1168.50,857.00L1168.93,857.50L1169.00,858.50L1169.07,859.50L1169.50,859.99L1170.00,860.50L1170.50,861.00L1171.00,861.50L1171.50,862.00L1172.01,862.50L1172.50,862.93L1173.50,863.07L1173.99,863.50L1174.50,864.00L1175.01,864.50L1175.50,864.93L1176.50,865.00L1177.50,865.00L1178.50,865.00L1179.50,864.93L1179.99,864.50L1180.50,863.99L1180.93,863.50L1181.07,862.50L1181.50,862.00L1181.93,861.50L1182.07,860.50L1182.50,860.01L1183.00,859.50L1183.50,858.99L1183.93,858.50L1184.07,857.50L1184.50,857.00L1184.93,856.50L1185.08,855.50L1185.50,855.08L1186.50,854.92L1186.93,854.50L1187.15,853.50L1187.50,853.15L1188.00,853.50L1188.50,853.85L1188.86,853.50L1188.99,852.50L1188.50,851.93L1188.15,851.50L1188.50,851.08L1188.94,850.50L1189.07,849.50L1189.50,849.01L1190.00,848.50L1190.50,847.99L1190.93,847.50L1191.07,846.50L1191.50,846.01L1192.00,845.50L1192.50,844.99L1192.93,844.50L1193.07,843.50L1193.50,843.00L1193.93,842.50L1194.07,841.50L1194.50,841.00L1194.93,840.50L1195.08,839.50L1195.50,839.08L1196.50,838.92L1196.92,838.50L1197.07,837.50L1197.50,837.01L1198.00,836.50L1198.50,835.99L1198.93,835.50L1199.07,834.50L1199.50,834.00L1199.93,833.50L1200.07,832.50L1200.50,832.01L1201.00,831.50L1201.50,830.99L1201.93,830.50L1202.07,829.50L1202.50,829.01L1203.01,828.50L1203.50,828.07L1204.50,828.00L1205.50,828.08L1205.92,828.50L1205.93,829.50L1205.50,830.00L1205.07,830.50L1204.93,831.50L1204.50,831.99L1204.00,832.50L1203.50,833.01L1203.07,833.50L1202.93,834.50L1202.50,834.99L1202.00,835.50L1201.50,836.01L1201.07,836.50L1200.93,837.50L1200.50,837.99L1200.00,838.50L1199.50,839.01L1199.07,839.50L1198.93,840.50L1198.50,840.99L1198.00,841.50L1197.50,842.01L1197.07,842.50L1196.93,843.50L1196.50,843.99L1196.00,844.50L1195.50,845.01L1195.07,845.50L1194.93,846.50L1194.50,847.00L1194.07,847.50L1193.93,848.50L1193.50,849.00L1193.07,849.50L1192.92,850.50L1192.50,850.92L1191.50,851.00L1190.50,851.08L1190.06,851.50L1190.00,852.50L1190.50,853.08L1190.85,853.50L1190.50,853.91L1189.99,854.50L1189.50,854.99L1189.00,855.50L1188.50,856.01L1188.07,856.50L1187.93,857.50L1187.50,858.00L1187.07,858.50L1186.93,859.50L1186.50,860.00L1186.07,860.50L1185.93,861.50L1185.50,861.99L1185.00,862.50L1184.50,863.01L1184.07,863.50L1183.93,864.50L1183.50,864.99L1183.00,865.50L1182.50,866.01L1182.07,866.50L1182.00,867.50L1182.07,868.50L1182.50,868.99L1183.01,869.50L1183.50,869.93L1184.50,870.07L1184.99,870.50L1185.50,871.00L1186.01,871.50L1186.50,871.93L1187.50,872.07L1188.00,872.50L1188.50,872.93L1189.50,873.07L1190.00,873.50L1190.50,873.93L1191.50,874.07L1191.99,874.50L1192.50,875.00L1193.01,875.50L1193.50,875.93L1194.50,876.00L1195.50,876.00L1196.50,876.00L1197.50,875.93L1198.08,875.50L1198.50,875.09L1198.91,875.50L1199.00,876.50L1199.15,877.50L1199.50,877.84L1199.90,877.50L1200.50,877.00L1201.01,876.50L1201.50,875.93L1201.93,875.50L1202.50,874.91L1202.92,874.50L1203.06,873.50L1203.50,873.00L1203.99,872.50L1204.01,871.50L1204.50,871.01L1204.94,870.50L1205.06,869.50L1205.50,868.99L1205.93,868.50L1205.85,867.50L1205.50,867.16L1205.09,867.50L1204.50,868.00L1204.00,868.50L1203.50,869.00L1203.00,869.50L1203.00,870.50L1203.00,871.50L1202.50,872.00L1202.00,872.50L1201.50,873.07L1201.07,873.50L1200.50,874.07L1199.99,874.50L1199.50,874.91L1199.09,874.50L1199.08,873.50L1199.50,873.02L1200.01,872.50L1200.50,872.00L1200.94,871.50L1201.07,870.50L1201.50,870.00L1202.00,869.50L1202.08,868.50L1202.50,868.02L1203.01,867.50L1203.50,867.00L1203.94,866.50L1204.07,865.50L1204.50,865.00L1204.93,864.50L1205.07,863.50L1205.50,863.01L1206.00,862.50L1206.50,861.99L1206.93,861.50L1207.07,860.50L1207.50,860.00L1207.93,859.50L1208.07,858.50L1208.50,858.01L1209.00,857.50L1209.50,856.99L1209.93,856.50L1210.07,855.50L1210.50,855.00L1210.93,854.50L1211.07,853.50L1211.50,853.00L1211.93,852.50L1212.07,851.50L1212.50,851.01L1213.00,850.50L1213.50,850.00L1214.00,849.50L1214.50,849.00L1215.01,848.50L1215.50,848.06L1216.50,847.92L1217.13,847.50L1217.50,847.11L1217.80,847.50L1217.50,847.89L1217.09,848.50L1217.50,848.86L1218.50,848.99L1219.50,849.02L1219.92,849.50L1219.93,850.50L1219.50,850.99L1219.00,851.50L1218.50,852.01L1218.07,852.50L1217.93,853.50L1217.50,853.99L1217.00,854.50L1216.50,855.00L1216.00,855.50L1215.50,856.01L1215.07,856.50L1215.00,857.50L1214.93,858.50L1214.50,858.99L1214.00,859.50L1213.50,860.01L1213.07,860.50L1212.93,861.50L1212.50,861.99L1212.00,862.50L1211.50,863.01L1211.07,863.50L1211.00,864.50L1211.07,865.50L1211.50,865.99L1212.00,866.50L1212.50,867.00L1213.01,867.50L1213.50,867.93L1214.50,868.07L1214.99,868.50L1215.50,869.00L1216.01,869.50L1216.50,869.93L1217.50,870.07L1218.00,870.50L1218.50,870.93L1219.50,871.08L1219.92,871.50L1220.00,872.50L1219.92,873.50L1219.50,873.92L1218.50,873.93L1218.00,873.50L1217.50,873.07L1216.50,872.93L1216.00,872.50L1215.50,872.07L1214.50,871.93L1214.01,871.50L1213.50,871.00L1212.99,870.50L1212.50,870.07L1211.50,869.93L1211.00,869.50L1210.50,869.07L1209.50,869.00L1208.50,869.00L1207.50,869.08L1207.07,869.50L1206.93,870.50L1206.50,870.99L1205.99,871.50L1205.50,872.00L1205.00,872.50L1204.92,873.50L1204.50,873.99L1204.00,874.50L1203.92,875.50L1203.50,875.98L1202.99,876.50L1202.50,877.00L1202.06,877.50L1201.93,878.50L1201.50,878.99L1201.00,879.50L1200.50,880.01L1200.07,880.50L1199.93,881.50L1199.50,881.99L1199.00,882.50L1198.50,883.01L1198.07,883.50L1197.93,884.50L1197.50,885.00L1197.07,885.50L1196.93,886.50L1196.50,886.99L1196.00,887.50L1195.50,888.01L1195.07,888.50L1194.92,889.50L1194.50,889.92L1193.50,890.08L1193.08,890.50L1193.00,891.50L1192.93,892.50L1192.50,893.00L1192.07,893.50L1191.93,894.50L1191.50,894.99L1191.00,895.50L1190.50,896.01L1190.07,896.50L1189.93,897.50L1189.50,897.99L1188.91,898.50L1188.50,898.85L1188.08,898.50L1187.50,898.00L1186.50,897.92L1185.50,898.00L1185.01,898.50L1184.91,899.50L1184.50,899.91L1183.50,899.85L1183.16,899.50L1183.50,899.09L1184.00,898.50L1184.09,897.50L1184.50,897.09L1185.50,897.06L1186.50,897.01L1187.50,896.90L1187.83,896.50L1187.50,896.17L1186.50,896.00L1186.08,895.50L1186.07,894.50L1186.50,894.01L1187.00,893.50L1187.50,892.99L1187.93,892.50L1188.01,891.50L1188.15,890.50L1188.50,890.16L1189.00,890.50L1189.50,890.84L1189.85,890.50L1189.99,889.50L1190.07,888.50L1190.50,888.00L1190.93,887.50L1191.07,886.50L1191.50,886.01L1192.00,885.50L1192.50,884.99L1192.93,884.50L1193.00,883.50L1193.00,882.50L1193.00,881.50L1192.93,880.50L1192.50,880.01L1191.99,879.50L1191.50,879.07L1190.50,878.93L1189.92,878.50L1189.50,878.10L1189.08,878.50L1188.93,879.50L1188.50,879.92L1187.50,879.92L1187.08,879.50L1187.08,878.50L1187.50,878.00L1188.50,877.91L1188.89,877.50L1188.50,877.15L1187.50,877.07L1186.50,876.94L1186.01,876.50L1185.50,876.00L1184.99,875.50L1184.50,875.07L1183.50,874.93L1183.00,874.50L1182.50,874.07L1181.50,873.93L1181.00,873.50L1180.50,873.07L1179.50,873.00L1178.50,873.07L1178.01,873.50L1177.50,874.00L1177.00,874.50L1176.50,875.01L1176.07,875.50L1175.93,876.50L1175.50,877.00L1175.07,877.50L1174.93,878.50L1174.50,878.99L1174.00,879.50L1173.50,880.01L1173.07,880.50L1172.93,881.50L1172.50,881.99L1172.00,882.50L1171.50,883.01L1171.07,883.50L1170.93,884.50L1170.50,885.00L1170.07,885.50L1169.93,886.50L1169.50,886.99L1169.00,887.50L1168.50,888.01L1168.07,888.50L1167.93,889.50L1167.50,889.99L1167.00,890.50L1166.50,891.01L1166.07,891.50L1165.93,892.50L1165.50,892.99L1165.00,893.50L1164.50,894.01L1164.07,894.50L1163.94,895.50L1163.50,896.09L1163.16,896.50L1163.50,896.85L1164.50,897.00L1164.99,897.50L1164.93,898.50L1164.50,898.99L1163.90,899.50L1163.50,899.84L1163.09,899.50L1162.84,898.50L1162.50,898.17L1162.17,898.50L1161.99,899.50L1161.50,899.92L1160.50,900.00L1159.50,899.99L1158.50,899.85L1158.16,899.50L1158.50,899.09L1158.93,898.50L1159.00,897.50L1159.07,896.50L1159.50,896.01L1160.00,895.50L1160.50,894.99L1160.93,894.50L1161.07,893.50L1161.50,893.01L1162.00,892.50L1162.50,891.99L1162.93,891.50L1163.07,890.50L1163.50,890.00L1163.93,889.50L1164.07,888.50L1164.50,888.01L1165.00,887.50L1165.50,886.99L1165.93,886.50L1166.07,885.50L1166.50,885.01L1167.00,884.50L1167.50,884.00L1168.00,883.50L1168.50,882.99L1168.93,882.50L1169.07,881.50L1169.50,881.00L1169.93,880.50L1170.07,879.50L1170.50,879.00L1170.93,878.50L1171.07,877.50L1171.50,877.01L1172.00,876.50L1172.50,875.99L1172.93,875.50L1173.07,874.50L1173.50,874.01L1174.00,873.50L1174.50,872.99L1174.93,872.50L1175.00,871.50L1175.00,870.50L1174.93,869.50L1174.50,869.01L1173.99,868.50L1173.50,868.07L1172.50,867.93L1172.00,867.50L1171.50,867.07L1170.50,867.00L1169.50,867.07L1169.01,867.50L1168.50,868.00L1168.00,868.50L1167.50,869.00L1167.00,869.50L1166.50,870.00L1166.00,870.50L1165.50,871.00L1165.00,871.50L1164.50,872.00L1164.00,872.50L1163.50,873.00L1163.00,873.50L1162.50,874.00L1162.00,874.50L1161.50,875.00L1161.00,875.50L1160.50,876.00L1160.00,876.50L1159.50,877.00L1159.00,877.50L1158.50,878.00L1158.00,878.50L1157.50,879.00L1157.00,879.50L1156.50,880.00L1156.00,880.50L1155.50,881.00L1155.00,881.50L1154.50,882.00L1154.00,882.50L1153.50,883.00L1153.00,883.50L1152.50,884.00L1151.99,884.50L1151.50,884.93L1150.50,885.07L1150.01,885.50L1149.50,886.00L1148.90,886.50L1148.50,886.84L1148.15,886.50L1148.01,885.50L1148.00,884.50L1148.07,883.50L1148.50,883.01L1149.00,882.50L1149.50,882.00L1150.00,881.50L1150.50,881.00L1151.01,880.50L1151.50,880.07L1152.50,879.93L1152.99,879.50L1153.50,879.00L1154.00,878.50L1154.50,878.00L1155.00,877.50L1155.50,877.00L1156.00,876.50L1156.50,876.00L1157.00,875.50L1157.50,875.00L1158.00,874.50L1158.50,874.00L1159.00,873.50L1159.50,873.00L1160.00,872.50L1160.50,872.00L1161.00,871.50L1161.50,871.00L1162.00,870.50L1162.50,870.00L1163.00,869.50L1163.50,869.00L1164.00,868.50L1164.50,867.99L1164.93,867.50L1165.07,866.50L1165.50,866.01L1166.00,865.50L1166.50,864.99L1166.93,864.50L1167.00,863.50L1167.00,862.50L1167.00,861.50L1166.93,860.50L1166.50,860.00L1166.07,859.50L1165.93,858.50L1165.50,858.00L1165.07,857.50L1165.00,856.50L1164.93,855.50L1164.50,855.00L1164.07,854.50L1163.93,853.50L1163.50,853.00L1163.07,852.50L1162.93,851.50L1162.50,851.00L1162.07,850.50L1161.93,849.50L1161.50,849.00L1161.07,848.50L1160.93,847.50L1160.50,847.00L1160.07,846.50L1159.93,845.50L1159.50,845.00L1159.07,844.50L1159.00,843.50L1158.93,842.50L1158.50,842.00L1158.07,841.50L1157.93,840.50L1157.50,840.00L1157.07,839.50L1156.93,838.50L1156.50,838.00L1156.07,837.50L1155.93,836.50L1155.50,836.00L1155.07,835.50L1154.93,834.50L1154.50,834.00L1154.07,833.50L1153.93,832.50L1153.50,832.00L1153.07,831.50L1153.00,830.50L1152.93,829.50L1152.50,828.91L1152.16,828.50ZM1219.10,841.50L1219.50,841.16L1219.85,841.50L1219.99,842.50L1220.00,843.50L1220.00,844.50L1219.92,845.50L1219.50,845.98L1218.50,846.01L1217.50,846.14L1217.00,846.50L1216.50,846.99L1216.14,846.50L1216.08,845.50L1216.50,845.02L1217.00,844.50L1217.50,843.99L1217.93,843.50L1218.07,842.50L1218.50,842.01L1219.10,841.50ZM1219.24,847.50L1219.50,847.23L1219.72,847.50L1219.50,847.77L1219.24,847.50ZM1201.12,874.50L1201.50,874.12L1201.89,874.50L1201.50,874.88L1201.12,874.50ZM1218.01,889.50L1218.50,889.07L1219.50,889.08L1219.92,889.50L1220.00,890.50L1220.00,891.50L1220.00,892.50L1220.00,893.50L1219.99,894.50L1219.93,895.50L1219.83,896.50L1219.50,896.83L1219.17,896.50L1219.00,895.50L1218.50,895.08L1217.50,895.07L1217.01,895.50L1216.50,896.00L1216.00,896.50L1215.50,897.01L1215.07,897.50L1214.93,898.50L1214.50,898.99L1213.99,899.50L1213.50,899.93L1212.50,899.99L1211.50,899.85L1211.16,899.50L1211.50,899.10L1212.00,898.50L1212.50,897.99L1212.93,897.50L1213.07,896.50L1213.50,896.01L1214.00,895.50L1214.50,895.00L1215.00,894.50L1215.50,893.99L1215.93,893.50L1216.07,892.50L1216.50,892.00L1216.93,891.50L1217.07,890.50L1217.50,890.01L1218.01,889.50ZM1165.20,896.50L1165.50,896.26L1165.74,896.50L1165.50,896.79L1165.20,896.50Z"/><defs><clipPath id="r10911"><path d="M1176.00,823.50L1176.50,823.07L1177.50,823.08L1177.92,823.50L1178.07,824.50L1178.50,824.99L1179.00,825.50L1179.50,826.01L1179.93,826.50L1180.07,827.50L1180.50,828.08L1180.85,828.50L1180.50,828.91L1179.99,829.50L1179.50,829.93L1178.50,830.00L1177.50,829.93L1176.92,829.50L1176.50,829.15L1176.09,829.50L1175.50,830.01L1175.07,830.50L1174.92,831.50L1174.50,831.92L1173.50,831.99L1172.50,831.94L1171.50,832.06L1170.92,832.50L1170.50,832.85L1170.09,832.50L1169.50,832.00L1169.00,831.50L1168.50,830.99L1168.07,830.50L1167.93,829.50L1167.50,829.00L1167.07,828.50L1166.93,827.50L1166.50,826.92L1166.15,826.50L1166.50,826.09L1167.01,825.50L1167.50,825.07L1168.50,825.00L1169.50,825.00L1170.50,825.00L1171.50,825.07L1172.00,825.50L1172.50,825.93L1173.50,825.99L1174.50,825.85L1174.84,825.50L1174.50,825.00L1174.16,824.50L1174.50,824.15L1175.50,823.94L1176.00,823.50ZM1172.50,830.28L1172.28,830.50L1172.50,830.78L1172.72,830.50L1172.50,830.28Z" fill-rule="evenodd"/></clipPath></defs><g clip-path="url(#r10911)"><path d="M1176.00,823.50L1176.50,823.07L1177.50,823.08L1177.92,823.50L1178.07,824.50L1178.50,824.99L1179.00,825.50L1179.50,826.01L1179.93,826.50L1180.07,827.50L1180.50,828.08L1180.85,828.50L1180.50,828.91L1179.99,829.50L1179.50,829.93L1178.50,830.00L1177.50,829.93L1176.92,829.50L1176.50,829.15L1176.09,829.50L1175.50,830.01L1175.07,830.50L1174.92,831.50L1174.50,831.92L1173.50,831.99L1172.50,831.94L1171.50,832.06L1170.92,832.50L1170.50,832.85L1170.09,832.50L1169.50,832.00L1169.00,831.50L1168.50,830.99L1168.07,830.50L1167.93,829.50L1167.50,829.00L1167.07,828.50L1166.93,827.50L1166.50,826.92L1166.15,826.50L1166.50,826.09L1167.01,825.50L1167.50,825.07L1168.50,825.00L1169.50,825.00L1170.50,825.00L1171.50,825.07L1172.00,825.50L1172.50,825.93L1173.50,825.99L1174.50,825.85L1174.84,825.50L1174.50,825.00L1174.16,824.50L1174.50,824.15L1175.50,823.94L1176.00,823.50ZM1172.50,830.28L1172.28,830.50L1172.50,830.78L1172.72,830.50L1172.50,830.28Z" fill="#728f89" stroke="#46514c" stroke-width=".30"/><rect x="1166" y="828.0" width="15" height="10" fill="#506c66"/><path d="M1166 828.00H1181" stroke="#a2b7a0" stroke-width=".22"/><path d="M1166 823.50H1181" stroke="#a2b7a0" stroke-opacity=".25" stroke-width=".07"/><path d="M1166 824.35H1181" stroke="#a2b7a0" stroke-opacity=".25" stroke-width=".07"/><path d="M1166 825.20H1181" stroke="#a2b7a0" stroke-opacity=".25" stroke-width=".07"/><path d="M1166 826.05H1181" stroke="#a2b7a0" stroke-opacity=".25" stroke-width=".07"/><path d="M1166 826.90H1181" stroke="#a2b7a0" stroke-opacity=".25" stroke-width=".07"/><path d="M1166 827.75H1181" stroke="#a2b7a0" stroke-opacity=".25" stroke-width=".07"/><path d="M1166 828.60H1181" stroke="#a2b7a0" stroke-opacity=".25" stroke-width=".07"/><path d="M1166 829.45H1181" stroke="#a2b7a0" stroke-opacity=".25" stroke-width=".07"/><path d="M1166 830.30H1181" stroke="#a2b7a0" stroke-opacity=".25" stroke-width=".07"/><path d="M1166 831.15H1181" stroke="#a2b7a0" stroke-opacity=".25" stroke-width=".07"/><path d="M1166 832.00H1181" stroke="#a2b7a0" stroke-opacity=".25" stroke-width=".07"/><path d="M1166 832.85H1181" stroke="#a2b7a0" stroke-opacity=".25" stroke-width=".07"/><rect x="1172.50" y="826.60" width="1.2" height=".75" rx=".08" fill="#c4dadd" stroke="#506c66" stroke-width=".15"/><path d="M1173.10 826.60v.75" stroke="#748995" stroke-width=".1"/><rect x="1167" y="824" width="2.6" height="1.7" rx=".12" fill="#d4d6c4" stroke="#68797a" stroke-width=".12"/><circle cx="1167.7" cy="824.8" r=".4" fill="#869490"/></g><defs><clipPath id="r11032"><path d="M1211.09,828.50L1211.50,828.15L1211.91,828.50L1212.50,829.00L1213.01,829.50L1213.50,829.93L1214.50,830.07L1215.00,830.50L1215.50,830.93L1216.50,831.08L1216.92,831.50L1217.08,832.50L1217.50,832.93L1218.50,833.15L1218.84,833.50L1218.50,833.91L1218.07,834.50L1217.93,835.50L1217.50,835.99L1217.00,836.50L1216.50,837.01L1216.07,837.50L1215.93,838.50L1215.50,839.00L1215.07,839.50L1214.93,840.50L1214.50,841.00L1214.07,841.50L1213.93,842.50L1213.50,842.99L1213.00,843.50L1212.50,844.00L1212.00,844.50L1211.50,845.00L1211.00,845.50L1210.50,846.01L1210.07,846.50L1209.99,847.50L1209.85,848.50L1209.50,848.84L1209.10,848.50L1208.50,848.00L1208.00,847.50L1207.50,847.00L1206.99,846.50L1206.50,846.07L1205.50,845.93L1205.00,845.50L1204.50,845.07L1203.50,844.93L1203.00,844.50L1202.50,844.06L1201.50,843.85L1201.16,843.50L1201.50,843.10L1202.00,842.50L1202.50,841.99L1202.93,841.50L1203.07,840.50L1203.50,840.00L1203.93,839.50L1204.07,838.50L1204.50,838.00L1204.94,837.50L1205.15,836.50L1205.50,836.15L1205.91,836.50L1206.50,836.93L1207.50,836.92L1207.93,836.50L1207.92,835.50L1207.50,835.07L1206.50,834.85L1206.16,834.50L1206.50,834.10L1207.00,833.50L1207.50,833.00L1208.00,832.50L1208.50,831.99L1208.93,831.50L1209.07,830.50L1209.50,830.01L1210.00,829.50L1210.50,829.00L1211.09,828.50ZM1209.50,837.08L1209.07,837.50L1209.08,838.50L1209.50,838.99L1210.50,838.93L1210.92,838.50L1210.92,837.50L1210.50,837.08L1209.50,837.08ZM1208.50,840.16L1208.17,840.50L1208.50,840.83L1209.50,840.83L1209.83,840.50L1209.50,840.10L1208.50,840.16Z" fill-rule="evenodd"/></clipPath></defs><g clip-path="url(#r11032)"><path d="M1211.09,828.50L1211.50,828.15L1211.91,828.50L1212.50,829.00L1213.01,829.50L1213.50,829.93L1214.50,830.07L1215.00,830.50L1215.50,830.93L1216.50,831.08L1216.92,831.50L1217.08,832.50L1217.50,832.93L1218.50,833.15L1218.84,833.50L1218.50,833.91L1218.07,834.50L1217.93,835.50L1217.50,835.99L1217.00,836.50L1216.50,837.01L1216.07,837.50L1215.93,838.50L1215.50,839.00L1215.07,839.50L1214.93,840.50L1214.50,841.00L1214.07,841.50L1213.93,842.50L1213.50,842.99L1213.00,843.50L1212.50,844.00L1212.00,844.50L1211.50,845.00L1211.00,845.50L1210.50,846.01L1210.07,846.50L1209.99,847.50L1209.85,848.50L1209.50,848.84L1209.10,848.50L1208.50,848.00L1208.00,847.50L1207.50,847.00L1206.99,846.50L1206.50,846.07L1205.50,845.93L1205.00,845.50L1204.50,845.07L1203.50,844.93L1203.00,844.50L1202.50,844.06L1201.50,843.85L1201.16,843.50L1201.50,843.10L1202.00,842.50L1202.50,841.99L1202.93,841.50L1203.07,840.50L1203.50,840.00L1203.93,839.50L1204.07,838.50L1204.50,838.00L1204.94,837.50L1205.15,836.50L1205.50,836.15L1205.91,836.50L1206.50,836.93L1207.50,836.92L1207.93,836.50L1207.92,835.50L1207.50,835.07L1206.50,834.85L1206.16,834.50L1206.50,834.10L1207.00,833.50L1207.50,833.00L1208.00,832.50L1208.50,831.99L1208.93,831.50L1209.07,830.50L1209.50,830.01L1210.00,829.50L1210.50,829.00L1211.09,828.50ZM1209.50,837.08L1209.07,837.50L1209.08,838.50L1209.50,838.99L1210.50,838.93L1210.92,838.50L1210.92,837.50L1210.50,837.08L1209.50,837.08ZM1208.50,840.16L1208.17,840.50L1208.50,840.83L1209.50,840.83L1209.83,840.50L1209.50,840.10L1208.50,840.16Z" fill="#747b87" stroke="#46514c" stroke-width=".30"/><rect x="1210.0" y="828" width="18" height="21" fill="#545b68"/><path d="M1210.00 828V849" stroke="#9ca8b3" stroke-width=".22"/><path d="M1201 828.50H1219" stroke="#9ca8b3" stroke-opacity=".25" stroke-width=".07"/><path d="M1201 829.35H1219" stroke="#9ca8b3" stroke-opacity=".25" stroke-width=".07"/><path d="M1201 830.20H1219" stroke="#9ca8b3" stroke-opacity=".25" stroke-width=".07"/><path d="M1201 831.05H1219" stroke="#9ca8b3" stroke-opacity=".25" stroke-width=".07"/><path d="M1201 831.90H1219" stroke="#9ca8b3" stroke-opacity=".25" stroke-width=".07"/><path d="M1201 832.75H1219" stroke="#9ca8b3" stroke-opacity=".25" stroke-width=".07"/><path d="M1201 833.60H1219" stroke="#9ca8b3" stroke-opacity=".25" stroke-width=".07"/><path d="M1201 834.45H1219" stroke="#9ca8b3" stroke-opacity=".25" stroke-width=".07"/><path d="M1201 835.30H1219" stroke="#9ca8b3" stroke-opacity=".25" stroke-width=".07"/><path d="M1201 836.15H1219" stroke="#9ca8b3" stroke-opacity=".25" stroke-width=".07"/><path d="M1201 837.00H1219" stroke="#9ca8b3" stroke-opacity=".25" stroke-width=".07"/><path d="M1201 837.85H1219" stroke="#9ca8b3" stroke-opacity=".25" stroke-width=".07"/><path d="M1201 838.70H1219" stroke="#9ca8b3" stroke-opacity=".25" stroke-width=".07"/><path d="M1201 839.55H1219" stroke="#9ca8b3" stroke-opacity=".25" stroke-width=".07"/><path d="M1201 840.40H1219" stroke="#9ca8b3" stroke-opacity=".25" stroke-width=".07"/><path d="M1201 841.25H1219" stroke="#9ca8b3" stroke-opacity=".25" stroke-width=".07"/><path d="M1201 842.10H1219" stroke="#9ca8b3" stroke-opacity=".25" stroke-width=".07"/><path d="M1201 842.95H1219" stroke="#9ca8b3" stroke-opacity=".25" stroke-width=".07"/><path d="M1201 843.80H1219" stroke="#9ca8b3" stroke-opacity=".25" stroke-width=".07"/><path d="M1201 844.65H1219" stroke="#9ca8b3" stroke-opacity=".25" stroke-width=".07"/><path d="M1201 845.50H1219" stroke="#9ca8b3" stroke-opacity=".25" stroke-width=".07"/><path d="M1201 846.35H1219" stroke="#9ca8b3" stroke-opacity=".25" stroke-width=".07"/><path d="M1201 847.20H1219" stroke="#9ca8b3" stroke-opacity=".25" stroke-width=".07"/><path d="M1201 848.05H1219" stroke="#9ca8b3" stroke-opacity=".25" stroke-width=".07"/><path d="M1201 848.90H1219" stroke="#9ca8b3" stroke-opacity=".25" stroke-width=".07"/><rect x="1209.00" y="837.10" width="1.2" height=".75" rx=".08" fill="#c4dadd" stroke="#545b68" stroke-width=".15"/><path d="M1209.60 837.10v.75" stroke="#748995" stroke-width=".1"/><rect x="1202" y="829" width="2.6" height="1.7" rx=".12" fill="#d4d6c4" stroke="#68797a" stroke-width=".12"/><circle cx="1202.7" cy="829.8" r=".4" fill="#869490"/></g><defs><clipPath id="r11061"><path d="M1158.01,829.50L1158.50,829.07L1159.50,829.00L1160.50,829.00L1161.50,829.00L1162.50,829.08L1162.92,829.50L1163.07,830.50L1163.50,831.00L1163.93,831.50L1163.93,832.50L1163.50,832.99L1162.99,833.50L1162.50,833.93L1161.50,834.07L1161.00,834.50L1160.50,834.93L1159.50,835.00L1158.50,834.92L1158.08,834.50L1158.00,833.50L1158.00,832.50L1157.93,831.50L1157.50,830.92L1157.15,830.50L1157.50,830.09L1158.01,829.50Z" fill-rule="evenodd"/></clipPath></defs><g clip-path="url(#r11061)"><path d="M1158.01,829.50L1158.50,829.07L1159.50,829.00L1160.50,829.00L1161.50,829.00L1162.50,829.08L1162.92,829.50L1163.07,830.50L1163.50,831.00L1163.93,831.50L1163.93,832.50L1163.50,832.99L1162.99,833.50L1162.50,833.93L1161.50,834.07L1161.00,834.50L1160.50,834.93L1159.50,835.00L1158.50,834.92L1158.08,834.50L1158.00,833.50L1158.00,832.50L1157.93,831.50L1157.50,830.92L1157.15,830.50L1157.50,830.09L1158.01,829.50Z" fill="#728f89" stroke="#46514c" stroke-width=".30"/><rect x="1157" y="832.0" width="7" height="6" fill="#506c66"/><path d="M1157 832.00H1164" stroke="#a2b7a0" stroke-width=".22"/><path d="M1157 829.50H1164" stroke="#a2b7a0" stroke-opacity=".25" stroke-width=".07"/><path d="M1157 830.35H1164" stroke="#a2b7a0" stroke-opacity=".25" stroke-width=".07"/><path d="M1157 831.20H1164" stroke="#a2b7a0" stroke-opacity=".25" stroke-width=".07"/><path d="M1157 832.05H1164" stroke="#a2b7a0" stroke-opacity=".25" stroke-width=".07"/><path d="M1157 832.90H1164" stroke="#a2b7a0" stroke-opacity=".25" stroke-width=".07"/><path d="M1157 833.75H1164" stroke="#a2b7a0" stroke-opacity=".25" stroke-width=".07"/><path d="M1157 834.60H1164" stroke="#a2b7a0" stroke-opacity=".25" stroke-width=".07"/><rect x="1159.50" y="830.60" width="1.2" height=".75" rx=".08" fill="#c4dadd" stroke="#506c66" stroke-width=".15"/><path d="M1160.10 830.60v.75" stroke="#748995" stroke-width=".1"/></g><defs><clipPath id="r11077"><path d="M1193.01,830.50L1193.50,830.07L1194.50,830.07L1194.99,830.50L1195.50,831.00L1196.00,831.50L1196.50,832.00L1197.00,832.50L1197.50,833.01L1197.93,833.50L1197.93,834.50L1197.50,834.99L1196.99,835.50L1196.50,835.93L1195.50,835.92L1195.08,835.50L1194.93,834.50L1194.50,834.01L1194.00,833.50L1193.50,833.00L1193.00,832.50L1192.50,831.91L1192.15,831.50L1192.50,831.09L1193.01,830.50Z" fill-rule="evenodd"/></clipPath></defs><g clip-path="url(#r11077)"><path d="M1193.01,830.50L1193.50,830.07L1194.50,830.07L1194.99,830.50L1195.50,831.00L1196.00,831.50L1196.50,832.00L1197.00,832.50L1197.50,833.01L1197.93,833.50L1197.93,834.50L1197.50,834.99L1196.99,835.50L1196.50,835.93L1195.50,835.92L1195.08,835.50L1194.93,834.50L1194.50,834.01L1194.00,833.50L1193.50,833.00L1193.00,832.50L1192.50,831.91L1192.15,831.50L1192.50,831.09L1193.01,830.50Z" fill="#747b87" stroke="#46514c" stroke-width=".30"/><rect x="1192" y="833.0" width="6" height="6" fill="#545b68"/><path d="M1192 833.00H1198" stroke="#9ca8b3" stroke-width=".22"/><path d="M1192 830.50H1198" stroke="#9ca8b3" stroke-opacity=".25" stroke-width=".07"/><path d="M1192 831.35H1198" stroke="#9ca8b3" stroke-opacity=".25" stroke-width=".07"/><path d="M1192 832.20H1198" stroke="#9ca8b3" stroke-opacity=".25" stroke-width=".07"/><path d="M1192 833.05H1198" stroke="#9ca8b3" stroke-opacity=".25" stroke-width=".07"/><path d="M1192 833.90H1198" stroke="#9ca8b3" stroke-opacity=".25" stroke-width=".07"/><path d="M1192 834.75H1198" stroke="#9ca8b3" stroke-opacity=".25" stroke-width=".07"/><path d="M1192 835.60H1198" stroke="#9ca8b3" stroke-opacity=".25" stroke-width=".07"/><rect x="1194.00" y="831.60" width="1.2" height=".75" rx=".08" fill="#c4dadd" stroke="#545b68" stroke-width=".15"/><path d="M1194.60 831.60v.75" stroke="#748995" stroke-width=".1"/></g><defs><clipPath id="r11175"><path d="M1190.10,834.50L1190.50,834.14L1191.50,834.01L1192.50,834.07L1192.99,834.50L1193.50,835.00L1194.00,835.50L1194.50,836.01L1194.93,836.50L1194.93,837.50L1194.50,837.99L1193.99,838.50L1193.50,838.93L1192.50,839.07L1192.01,839.50L1191.50,840.00L1191.00,840.50L1190.50,841.00L1190.00,841.50L1189.50,842.00L1188.99,842.50L1188.50,842.93L1187.50,842.93L1187.01,842.50L1186.50,842.00L1186.00,841.50L1185.50,841.00L1185.00,840.50L1184.50,839.99L1184.07,839.50L1184.08,838.50L1184.50,838.08L1185.50,837.93L1186.00,837.50L1186.50,837.07L1187.50,836.93L1187.99,836.50L1188.50,836.00L1189.08,835.50L1189.50,835.08L1190.13,835.50L1190.50,835.80L1190.80,835.50L1190.50,835.11L1190.10,834.50ZM1191.50,836.22L1191.22,836.50L1191.50,836.74L1191.74,836.50L1191.50,836.22Z" fill-rule="evenodd"/></clipPath></defs><g clip-path="url(#r11175)"><path d="M1190.10,834.50L1190.50,834.14L1191.50,834.01L1192.50,834.07L1192.99,834.50L1193.50,835.00L1194.00,835.50L1194.50,836.01L1194.93,836.50L1194.93,837.50L1194.50,837.99L1193.99,838.50L1193.50,838.93L1192.50,839.07L1192.01,839.50L1191.50,840.00L1191.00,840.50L1190.50,841.00L1190.00,841.50L1189.50,842.00L1188.99,842.50L1188.50,842.93L1187.50,842.93L1187.01,842.50L1186.50,842.00L1186.00,841.50L1185.50,841.00L1185.00,840.50L1184.50,839.99L1184.07,839.50L1184.08,838.50L1184.50,838.08L1185.50,837.93L1186.00,837.50L1186.50,837.07L1187.50,836.93L1187.99,836.50L1188.50,836.00L1189.08,835.50L1189.50,835.08L1190.13,835.50L1190.50,835.80L1190.80,835.50L1190.50,835.11L1190.10,834.50ZM1191.50,836.22L1191.22,836.50L1191.50,836.74L1191.74,836.50L1191.50,836.22Z" fill="#647c93" stroke="#46514c" stroke-width=".30"/><rect x="1184" y="838.5" width="11" height="9" fill="#445971"/><path d="M1184 838.50H1195" stroke="#8da5b5" stroke-width=".22"/><path d="M1184 834.50H1195" stroke="#8da5b5" stroke-opacity=".25" stroke-width=".07"/><path d="M1184 835.35H1195" stroke="#8da5b5" stroke-opacity=".25" stroke-width=".07"/><path d="M1184 836.20H1195" stroke="#8da5b5" stroke-opacity=".25" stroke-width=".07"/><path d="M1184 837.05H1195" stroke="#8da5b5" stroke-opacity=".25" stroke-width=".07"/><path d="M1184 837.90H1195" stroke="#8da5b5" stroke-opacity=".25" stroke-width=".07"/><path d="M1184 838.75H1195" stroke="#8da5b5" stroke-opacity=".25" stroke-width=".07"/><path d="M1184 839.60H1195" stroke="#8da5b5" stroke-opacity=".25" stroke-width=".07"/><path d="M1184 840.45H1195" stroke="#8da5b5" stroke-opacity=".25" stroke-width=".07"/><path d="M1184 841.30H1195" stroke="#8da5b5" stroke-opacity=".25" stroke-width=".07"/><path d="M1184 842.15H1195" stroke="#8da5b5" stroke-opacity=".25" stroke-width=".07"/><rect x="1188.50" y="837.10" width="1.2" height=".75" rx=".08" fill="#c4dadd" stroke="#445971" stroke-width=".15"/><path d="M1189.10 837.10v.75" stroke="#748995" stroke-width=".1"/><rect x="1185" y="835" width="2.6" height="1.7" rx=".12" fill="#d4d6c4" stroke="#68797a" stroke-width=".12"/><circle cx="1185.7" cy="835.8" r=".4" fill="#869490"/></g><defs><clipPath id="r11556"><path d="M1198.15,848.50L1198.50,848.16L1198.90,848.50L1199.50,849.00L1200.01,849.50L1200.50,849.93L1201.50,850.00L1202.50,850.00L1203.50,850.08L1203.92,850.50L1204.08,851.50L1204.50,851.92L1205.50,852.08L1205.92,852.50L1206.00,853.50L1205.93,854.50L1205.50,854.99L1205.00,855.50L1204.50,856.01L1204.07,856.50L1203.93,857.50L1203.50,858.00L1203.07,858.50L1202.93,859.50L1202.50,859.99L1202.00,860.50L1201.50,861.01L1201.07,861.50L1200.93,862.50L1200.50,862.99L1200.00,863.50L1199.50,864.01L1199.07,864.50L1198.93,865.50L1198.50,866.00L1198.06,866.50L1197.85,867.50L1197.50,867.84L1197.01,867.50L1196.50,867.15L1195.99,867.50L1195.50,867.84L1195.15,867.50L1194.93,866.50L1194.50,866.08L1193.50,865.93L1193.00,865.50L1192.50,865.07L1191.50,864.93L1191.01,864.50L1190.50,864.00L1190.00,863.50L1189.50,862.91L1189.15,862.50L1189.50,862.09L1190.00,861.50L1190.50,860.99L1190.93,860.50L1191.07,859.50L1191.50,859.00L1191.93,858.50L1192.07,857.50L1192.50,857.01L1193.01,856.50L1193.50,856.07L1194.50,855.92L1194.93,855.50L1195.07,854.50L1195.01,853.50L1194.50,852.99L1194.08,852.50L1194.15,851.50L1194.50,851.16L1194.91,851.50L1195.50,852.01L1195.92,852.50L1195.93,853.50L1195.99,854.50L1196.50,854.99L1197.10,855.50L1197.50,855.84L1197.85,855.50L1198.07,854.50L1198.50,854.08L1199.50,853.92L1199.92,853.50L1199.92,852.50L1199.50,852.08L1198.50,851.93L1198.00,851.50L1197.50,851.00L1196.50,850.84L1196.17,850.50L1196.50,850.17L1197.50,849.99L1197.93,849.50L1198.15,848.50Z" fill-rule="evenodd"/></clipPath></defs><g clip-path="url(#r11556)"><path d="M1198.15,848.50L1198.50,848.16L1198.90,848.50L1199.50,849.00L1200.01,849.50L1200.50,849.93L1201.50,850.00L1202.50,850.00L1203.50,850.08L1203.92,850.50L1204.08,851.50L1204.50,851.92L1205.50,852.08L1205.92,852.50L1206.00,853.50L1205.93,854.50L1205.50,854.99L1205.00,855.50L1204.50,856.01L1204.07,856.50L1203.93,857.50L1203.50,858.00L1203.07,858.50L1202.93,859.50L1202.50,859.99L1202.00,860.50L1201.50,861.01L1201.07,861.50L1200.93,862.50L1200.50,862.99L1200.00,863.50L1199.50,864.01L1199.07,864.50L1198.93,865.50L1198.50,866.00L1198.06,866.50L1197.85,867.50L1197.50,867.84L1197.01,867.50L1196.50,867.15L1195.99,867.50L1195.50,867.84L1195.15,867.50L1194.93,866.50L1194.50,866.08L1193.50,865.93L1193.00,865.50L1192.50,865.07L1191.50,864.93L1191.01,864.50L1190.50,864.00L1190.00,863.50L1189.50,862.91L1189.15,862.50L1189.50,862.09L1190.00,861.50L1190.50,860.99L1190.93,860.50L1191.07,859.50L1191.50,859.00L1191.93,858.50L1192.07,857.50L1192.50,857.01L1193.01,856.50L1193.50,856.07L1194.50,855.92L1194.93,855.50L1195.07,854.50L1195.01,853.50L1194.50,852.99L1194.08,852.50L1194.15,851.50L1194.50,851.16L1194.91,851.50L1195.50,852.01L1195.92,852.50L1195.93,853.50L1195.99,854.50L1196.50,854.99L1197.10,855.50L1197.50,855.84L1197.85,855.50L1198.07,854.50L1198.50,854.08L1199.50,853.92L1199.92,853.50L1199.92,852.50L1199.50,852.08L1198.50,851.93L1198.00,851.50L1197.50,851.00L1196.50,850.84L1196.17,850.50L1196.50,850.17L1197.50,849.99L1197.93,849.50L1198.15,848.50Z" fill="#728f89" stroke="#46514c" stroke-width=".30"/><rect x="1197.5" y="848" width="17" height="20" fill="#506c66"/><path d="M1197.50 848V868" stroke="#a2b7a0" stroke-width=".22"/><path d="M1189 848.50H1206" stroke="#a2b7a0" stroke-opacity=".25" stroke-width=".07"/><path d="M1189 849.35H1206" stroke="#a2b7a0" stroke-opacity=".25" stroke-width=".07"/><path d="M1189 850.20H1206" stroke="#a2b7a0" stroke-opacity=".25" stroke-width=".07"/><path d="M1189 851.05H1206" stroke="#a2b7a0" stroke-opacity=".25" stroke-width=".07"/><path d="M1189 851.90H1206" stroke="#a2b7a0" stroke-opacity=".25" stroke-width=".07"/><path d="M1189 852.75H1206" stroke="#a2b7a0" stroke-opacity=".25" stroke-width=".07"/><path d="M1189 853.60H1206" stroke="#a2b7a0" stroke-opacity=".25" stroke-width=".07"/><path d="M1189 854.45H1206" stroke="#a2b7a0" stroke-opacity=".25" stroke-width=".07"/><path d="M1189 855.30H1206" stroke="#a2b7a0" stroke-opacity=".25" stroke-width=".07"/><path d="M1189 856.15H1206" stroke="#a2b7a0" stroke-opacity=".25" stroke-width=".07"/><path d="M1189 857.00H1206" stroke="#a2b7a0" stroke-opacity=".25" stroke-width=".07"/><path d="M1189 857.85H1206" stroke="#a2b7a0" stroke-opacity=".25" stroke-width=".07"/><path d="M1189 858.70H1206" stroke="#a2b7a0" stroke-opacity=".25" stroke-width=".07"/><path d="M1189 859.55H1206" stroke="#a2b7a0" stroke-opacity=".25" stroke-width=".07"/><path d="M1189 860.40H1206" stroke="#a2b7a0" stroke-opacity=".25" stroke-width=".07"/><path d="M1189 861.25H1206" stroke="#a2b7a0" stroke-opacity=".25" stroke-width=".07"/><path d="M1189 862.10H1206" stroke="#a2b7a0" stroke-opacity=".25" stroke-width=".07"/><path d="M1189 862.95H1206" stroke="#a2b7a0" stroke-opacity=".25" stroke-width=".07"/><path d="M1189 863.80H1206" stroke="#a2b7a0" stroke-opacity=".25" stroke-width=".07"/><path d="M1189 864.65H1206" stroke="#a2b7a0" stroke-opacity=".25" stroke-width=".07"/><path d="M1189 865.50H1206" stroke="#a2b7a0" stroke-opacity=".25" stroke-width=".07"/><path d="M1189 866.35H1206" stroke="#a2b7a0" stroke-opacity=".25" stroke-width=".07"/><path d="M1189 867.20H1206" stroke="#a2b7a0" stroke-opacity=".25" stroke-width=".07"/><rect x="1196.50" y="856.60" width="1.2" height=".75" rx=".08" fill="#c4dadd" stroke="#506c66" stroke-width=".15"/><path d="M1197.10 856.60v.75" stroke="#748995" stroke-width=".1"/><rect x="1190" y="849" width="2.6" height="1.7" rx=".12" fill="#d4d6c4" stroke="#68797a" stroke-width=".12"/><circle cx="1190.7" cy="849.8" r=".4" fill="#869490"/></g><defs><clipPath id="r11938"><path d="M1186.01,862.50L1186.50,862.08L1187.50,862.15L1187.84,862.50L1187.50,862.91L1187.06,863.50L1186.93,864.50L1186.50,864.99L1185.91,865.50L1185.50,865.85L1185.09,865.50L1184.50,864.99L1184.07,864.50L1184.08,863.50L1184.50,863.08L1185.50,862.93L1186.01,862.50Z" fill-rule="evenodd"/></clipPath></defs><g clip-path="url(#r11938)"><path d="M1186.01,862.50L1186.50,862.08L1187.50,862.15L1187.84,862.50L1187.50,862.91L1187.06,863.50L1186.93,864.50L1186.50,864.99L1185.91,865.50L1185.50,865.85L1185.09,865.50L1184.50,864.99L1184.07,864.50L1184.08,863.50L1184.50,863.08L1185.50,862.93L1186.01,862.50Z" fill="#aa755e" stroke="#46514c" stroke-width=".30"/><rect x="1184" y="864.0" width="4" height="4" fill="#825746"/><path d="M1184 864.00H1188" stroke="#c99775" stroke-width=".22"/><path d="M1184 862.50H1188" stroke="#c99775" stroke-opacity=".25" stroke-width=".07"/><path d="M1184 863.35H1188" stroke="#c99775" stroke-opacity=".25" stroke-width=".07"/><path d="M1184 864.20H1188" stroke="#c99775" stroke-opacity=".25" stroke-width=".07"/><path d="M1184 865.05H1188" stroke="#c99775" stroke-opacity=".25" stroke-width=".07"/><path d="M1184 865.90H1188" stroke="#c99775" stroke-opacity=".25" stroke-width=".07"/></g><defs><clipPath id="r12610"><path d="M1150.01,888.50L1150.50,888.07L1151.50,888.00L1152.50,888.08L1152.93,888.50L1153.15,889.50L1153.50,889.84L1154.00,889.50L1154.50,889.16L1154.85,889.50L1155.07,890.50L1155.50,890.92L1156.50,891.00L1157.50,891.08L1157.92,891.50L1157.93,892.50L1157.50,893.00L1157.07,893.50L1156.92,894.50L1156.50,894.92L1155.50,894.93L1155.01,894.50L1154.50,894.00L1154.00,893.50L1153.50,893.00L1153.00,892.50L1152.50,892.00L1151.99,891.50L1151.50,891.07L1150.50,890.93L1150.01,890.50L1149.50,889.91L1149.15,889.50L1149.50,889.09L1150.01,888.50Z" fill-rule="evenodd"/></clipPath></defs><g clip-path="url(#r12610)"><path d="M1150.01,888.50L1150.50,888.07L1151.50,888.00L1152.50,888.08L1152.93,888.50L1153.15,889.50L1153.50,889.84L1154.00,889.50L1154.50,889.16L1154.85,889.50L1155.07,890.50L1155.50,890.92L1156.50,891.00L1157.50,891.08L1157.92,891.50L1157.93,892.50L1157.50,893.00L1157.07,893.50L1156.92,894.50L1156.50,894.92L1155.50,894.93L1155.01,894.50L1154.50,894.00L1154.00,893.50L1153.50,893.00L1153.00,892.50L1152.50,892.00L1151.99,891.50L1151.50,891.07L1150.50,890.93L1150.01,890.50L1149.50,889.91L1149.15,889.50L1149.50,889.09L1150.01,888.50Z" fill="#647c93" stroke="#46514c" stroke-width=".30"/><rect x="1149" y="891.5" width="9" height="7" fill="#445971"/><path d="M1149 891.50H1158" stroke="#8da5b5" stroke-width=".22"/><path d="M1149 888.50H1158" stroke="#8da5b5" stroke-opacity=".25" stroke-width=".07"/><path d="M1149 889.35H1158" stroke="#8da5b5" stroke-opacity=".25" stroke-width=".07"/><path d="M1149 890.20H1158" stroke="#8da5b5" stroke-opacity=".25" stroke-width=".07"/><path d="M1149 891.05H1158" stroke="#8da5b5" stroke-opacity=".25" stroke-width=".07"/><path d="M1149 891.90H1158" stroke="#8da5b5" stroke-opacity=".25" stroke-width=".07"/><path d="M1149 892.75H1158" stroke="#8da5b5" stroke-opacity=".25" stroke-width=".07"/><path d="M1149 893.60H1158" stroke="#8da5b5" stroke-opacity=".25" stroke-width=".07"/><path d="M1149 894.45H1158" stroke="#8da5b5" stroke-opacity=".25" stroke-width=".07"/><rect x="1152.50" y="890.10" width="1.2" height=".75" rx=".08" fill="#c4dadd" stroke="#445971" stroke-width=".15"/><path d="M1153.10 890.10v.75" stroke="#748995" stroke-width=".1"/></g></svg>