<svg xmlns="http://www.w3.org/2000/svg" width="1024" height="1024" viewBox="1152 1472 64 64"><rect x="1152" y="1472" width="64" height="64" fill="#ece8db"/><path fill="#d6dfa7" fill-rule="evenodd" d="M1148.08,1468.50L1148.50,1468.08L1149.50,1468.00L1150.50,1468.00L1151.50,1468.00L1152.50,1468.00L1153.50,1468.00L1154.50,1468.00L1155.50,1468.00L1156.50,1468.00L1157.50,1468.00L1158.50,1468.00L1159.50,1468.00L1160.50,1468.00L1161.50,1468.00L1162.50,1468.00L1163.50,1468.00L1164.50,1468.00L1165.50,1468.00L1166.50,1468.00L1167.50,1468.00L1168.50,1468.00L1169.50,1468.00L1170.50,1468.00L1171.50,1468.00L1172.50,1468.00L1173.50,1468.00L1174.50,1468.00L1175.50,1468.00L1176.50,1468.00L1177.50,1468.00L1178.50,1468.00L1179.50,1468.00L1180.50,1468.00L1181.50,1468.00L1182.50,1468.00L1183.50,1468.00L1184.50,1468.00L1185.50,1468.00L1186.50,1468.00L1187.50,1468.00L1188.50,1468.00L1189.50,1468.00L1190.50,1468.00L1191.50,1468.00L1192.50,1468.00L1193.50,1468.00L1194.50,1468.00L1195.50,1468.00L1196.50,1468.00L1197.50,1468.00L1198.50,1468.00L1199.50,1468.00L1200.50,1468.00L1201.50,1468.00L1202.50,1468.00L1203.50,1468.00L1204.50,1468.00L1205.50,1468.00L1206.50,1468.00L1207.50,1468.00L1208.50,1468.00L1209.50,1468.00L1210.50,1468.00L1211.50,1468.00L1212.50,1468.00L1213.50,1468.00L1214.50,1468.00L1215.50,1468.00L1216.50,1468.00L1217.50,1468.00L1218.50,1468.00L1219.50,1468.08L1219.92,1468.50L1220.00,1469.50L1220.00,1470.50L1220.00,1471.50L1220.00,1472.50L1219.92,1473.50L1219.50,1473.92L1218.50,1474.00L1217.50,1474.00L1216.50,1474.00L1215.50,1474.00L1214.50,1474.00L1213.50,1474.00L1212.50,1474.00L1211.50,1474.00L1210.50,1474.00L1209.50,1474.08L1209.08,1474.50L1208.92,1475.50L1208.50,1475.92L1207.50,1476.00L1206.50,1476.00L1205.50,1476.00L1204.50,1476.00L1203.50,1476.00L1202.50,1476.00L1201.50,1476.08L1201.08,1476.50L1201.00,1477.50L1201.00,1478.50L1201.00,1479.50L1201.00,1480.50L1201.00,1481.50L1201.00,1482.50L1201.00,1483.50L1201.00,1484.50L1201.00,1485.50L1201.00,1486.50L1201.00,1487.50L1201.00,1488.50L1201.00,1489.50L1201.00,1490.50L1201.00,1491.50L1201.00,1492.50L1201.00,1493.50L1201.00,1494.50L1201.00,1495.50L1201.00,1496.50L1201.00,1497.50L1201.00,1498.50L1201.00,1499.50L1201.00,1500.50L1201.00,1501.50L1201.00,1502.50L1201.00,1503.50L1201.00,1504.50L1201.00,1505.50L1201.00,1506.50L1201.00,1507.50L1201.00,1508.50L1201.00,1509.50L1201.00,1510.50L1201.00,1511.50L1201.00,1512.50L1201.00,1513.50L1201.00,1514.50L1200.92,1515.50L1200.50,1515.92L1199.50,1516.00L1198.50,1516.00L1197.50,1516.00L1196.50,1516.00L1195.50,1516.00L1194.50,1516.00L1193.50,1516.00L1192.50,1516.00L1191.50,1516.08L1191.08,1516.50L1190.92,1517.50L1190.50,1517.92L1189.50,1518.00L1188.50,1518.00L1187.50,1518.00L1186.50,1518.00L1185.50,1518.00L1184.50,1518.00L1183.50,1518.00L1182.50,1518.00L1181.50,1518.00L1180.50,1518.00L1179.50,1518.00L1178.50,1518.00L1177.50,1518.00L1176.50,1518.00L1175.50,1518.00L1174.50,1518.00L1173.50,1518.00L1172.50,1518.00L1171.50,1518.00L1170.50,1518.00L1169.50,1518.00L1168.50,1518.00L1167.50,1518.00L1166.50,1518.00L1165.50,1518.08L1165.08,1518.50L1165.00,1519.50L1165.00,1520.50L1165.00,1521.50L1165.00,1522.50L1165.00,1523.50L1165.00,1524.50L1165.00,1525.50L1165.00,1526.50L1165.00,1527.50L1165.00,1528.50L1165.07,1529.50L1165.50,1529.99L1166.01,1530.50L1166.50,1531.01L1167.50,1531.08L1168.50,1531.08L1169.50,1531.07L1170.50,1530.94L1171.00,1530.50L1171.50,1530.07L1172.50,1530.00L1173.50,1530.00L1174.50,1530.08L1174.92,1530.50L1175.00,1531.50L1174.92,1532.50L1174.50,1532.92L1173.50,1533.00L1172.50,1533.00L1171.50,1533.00L1170.50,1532.93L1170.00,1532.50L1169.50,1531.99L1168.50,1531.92L1167.50,1531.92L1166.50,1531.93L1165.50,1531.99L1164.50,1532.00L1163.50,1532.00L1162.50,1532.00L1161.50,1532.00L1160.50,1532.00L1159.50,1532.00L1158.50,1532.07L1158.00,1532.50L1157.50,1532.93L1156.50,1533.00L1155.50,1532.93L1154.92,1532.50L1154.50,1532.15L1154.08,1532.50L1153.50,1532.93L1152.50,1533.00L1151.50,1533.00L1150.50,1533.00L1149.50,1533.00L1148.50,1532.92L1148.08,1532.50L1148.00,1531.50L1148.00,1530.50L1148.00,1529.50L1148.00,1528.50L1148.00,1527.50L1148.00,1526.50L1148.00,1525.50L1148.00,1524.50L1148.00,1523.50L1148.00,1522.50L1148.00,1521.50L1148.00,1520.50L1148.00,1519.50L1148.00,1518.50L1148.00,1517.50L1148.00,1516.50L1148.00,1515.50L1148.00,1514.50L1148.00,1513.50L1148.00,1512.50L1148.00,1511.50L1148.00,1510.50L1148.00,1509.50L1148.00,1508.50L1148.00,1507.50L1148.00,1506.50L1148.00,1505.50L1148.00,1504.50L1148.00,1503.50L1148.00,1502.50L1148.00,1501.50L1148.00,1500.50L1148.00,1499.50L1148.00,1498.50L1148.00,1497.50L1148.00,1496.50L1148.00,1495.50L1148.00,1494.50L1148.00,1493.50L1148.00,1492.50L1148.00,1491.50L1148.00,1490.50L1148.00,1489.50L1148.00,1488.50L1148.00,1487.50L1148.00,1486.50L1148.00,1485.50L1148.00,1484.50L1148.00,1483.50L1148.00,1482.50L1148.00,1481.50L1148.00,1480.50L1148.00,1479.50L1148.00,1478.50L1148.00,1477.50L1148.00,1476.50L1148.00,1475.50L1148.00,1474.50L1148.00,1473.50L1148.00,1472.50L1148.00,1471.50L1148.00,1470.50L1148.00,1469.50L1148.08,1468.50Z"/><path fill="#7fbabf" fill-rule="evenodd" d="M1157.26,1468.50L1157.50,1468.26L1157.78,1468.50L1157.50,1468.79L1157.26,1468.50ZM1158.09,1469.50L1158.50,1469.10L1158.91,1469.50L1159.50,1470.02L1159.92,1470.50L1159.91,1471.50L1159.50,1471.90L1159.09,1471.50L1158.50,1470.98L1158.08,1470.50L1158.09,1469.50ZM1160.20,1472.50L1160.50,1472.19L1160.81,1472.50L1160.50,1472.81L1160.20,1472.50ZM1161.01,1473.50L1161.50,1473.01L1162.50,1473.08L1162.92,1473.50L1163.06,1474.50L1163.50,1475.00L1163.99,1475.50L1164.50,1476.01L1164.93,1476.50L1165.06,1477.50L1165.50,1478.01L1165.92,1478.50L1165.91,1479.50L1165.50,1479.90L1165.09,1479.50L1164.50,1478.99L1164.01,1478.50L1163.50,1477.99L1163.07,1477.50L1162.94,1476.50L1162.50,1476.00L1162.01,1475.50L1161.50,1474.99L1161.07,1474.50L1161.01,1473.50ZM1166.20,1480.50L1166.50,1480.19L1166.80,1480.50L1166.50,1480.81L1166.20,1480.50ZM1167.10,1481.50L1167.50,1481.11L1167.85,1481.50L1167.90,1482.50L1167.50,1482.89L1167.15,1482.50L1167.10,1481.50ZM1168.20,1483.50L1168.50,1483.19L1168.80,1483.50L1168.50,1483.81L1168.20,1483.50ZM1169.09,1484.50L1169.50,1484.10L1169.91,1484.50L1170.50,1485.02L1170.92,1485.50L1170.91,1486.50L1170.50,1486.91L1170.09,1486.50L1169.50,1485.98L1169.08,1485.50L1169.09,1484.50ZM1171.10,1487.50L1171.50,1487.10L1171.85,1487.50L1171.90,1488.50L1171.50,1488.89L1171.15,1488.50L1171.10,1487.50ZM1172.20,1489.50L1172.50,1489.19L1172.80,1489.50L1172.50,1489.81L1172.20,1489.50ZM1173.09,1490.50L1173.50,1490.10L1173.91,1490.50L1174.50,1491.01L1174.99,1491.50L1175.50,1492.02L1175.92,1492.50L1175.91,1493.50L1175.50,1493.90L1175.09,1493.50L1174.50,1492.99L1174.01,1492.50L1173.50,1491.98L1173.08,1491.50L1173.09,1490.50ZM1176.20,1494.50L1176.50,1494.19L1176.80,1494.50L1176.50,1494.81L1176.20,1494.50ZM1177.09,1495.50L1177.50,1495.10L1177.92,1495.50L1178.50,1495.94L1179.50,1496.07L1179.99,1496.50L1180.50,1497.01L1180.99,1497.50L1181.50,1498.01L1181.93,1498.50L1182.06,1499.50L1182.50,1500.00L1182.99,1500.50L1183.50,1501.01L1184.00,1501.50L1184.50,1502.00L1185.50,1502.08L1185.98,1502.50L1186.50,1503.09L1186.90,1503.50L1186.50,1503.91L1185.50,1503.92L1185.01,1503.50L1184.50,1503.00L1183.50,1502.92L1183.02,1502.50L1182.50,1501.99L1182.01,1501.50L1181.50,1500.99L1181.01,1500.50L1180.50,1499.99L1180.07,1499.50L1179.93,1498.50L1179.50,1498.07L1178.50,1497.93L1178.01,1497.50L1177.50,1496.98L1177.08,1496.50L1177.09,1495.50ZM1187.19,1504.50L1187.50,1504.20L1187.81,1504.50L1187.50,1504.80L1187.19,1504.50ZM1188.10,1505.50L1188.50,1505.09L1189.50,1505.08L1189.98,1505.50L1190.50,1506.09L1190.91,1506.50L1190.50,1506.91L1189.50,1506.92L1189.02,1506.50L1188.50,1505.91L1188.10,1505.50ZM1191.09,1507.50L1191.50,1507.09L1192.50,1507.08L1192.99,1507.50L1193.50,1508.00L1194.50,1508.08L1194.98,1508.50L1195.50,1509.01L1195.99,1509.50L1196.50,1510.09L1196.91,1510.50L1196.50,1510.91L1195.50,1510.92L1195.02,1510.50L1194.50,1509.99L1194.00,1509.50L1193.50,1509.00L1192.50,1508.92L1192.02,1508.50L1191.50,1507.91L1191.09,1507.50ZM1197.09,1511.50L1197.50,1511.09L1198.50,1511.08L1198.98,1511.50L1199.50,1512.10L1199.84,1512.50L1199.50,1512.85L1198.50,1512.92L1198.02,1512.50L1197.50,1511.91L1197.09,1511.50Z"/><path fill="#adb8b8" fill-rule="evenodd" d="M1192.16,1468.50L1192.50,1468.15L1193.50,1468.01L1194.50,1468.07L1194.99,1468.50L1195.50,1469.00L1196.00,1469.50L1196.50,1470.00L1197.01,1470.50L1197.50,1470.93L1198.50,1470.93L1198.99,1470.50L1199.50,1470.00L1200.02,1469.50L1200.50,1469.08L1201.50,1469.00L1202.01,1468.50L1202.50,1468.08L1203.50,1468.15L1203.84,1468.50L1203.50,1468.90L1202.98,1469.50L1202.50,1469.92L1201.50,1470.01L1201.07,1470.50L1200.93,1471.50L1200.50,1472.00L1200.07,1472.50L1200.07,1473.50L1200.50,1474.00L1200.93,1474.50L1200.99,1475.50L1200.85,1476.50L1200.50,1476.84L1200.09,1476.50L1199.50,1476.07L1198.50,1475.93L1198.01,1475.50L1197.50,1475.00L1197.00,1474.50L1196.50,1474.00L1196.00,1473.50L1195.50,1473.00L1195.00,1472.50L1194.50,1472.00L1194.00,1471.50L1193.50,1470.99L1193.07,1470.50L1192.93,1469.50L1192.50,1468.91L1192.16,1468.50ZM1155.00,1481.50L1155.50,1481.07L1156.50,1481.00L1157.50,1481.07L1157.99,1481.50L1158.50,1482.00L1159.00,1482.50L1159.50,1483.00L1160.00,1483.50L1160.50,1484.01L1160.93,1484.50L1161.07,1485.50L1161.50,1486.00L1161.93,1486.50L1162.07,1487.50L1162.50,1488.00L1162.93,1488.50L1162.93,1489.50L1162.50,1489.99L1162.00,1490.50L1161.50,1491.00L1160.99,1491.50L1160.50,1491.93L1159.50,1492.07L1159.01,1492.50L1158.50,1493.00L1158.00,1493.50L1157.50,1494.00L1156.99,1494.50L1156.50,1494.93L1155.50,1495.07L1155.01,1495.50L1154.50,1496.00L1153.99,1496.50L1153.50,1496.93L1152.50,1497.07L1152.00,1497.50L1151.50,1497.93L1150.50,1498.07L1150.01,1498.50L1149.50,1499.00L1148.90,1499.50L1148.50,1499.84L1148.15,1499.50L1148.01,1498.50L1148.07,1497.50L1148.50,1497.01L1149.01,1496.50L1149.50,1496.07L1150.50,1495.93L1150.99,1495.50L1151.50,1495.00L1152.00,1494.50L1152.50,1494.00L1153.01,1493.50L1153.50,1493.07L1154.50,1492.93L1154.99,1492.50L1155.50,1492.00L1156.01,1491.50L1156.50,1491.07L1157.50,1490.93L1157.99,1490.50L1158.50,1490.00L1159.00,1489.50L1159.50,1488.91L1159.85,1488.50L1159.50,1488.09L1159.00,1487.50L1158.50,1486.99L1158.07,1486.50L1157.93,1485.50L1157.50,1485.01L1156.99,1484.50L1156.50,1484.07L1155.50,1484.07L1155.00,1484.50L1154.50,1484.93L1153.50,1485.00L1152.50,1485.06L1152.01,1485.50L1151.50,1486.00L1150.99,1486.50L1150.50,1486.93L1149.50,1487.07L1148.91,1487.50L1148.50,1487.84L1148.15,1487.50L1148.01,1486.50L1148.08,1485.50L1148.50,1485.08L1149.50,1484.93L1150.00,1484.50L1150.50,1484.07L1151.50,1483.94L1151.99,1483.50L1152.50,1483.00L1153.01,1482.50L1153.50,1482.07L1154.50,1481.93L1155.00,1481.50ZM1148.15,1521.50L1148.50,1521.16L1148.90,1521.50L1149.50,1522.00L1150.00,1522.50L1150.50,1523.01L1150.93,1523.50L1151.06,1524.50L1151.50,1524.99L1152.00,1525.50L1152.50,1526.01L1152.99,1526.50L1153.50,1527.01L1153.99,1527.50L1154.50,1528.01L1154.93,1528.50L1155.06,1529.50L1155.50,1530.00L1155.99,1530.50L1156.50,1531.10L1156.84,1531.50L1156.50,1531.85L1155.50,1531.92L1155.02,1531.50L1154.50,1530.99L1154.01,1530.50L1153.50,1529.99L1153.07,1529.50L1152.94,1528.50L1152.50,1528.00L1152.00,1527.50L1151.50,1527.06L1150.50,1526.92L1150.08,1526.50L1149.94,1525.50L1149.50,1525.01L1149.00,1524.50L1148.50,1523.99L1148.07,1523.50L1148.01,1522.50L1148.15,1521.50Z"/><defs><clipPath id="r28236"><path d="M1136.01,1453.50L1136.50,1453.07L1137.50,1453.07L1137.99,1453.50L1138.50,1454.00L1139.00,1454.50L1139.50,1455.00L1140.01,1455.50L1140.50,1455.93L1141.50,1456.00L1142.50,1456.08L1142.92,1456.50L1143.00,1457.50L1143.01,1458.50L1143.15,1459.50L1143.50,1459.84L1143.90,1459.50L1144.50,1459.00L1145.09,1458.50L1145.50,1458.15L1145.91,1458.50L1146.50,1459.00L1147.00,1459.50L1147.50,1460.01L1147.93,1460.50L1147.93,1461.50L1147.50,1462.00L1147.07,1462.50L1147.07,1463.50L1147.50,1464.00L1147.93,1464.50L1148.07,1465.50L1148.50,1465.99L1149.01,1466.50L1149.50,1466.93L1150.50,1467.00L1151.50,1466.94L1152.09,1466.50L1152.50,1466.16L1152.85,1466.50L1152.92,1467.50L1152.50,1467.99L1152.07,1468.50L1152.07,1469.50L1152.50,1470.00L1152.93,1470.50L1152.93,1471.50L1152.50,1471.99L1152.00,1472.50L1151.50,1473.00L1150.99,1473.50L1150.50,1473.93L1149.50,1474.07L1149.01,1474.50L1148.50,1475.00L1147.91,1475.50L1147.50,1475.85L1147.09,1475.50L1146.50,1475.00L1146.00,1474.50L1145.50,1474.00L1145.00,1473.50L1144.50,1473.00L1144.00,1472.50L1143.50,1472.00L1143.00,1471.50L1142.50,1471.00L1142.00,1470.50L1141.50,1470.00L1141.00,1469.50L1140.50,1469.00L1140.00,1468.50L1139.50,1468.00L1139.00,1467.50L1138.50,1467.00L1138.00,1466.50L1137.50,1466.00L1137.00,1465.50L1136.50,1465.00L1136.00,1464.50L1135.50,1464.00L1135.00,1463.50L1134.50,1462.99L1134.07,1462.50L1133.93,1461.50L1133.50,1461.01L1133.00,1460.50L1132.50,1460.00L1132.00,1459.50L1131.50,1458.91L1131.15,1458.50L1131.50,1458.09L1132.00,1457.50L1132.50,1457.00L1133.00,1456.50L1133.50,1456.00L1134.00,1455.50L1134.50,1455.00L1135.00,1454.50L1135.50,1454.00L1136.01,1453.50ZM1140.50,1463.15L1140.16,1463.50L1140.50,1463.90L1141.09,1464.50L1141.50,1464.90L1141.92,1464.50L1141.91,1463.50L1141.50,1463.09L1140.50,1463.15ZM1142.50,1465.08L1142.10,1465.50L1142.50,1465.91L1143.02,1466.50L1143.50,1466.92L1144.50,1466.85L1144.84,1466.50L1144.50,1466.10L1143.98,1465.50L1143.50,1465.08L1142.50,1465.08Z" fill-rule="evenodd"/></clipPath></defs><g clip-path="url(#r28236)"><path d="M1136.01,1453.50L1136.50,1453.07L1137.50,1453.07L1137.99,1453.50L1138.50,1454.00L1139.00,1454.50L1139.50,1455.00L1140.01,1455.50L1140.50,1455.93L1141.50,1456.00L1142.50,1456.08L1142.92,1456.50L1143.00,1457.50L1143.01,1458.50L1143.15,1459.50L1143.50,1459.84L1143.90,1459.50L1144.50,1459.00L1145.09,1458.50L1145.50,1458.15L1145.91,1458.50L1146.50,1459.00L1147.00,1459.50L1147.50,1460.01L1147.93,1460.50L1147.93,1461.50L1147.50,1462.00L1147.07,1462.50L1147.07,1463.50L1147.50,1464.00L1147.93,1464.50L1148.07,1465.50L1148.50,1465.99L1149.01,1466.50L1149.50,1466.93L1150.50,1467.00L1151.50,1466.94L1152.09,1466.50L1152.50,1466.16L1152.85,1466.50L1152.92,1467.50L1152.50,1467.99L1152.07,1468.50L1152.07,1469.50L1152.50,1470.00L1152.93,1470.50L1152.93,1471.50L1152.50,1471.99L1152.00,1472.50L1151.50,1473.00L1150.99,1473.50L1150.50,1473.93L1149.50,1474.07L1149.01,1474.50L1148.50,1475.00L1147.91,1475.50L1147.50,1475.85L1147.09,1475.50L1146.50,1475.00L1146.00,1474.50L1145.50,1474.00L1145.00,1473.50L1144.50,1473.00L1144.00,1472.50L1143.50,1472.00L1143.00,1471.50L1142.50,1471.00L1142.00,1470.50L1141.50,1470.00L1141.00,1469.50L1140.50,1469.00L1140.00,1468.50L1139.50,1468.00L1139.00,1467.50L1138.50,1467.00L1138.00,1466.50L1137.50,1466.00L1137.00,1465.50L1136.50,1465.00L1136.00,1464.50L1135.50,1464.00L1135.00,1463.50L1134.50,1462.99L1134.07,1462.50L1133.93,1461.50L1133.50,1461.01L1133.00,1460.50L1132.50,1460.00L1132.00,1459.50L1131.50,1458.91L1131.15,1458.50L1131.50,1458.09L1132.00,1457.50L1132.50,1457.00L1133.00,1456.50L1133.50,1456.00L1134.00,1455.50L1134.50,1455.00L1135.00,1454.50L1135.50,1454.00L1136.01,1453.50ZM1140.50,1463.15L1140.16,1463.50L1140.50,1463.90L1141.09,1464.50L1141.50,1464.90L1141.92,1464.50L1141.91,1463.50L1141.50,1463.09L1140.50,1463.15ZM1142.50,1465.08L1142.10,1465.50L1142.50,1465.91L1143.02,1466.50L1143.50,1466.92L1144.50,1466.85L1144.84,1466.50L1144.50,1466.10L1143.98,1465.50L1143.50,1465.08L1142.50,1465.08Z" fill="#728f89" stroke="#46514c" stroke-width=".30"/><rect x="1142.0" y="1453" width="22" height="23" fill="#506c66"/><path d="M1142.00 1453V1476" stroke="#a2b7a0" stroke-width=".22"/><path d="M1131 1453.50H1153" stroke="#a2b7a0" stroke-opacity=".25" stroke-width=".07"/><path d="M1131 1454.35H1153" stroke="#a2b7a0" stroke-opacity=".25" stroke-width=".07"/><path d="M1131 1455.20H1153" stroke="#a2b7a0" stroke-opacity=".25" stroke-width=".07"/><path d="M1131 1456.05H1153" stroke="#a2b7a0" stroke-opacity=".25" stroke-width=".07"/><path d="M1131 1456.90H1153" stroke="#a2b7a0" stroke-opacity=".25" stroke-width=".07"/><path d="M1131 1457.75H1153" stroke="#a2b7a0" stroke-opacity=".25" stroke-width=".07"/><path d="M1131 1458.60H1153" stroke="#a2b7a0" stroke-opacity=".25" stroke-width=".07"/><path d="M1131 1459.45H1153" stroke="#a2b7a0" stroke-opacity=".25" stroke-width=".07"/><path d="M1131 1460.30H1153" stroke="#a2b7a0" stroke-opacity=".25" stroke-width=".07"/><path d="M1131 1461.15H1153" stroke="#a2b7a0" stroke-opacity=".25" stroke-width=".07"/><path d="M1131 1462.00H1153" stroke="#a2b7a0" stroke-opacity=".25" stroke-width=".07"/><path d="M1131 1462.85H1153" stroke="#a2b7a0" stroke-opacity=".25" stroke-width=".07"/><path d="M1131 1463.70H1153" stroke="#a2b7a0" stroke-opacity=".25" stroke-width=".07"/><path d="M1131 1464.55H1153" stroke="#a2b7a0" stroke-opacity=".25" stroke-width=".07"/><path d="M1131 1465.40H1153" stroke="#a2b7a0" stroke-opacity=".25" stroke-width=".07"/><path d="M1131 1466.25H1153" stroke="#a2b7a0" stroke-opacity=".25" stroke-width=".07"/><path d="M1131 1467.10H1153" stroke="#a2b7a0" stroke-opacity=".25" stroke-width=".07"/><path d="M1131 1467.95H1153" stroke="#a2b7a0" stroke-opacity=".25" stroke-width=".07"/><path d="M1131 1468.80H1153" stroke="#a2b7a0" stroke-opacity=".25" stroke-width=".07"/><path d="M1131 1469.65H1153" stroke="#a2b7a0" stroke-opacity=".25" stroke-width=".07"/><path d="M1131 1470.50H1153" stroke="#a2b7a0" stroke-opacity=".25" stroke-width=".07"/><path d="M1131 1471.35H1153" stroke="#a2b7a0" stroke-opacity=".25" stroke-width=".07"/><path d="M1131 1472.20H1153" stroke="#a2b7a0" stroke-opacity=".25" stroke-width=".07"/><path d="M1131 1473.05H1153" stroke="#a2b7a0" stroke-opacity=".25" stroke-width=".07"/><path d="M1131 1473.90H1153" stroke="#a2b7a0" stroke-opacity=".25" stroke-width=".07"/><path d="M1131 1474.75H1153" stroke="#a2b7a0" stroke-opacity=".25" stroke-width=".07"/><path d="M1131 1475.60H1153" stroke="#a2b7a0" stroke-opacity=".25" stroke-width=".07"/><rect x="1141.00" y="1463.10" width="1.2" height=".75" rx=".08" fill="#c4dadd" stroke="#506c66" stroke-width=".15"/><path d="M1141.60 1463.10v.75" stroke="#748995" stroke-width=".1"/><rect x="1132" y="1454" width="2.6" height="1.7" rx=".12" fill="#d4d6c4" stroke="#68797a" stroke-width=".12"/><circle cx="1132.7" cy="1454.8" r=".4" fill="#869490"/></g><defs><clipPath id="r28304"><path d="M1220.10,1455.50L1220.50,1455.16L1220.85,1455.50L1220.92,1456.50L1220.50,1456.99L1220.06,1457.50L1220.08,1458.50L1220.50,1458.92L1221.50,1459.08L1221.92,1459.50L1221.93,1460.50L1221.50,1460.99L1221.00,1461.50L1220.50,1462.00L1220.00,1462.50L1219.50,1463.00L1218.99,1463.50L1218.50,1463.93L1217.50,1464.08L1217.08,1464.50L1217.00,1465.50L1217.50,1466.07L1217.93,1466.50L1218.50,1466.93L1219.50,1467.07L1219.99,1467.50L1220.50,1468.01L1220.93,1468.50L1221.00,1469.50L1220.93,1470.50L1220.50,1470.99L1219.99,1471.50L1219.50,1471.93L1218.50,1471.93L1217.92,1471.50L1217.50,1471.10L1217.09,1471.50L1216.93,1472.50L1216.50,1472.92L1215.50,1473.00L1214.50,1473.00L1213.50,1473.00L1212.50,1472.99L1211.50,1472.85L1211.16,1472.50L1211.50,1472.09L1211.93,1471.50L1212.07,1470.50L1212.50,1470.01L1213.00,1469.50L1213.50,1468.99L1213.95,1468.50L1213.99,1467.50L1213.50,1467.01L1213.00,1466.50L1212.50,1466.00L1212.00,1465.50L1211.50,1464.99L1211.07,1464.50L1210.93,1463.50L1210.50,1462.92L1210.15,1462.50L1210.50,1462.09L1211.01,1461.50L1211.50,1461.07L1212.50,1461.00L1213.50,1461.07L1214.08,1461.50L1214.50,1461.85L1214.91,1461.50L1215.50,1461.00L1216.00,1460.50L1216.50,1459.99L1216.93,1459.50L1217.07,1458.50L1217.50,1458.01L1218.00,1457.50L1218.50,1457.00L1219.01,1456.50L1219.50,1456.01L1220.10,1455.50ZM1216.50,1466.19L1216.20,1466.50L1216.50,1466.80L1216.87,1466.50L1216.50,1466.19ZM1215.50,1467.22L1215.21,1467.50L1215.50,1467.78L1215.78,1467.50L1215.50,1467.22ZM1215.50,1469.22L1215.26,1469.50L1215.50,1469.78L1215.78,1469.50L1215.50,1469.22ZM1216.50,1470.20L1216.20,1470.50L1216.50,1470.81L1216.80,1470.50L1216.50,1470.20Z" fill-rule="evenodd"/></clipPath></defs><g clip-path="url(#r28304)"><path d="M1220.10,1455.50L1220.50,1455.16L1220.85,1455.50L1220.92,1456.50L1220.50,1456.99L1220.06,1457.50L1220.08,1458.50L1220.50,1458.92L1221.50,1459.08L1221.92,1459.50L1221.93,1460.50L1221.50,1460.99L1221.00,1461.50L1220.50,1462.00L1220.00,1462.50L1219.50,1463.00L1218.99,1463.50L1218.50,1463.93L1217.50,1464.08L1217.08,1464.50L1217.00,1465.50L1217.50,1466.07L1217.93,1466.50L1218.50,1466.93L1219.50,1467.07L1219.99,1467.50L1220.50,1468.01L1220.93,1468.50L1221.00,1469.50L1220.93,1470.50L1220.50,1470.99L1219.99,1471.50L1219.50,1471.93L1218.50,1471.93L1217.92,1471.50L1217.50,1471.10L1217.09,1471.50L1216.93,1472.50L1216.50,1472.92L1215.50,1473.00L1214.50,1473.00L1213.50,1473.00L1212.50,1472.99L1211.50,1472.85L1211.16,1472.50L1211.50,1472.09L1211.93,1471.50L1212.07,1470.50L1212.50,1470.01L1213.00,1469.50L1213.50,1468.99L1213.95,1468.50L1213.99,1467.50L1213.50,1467.01L1213.00,1466.50L1212.50,1466.00L1212.00,1465.50L1211.50,1464.99L1211.07,1464.50L1210.93,1463.50L1210.50,1462.92L1210.15,1462.50L1210.50,1462.09L1211.01,1461.50L1211.50,1461.07L1212.50,1461.00L1213.50,1461.07L1214.08,1461.50L1214.50,1461.85L1214.91,1461.50L1215.50,1461.00L1216.00,1460.50L1216.50,1459.99L1216.93,1459.50L1217.07,1458.50L1217.50,1458.01L1218.00,1457.50L1218.50,1457.00L1219.01,1456.50L1219.50,1456.01L1220.10,1455.50ZM1216.50,1466.19L1216.20,1466.50L1216.50,1466.80L1216.87,1466.50L1216.50,1466.19ZM1215.50,1467.22L1215.21,1467.50L1215.50,1467.78L1215.78,1467.50L1215.50,1467.22ZM1215.50,1469.22L1215.26,1469.50L1215.50,1469.78L1215.78,1469.50L1215.50,1469.22ZM1216.50,1470.20L1216.20,1470.50L1216.50,1470.81L1216.80,1470.50L1216.50,1470.20Z" fill="#a49573" stroke="#46514c" stroke-width=".30"/><rect x="1216.0" y="1455" width="12" height="18" fill="#7e7259"/><path d="M1216.00 1455V1473" stroke="#d1c09a" stroke-width=".22"/><path d="M1210 1455.50H1222" stroke="#d1c09a" stroke-opacity=".25" stroke-width=".07"/><path d="M1210 1456.35H1222" stroke="#d1c09a" stroke-opacity=".25" stroke-width=".07"/><path d="M1210 1457.20H1222" stroke="#d1c09a" stroke-opacity=".25" stroke-width=".07"/><path d="M1210 1458.05H1222" stroke="#d1c09a" stroke-opacity=".25" stroke-width=".07"/><path d="M1210 1458.90H1222" stroke="#d1c09a" stroke-opacity=".25" stroke-width=".07"/><path d="M1210 1459.75H1222" stroke="#d1c09a" stroke-opacity=".25" stroke-width=".07"/><path d="M1210 1460.60H1222" stroke="#d1c09a" stroke-opacity=".25" stroke-width=".07"/><path d="M1210 1461.45H1222" stroke="#d1c09a" stroke-opacity=".25" stroke-width=".07"/><path d="M1210 1462.30H1222" stroke="#d1c09a" stroke-opacity=".25" stroke-width=".07"/><path d="M1210 1463.15H1222" stroke="#d1c09a" stroke-opacity=".25" stroke-width=".07"/><path d="M1210 1464.00H1222" stroke="#d1c09a" stroke-opacity=".25" stroke-width=".07"/><path d="M1210 1464.85H1222" stroke="#d1c09a" stroke-opacity=".25" stroke-width=".07"/><path d="M1210 1465.70H1222" stroke="#d1c09a" stroke-opacity=".25" stroke-width=".07"/><path d="M1210 1466.55H1222" stroke="#d1c09a" stroke-opacity=".25" stroke-width=".07"/><path d="M1210 1467.40H1222" stroke="#d1c09a" stroke-opacity=".25" stroke-width=".07"/><path d="M1210 1468.25H1222" stroke="#d1c09a" stroke-opacity=".25" stroke-width=".07"/><path d="M1210 1469.10H1222" stroke="#d1c09a" stroke-opacity=".25" stroke-width=".07"/><path d="M1210 1469.95H1222" stroke="#d1c09a" stroke-opacity=".25" stroke-width=".07"/><path d="M1210 1470.80H1222" stroke="#d1c09a" stroke-opacity=".25" stroke-width=".07"/><path d="M1210 1471.65H1222" stroke="#d1c09a" stroke-opacity=".25" stroke-width=".07"/><path d="M1210 1472.50H1222" stroke="#d1c09a" stroke-opacity=".25" stroke-width=".07"/><rect x="1215.00" y="1462.60" width="1.2" height=".75" rx=".08" fill="#c4dadd" stroke="#7e7259" stroke-width=".15"/><path d="M1215.60 1462.60v.75" stroke="#748995" stroke-width=".1"/><rect x="1211" y="1456" width="2.6" height="1.7" rx=".12" fill="#d4d6c4" stroke="#68797a" stroke-width=".12"/><circle cx="1211.7" cy="1456.8" r=".4" fill="#869490"/></g><defs><clipPath id="r28626"><path d="M1209.01,1465.50L1209.50,1465.07L1210.50,1465.07L1210.99,1465.50L1211.50,1466.00L1212.00,1466.50L1212.50,1467.01L1212.93,1467.50L1212.93,1468.50L1212.50,1468.99L1212.00,1469.50L1211.50,1470.01L1211.07,1470.50L1210.92,1471.50L1210.50,1471.92L1209.50,1471.93L1209.01,1471.50L1208.50,1470.99L1208.07,1470.50L1207.92,1469.50L1207.50,1469.07L1206.50,1468.85L1206.16,1468.50L1206.50,1468.10L1207.00,1467.50L1207.50,1467.00L1208.00,1466.50L1208.50,1466.00L1209.01,1465.50Z" fill-rule="evenodd"/></clipPath></defs><g clip-path="url(#r28626)"><path d="M1209.01,1465.50L1209.50,1465.07L1210.50,1465.07L1210.99,1465.50L1211.50,1466.00L1212.00,1466.50L1212.50,1467.01L1212.93,1467.50L1212.93,1468.50L1212.50,1468.99L1212.00,1469.50L1211.50,1470.01L1211.07,1470.50L1210.92,1471.50L1210.50,1471.92L1209.50,1471.93L1209.01,1471.50L1208.50,1470.99L1208.07,1470.50L1207.92,1469.50L1207.50,1469.07L1206.50,1468.85L1206.16,1468.50L1206.50,1468.10L1207.00,1467.50L1207.50,1467.00L1208.00,1466.50L1208.50,1466.00L1209.01,1465.50Z" fill="#728f89" stroke="#46514c" stroke-width=".30"/><rect x="1206" y="1468.5" width="7" height="7" fill="#506c66"/><path d="M1206 1468.50H1213" stroke="#a2b7a0" stroke-width=".22"/><path d="M1206 1465.50H1213" stroke="#a2b7a0" stroke-opacity=".25" stroke-width=".07"/><path d="M1206 1466.35H1213" stroke="#a2b7a0" stroke-opacity=".25" stroke-width=".07"/><path d="M1206 1467.20H1213" stroke="#a2b7a0" stroke-opacity=".25" stroke-width=".07"/><path d="M1206 1468.05H1213" stroke="#a2b7a0" stroke-opacity=".25" stroke-width=".07"/><path d="M1206 1468.90H1213" stroke="#a2b7a0" stroke-opacity=".25" stroke-width=".07"/><path d="M1206 1469.75H1213" stroke="#a2b7a0" stroke-opacity=".25" stroke-width=".07"/><path d="M1206 1470.60H1213" stroke="#a2b7a0" stroke-opacity=".25" stroke-width=".07"/><path d="M1206 1471.45H1213" stroke="#a2b7a0" stroke-opacity=".25" stroke-width=".07"/><rect x="1208.50" y="1467.10" width="1.2" height=".75" rx=".08" fill="#c4dadd" stroke="#506c66" stroke-width=".15"/><path d="M1209.10 1467.10v.75" stroke="#748995" stroke-width=".1"/></g><defs><clipPath id="r28724"><path d="M1204.10,1468.50L1204.50,1468.16L1204.85,1468.50L1205.06,1469.50L1205.50,1470.00L1205.93,1470.50L1206.06,1471.50L1206.50,1472.00L1206.99,1472.50L1207.50,1473.09L1207.85,1473.50L1207.50,1473.91L1206.90,1474.50L1206.50,1474.84L1206.10,1474.50L1205.94,1473.50L1205.50,1473.01L1204.91,1472.50L1204.50,1472.16L1204.15,1472.50L1204.08,1473.50L1204.50,1474.08L1204.90,1474.50L1204.50,1474.85L1203.50,1474.99L1202.50,1474.93L1202.00,1474.50L1201.50,1474.07L1200.50,1473.92L1200.08,1473.50L1200.07,1472.50L1200.50,1472.01L1201.00,1471.50L1201.50,1471.00L1202.00,1470.50L1202.50,1470.00L1203.00,1469.50L1203.50,1469.00L1204.10,1468.50Z" fill-rule="evenodd"/></clipPath></defs><g clip-path="url(#r28724)"><path d="M1204.10,1468.50L1204.50,1468.16L1204.85,1468.50L1205.06,1469.50L1205.50,1470.00L1205.93,1470.50L1206.06,1471.50L1206.50,1472.00L1206.99,1472.50L1207.50,1473.09L1207.85,1473.50L1207.50,1473.91L1206.90,1474.50L1206.50,1474.84L1206.10,1474.50L1205.94,1473.50L1205.50,1473.01L1204.91,1472.50L1204.50,1472.16L1204.15,1472.50L1204.08,1473.50L1204.50,1474.08L1204.90,1474.50L1204.50,1474.85L1203.50,1474.99L1202.50,1474.93L1202.00,1474.50L1201.50,1474.07L1200.50,1473.92L1200.08,1473.50L1200.07,1472.50L1200.50,1472.01L1201.00,1471.50L1201.50,1471.00L1202.00,1470.50L1202.50,1470.00L1203.00,1469.50L1203.50,1469.00L1204.10,1468.50Z" fill="#a49573" stroke="#46514c" stroke-width=".30"/><rect x="1200" y="1471.5" width="8" height="7" fill="#7e7259"/><path d="M1200 1471.50H1208" stroke="#d1c09a" stroke-width=".22"/><path d="M1200 1468.50H1208" stroke="#d1c09a" stroke-opacity=".25" stroke-width=".07"/><path d="M1200 1469.35H1208" stroke="#d1c09a" stroke-opacity=".25" stroke-width=".07"/><path d="M1200 1470.20H1208" stroke="#d1c09a" stroke-opacity=".25" stroke-width=".07"/><path d="M1200 1471.05H1208" stroke="#d1c09a" stroke-opacity=".25" stroke-width=".07"/><path d="M1200 1471.90H1208" stroke="#d1c09a" stroke-opacity=".25" stroke-width=".07"/><path d="M1200 1472.75H1208" stroke="#d1c09a" stroke-opacity=".25" stroke-width=".07"/><path d="M1200 1473.60H1208" stroke="#d1c09a" stroke-opacity=".25" stroke-width=".07"/><path d="M1200 1474.45H1208" stroke="#d1c09a" stroke-opacity=".25" stroke-width=".07"/><rect x="1203.00" y="1470.10" width="1.2" height=".75" rx=".08" fill="#c4dadd" stroke="#7e7259" stroke-width=".15"/><path d="M1203.60 1470.10v.75" stroke="#748995" stroke-width=".1"/></g><defs><clipPath id="r28761"><path d="M1156.10,1469.50L1156.50,1469.16L1156.85,1469.50L1157.06,1470.50L1157.50,1471.00L1157.93,1471.50L1158.07,1472.50L1158.50,1473.08L1158.85,1473.50L1158.50,1473.91L1158.00,1474.50L1157.50,1475.00L1156.91,1475.50L1156.50,1475.85L1156.08,1475.50L1155.50,1475.07L1154.50,1475.07L1153.91,1475.50L1153.50,1475.84L1153.15,1475.50L1152.94,1474.50L1152.50,1473.92L1152.15,1473.50L1152.50,1473.09L1153.00,1472.50L1153.50,1472.00L1154.00,1471.50L1154.50,1471.00L1155.00,1470.50L1155.50,1470.00L1156.10,1469.50Z" fill-rule="evenodd"/></clipPath></defs><g clip-path="url(#r28761)"><path d="M1156.10,1469.50L1156.50,1469.16L1156.85,1469.50L1157.06,1470.50L1157.50,1471.00L1157.93,1471.50L1158.07,1472.50L1158.50,1473.08L1158.85,1473.50L1158.50,1473.91L1158.00,1474.50L1157.50,1475.00L1156.91,1475.50L1156.50,1475.85L1156.08,1475.50L1155.50,1475.07L1154.50,1475.07L1153.91,1475.50L1153.50,1475.84L1153.15,1475.50L1152.94,1474.50L1152.50,1473.92L1152.15,1473.50L1152.50,1473.09L1153.00,1472.50L1153.50,1472.00L1154.00,1471.50L1154.50,1471.00L1155.00,1470.50L1155.50,1470.00L1156.10,1469.50Z" fill="#728f89" stroke="#46514c" stroke-width=".30"/><rect x="1152" y="1472.5" width="7" height="7" fill="#506c66"/><path d="M1152 1472.50H1159" stroke="#a2b7a0" stroke-width=".22"/><path d="M1152 1469.50H1159" stroke="#a2b7a0" stroke-opacity=".25" stroke-width=".07"/><path d="M1152 1470.35H1159" stroke="#a2b7a0" stroke-opacity=".25" stroke-width=".07"/><path d="M1152 1471.20H1159" stroke="#a2b7a0" stroke-opacity=".25" stroke-width=".07"/><path d="M1152 1472.05H1159" stroke="#a2b7a0" stroke-opacity=".25" stroke-width=".07"/><path d="M1152 1472.90H1159" stroke="#a2b7a0" stroke-opacity=".25" stroke-width=".07"/><path d="M1152 1473.75H1159" stroke="#a2b7a0" stroke-opacity=".25" stroke-width=".07"/><path d="M1152 1474.60H1159" stroke="#a2b7a0" stroke-opacity=".25" stroke-width=".07"/><path d="M1152 1475.45H1159" stroke="#a2b7a0" stroke-opacity=".25" stroke-width=".07"/><rect x="1154.50" y="1471.10" width="1.2" height=".75" rx=".08" fill="#c4dadd" stroke="#506c66" stroke-width=".15"/><path d="M1155.10 1471.10v.75" stroke="#748995" stroke-width=".1"/></g><defs><clipPath id="r28852"><path d="M1186.01,1472.50L1186.50,1472.07L1187.50,1472.08L1187.92,1472.50L1188.07,1473.50L1188.50,1473.99L1189.01,1474.50L1189.50,1474.93L1190.50,1475.08L1190.92,1475.50L1191.07,1476.50L1191.50,1477.08L1191.85,1477.50L1191.50,1477.91L1190.99,1478.50L1190.50,1478.93L1189.50,1479.00L1188.50,1479.00L1187.50,1479.07L1186.99,1479.50L1186.50,1479.92L1185.50,1479.85L1185.16,1479.50L1185.50,1479.01L1185.86,1478.50L1185.50,1478.09L1185.00,1477.50L1184.50,1477.00L1184.00,1476.50L1183.50,1475.91L1183.15,1475.50L1183.50,1475.09L1184.00,1474.50L1184.50,1474.00L1185.00,1473.50L1185.50,1473.00L1186.01,1472.50Z" fill-rule="evenodd"/></clipPath></defs><g clip-path="url(#r28852)"><path d="M1186.01,1472.50L1186.50,1472.07L1187.50,1472.08L1187.92,1472.50L1188.07,1473.50L1188.50,1473.99L1189.01,1474.50L1189.50,1474.93L1190.50,1475.08L1190.92,1475.50L1191.07,1476.50L1191.50,1477.08L1191.85,1477.50L1191.50,1477.91L1190.99,1478.50L1190.50,1478.93L1189.50,1479.00L1188.50,1479.00L1187.50,1479.07L1186.99,1479.50L1186.50,1479.92L1185.50,1479.85L1185.16,1479.50L1185.50,1479.01L1185.86,1478.50L1185.50,1478.09L1185.00,1477.50L1184.50,1477.00L1184.00,1476.50L1183.50,1475.91L1183.15,1475.50L1183.50,1475.09L1184.00,1474.50L1184.50,1474.00L1185.00,1473.50L1185.50,1473.00L1186.01,1472.50Z" fill="#747b87" stroke="#46514c" stroke-width=".30"/><rect x="1183" y="1476.0" width="9" height="8" fill="#545b68"/><path d="M1183 1476.00H1192" stroke="#9ca8b3" stroke-width=".22"/><path d="M1183 1472.50H1192" stroke="#9ca8b3" stroke-opacity=".25" stroke-width=".07"/><path d="M1183 1473.35H1192" stroke="#9ca8b3" stroke-opacity=".25" stroke-width=".07"/><path d="M1183 1474.20H1192" stroke="#9ca8b3" stroke-opacity=".25" stroke-width=".07"/><path d="M1183 1475.05H1192" stroke="#9ca8b3" stroke-opacity=".25" stroke-width=".07"/><path d="M1183 1475.90H1192" stroke="#9ca8b3" stroke-opacity=".25" stroke-width=".07"/><path d="M1183 1476.75H1192" stroke="#9ca8b3" stroke-opacity=".25" stroke-width=".07"/><path d="M1183 1477.60H1192" stroke="#9ca8b3" stroke-opacity=".25" stroke-width=".07"/><path d="M1183 1478.45H1192" stroke="#9ca8b3" stroke-opacity=".25" stroke-width=".07"/><path d="M1183 1479.30H1192" stroke="#9ca8b3" stroke-opacity=".25" stroke-width=".07"/><rect x="1186.50" y="1474.60" width="1.2" height=".75" rx=".08" fill="#c4dadd" stroke="#545b68" stroke-width=".15"/><path d="M1187.10 1474.60v.75" stroke="#748995" stroke-width=".1"/></g><defs><clipPath id="r28915"><path d="M1160.08,1474.50L1160.50,1474.15L1160.91,1474.50L1161.50,1475.00L1162.00,1475.50L1162.50,1476.01L1162.93,1476.50L1162.93,1477.50L1162.50,1478.00L1162.07,1478.50L1161.92,1479.50L1161.50,1479.92L1160.50,1480.07L1160.00,1480.50L1159.50,1480.93L1158.50,1480.92L1158.08,1480.50L1157.93,1479.50L1157.50,1479.00L1157.07,1478.50L1157.00,1477.50L1157.07,1476.50L1157.50,1476.01L1158.01,1475.50L1158.50,1475.07L1159.50,1474.93L1160.08,1474.50Z" fill-rule="evenodd"/></clipPath></defs><g clip-path="url(#r28915)"><path d="M1160.08,1474.50L1160.50,1474.15L1160.91,1474.50L1161.50,1475.00L1162.00,1475.50L1162.50,1476.01L1162.93,1476.50L1162.93,1477.50L1162.50,1478.00L1162.07,1478.50L1161.92,1479.50L1161.50,1479.92L1160.50,1480.07L1160.00,1480.50L1159.50,1480.93L1158.50,1480.92L1158.08,1480.50L1157.93,1479.50L1157.50,1479.00L1157.07,1478.50L1157.00,1477.50L1157.07,1476.50L1157.50,1476.01L1158.01,1475.50L1158.50,1475.07L1159.50,1474.93L1160.08,1474.50Z" fill="#647c93" stroke="#46514c" stroke-width=".30"/><rect x="1160.0" y="1474" width="6" height="7" fill="#445971"/><path d="M1160.00 1474V1481" stroke="#8da5b5" stroke-width=".22"/><path d="M1157 1474.50H1163" stroke="#8da5b5" stroke-opacity=".25" stroke-width=".07"/><path d="M1157 1475.35H1163" stroke="#8da5b5" stroke-opacity=".25" stroke-width=".07"/><path d="M1157 1476.20H1163" stroke="#8da5b5" stroke-opacity=".25" stroke-width=".07"/><path d="M1157 1477.05H1163" stroke="#8da5b5" stroke-opacity=".25" stroke-width=".07"/><path d="M1157 1477.90H1163" stroke="#8da5b5" stroke-opacity=".25" stroke-width=".07"/><path d="M1157 1478.75H1163" stroke="#8da5b5" stroke-opacity=".25" stroke-width=".07"/><path d="M1157 1479.60H1163" stroke="#8da5b5" stroke-opacity=".25" stroke-width=".07"/><path d="M1157 1480.45H1163" stroke="#8da5b5" stroke-opacity=".25" stroke-width=".07"/><rect x="1159.00" y="1476.10" width="1.2" height=".75" rx=".08" fill="#c4dadd" stroke="#445971" stroke-width=".15"/><path d="M1159.60 1476.10v.75" stroke="#748995" stroke-width=".1"/></g><defs><clipPath id="r28952"><path d="M1150.01,1475.50L1150.50,1475.07L1151.50,1475.08L1151.92,1475.50L1152.07,1476.50L1152.50,1477.00L1152.93,1477.50L1153.00,1478.50L1153.00,1479.50L1153.00,1480.50L1152.92,1481.50L1152.50,1481.92L1151.50,1481.93L1151.00,1481.50L1150.50,1481.07L1149.50,1481.08L1149.08,1481.50L1149.00,1482.50L1149.07,1483.50L1149.50,1484.09L1149.84,1484.50L1149.50,1484.85L1148.50,1485.06L1147.92,1485.50L1147.50,1485.85L1147.09,1485.50L1146.50,1485.00L1146.00,1484.50L1145.50,1484.00L1145.00,1483.50L1144.50,1482.99L1144.07,1482.50L1143.92,1481.50L1143.50,1481.08L1142.50,1481.00L1141.50,1480.92L1141.08,1480.50L1141.00,1479.50L1141.07,1478.50L1141.50,1478.01L1142.00,1477.50L1142.50,1477.00L1143.09,1476.50L1143.50,1476.15L1143.91,1476.50L1144.50,1477.00L1145.00,1477.50L1145.50,1478.00L1146.09,1478.50L1146.50,1478.85L1146.91,1478.50L1147.50,1478.00L1148.00,1477.50L1148.50,1477.00L1149.00,1476.50L1149.50,1476.00L1150.01,1475.50Z" fill-rule="evenodd"/></clipPath></defs><g clip-path="url(#r28952)"><path d="M1150.01,1475.50L1150.50,1475.07L1151.50,1475.08L1151.92,1475.50L1152.07,1476.50L1152.50,1477.00L1152.93,1477.50L1153.00,1478.50L1153.00,1479.50L1153.00,1480.50L1152.92,1481.50L1152.50,1481.92L1151.50,1481.93L1151.00,1481.50L1150.50,1481.07L1149.50,1481.08L1149.08,1481.50L1149.00,1482.50L1149.07,1483.50L1149.50,1484.09L1149.84,1484.50L1149.50,1484.85L1148.50,1485.06L1147.92,1485.50L1147.50,1485.85L1147.09,1485.50L1146.50,1485.00L1146.00,1484.50L1145.50,1484.00L1145.00,1483.50L1144.50,1482.99L1144.07,1482.50L1143.92,1481.50L1143.50,1481.08L1142.50,1481.00L1141.50,1480.92L1141.08,1480.50L1141.00,1479.50L1141.07,1478.50L1141.50,1478.01L1142.00,1477.50L1142.50,1477.00L1143.09,1476.50L1143.50,1476.15L1143.91,1476.50L1144.50,1477.00L1145.00,1477.50L1145.50,1478.00L1146.09,1478.50L1146.50,1478.85L1146.91,1478.50L1147.50,1478.00L1148.00,1477.50L1148.50,1477.00L1149.00,1476.50L1149.50,1476.00L1150.01,1475.50Z" fill="#747b87" stroke="#46514c" stroke-width=".30"/><rect x="1141" y="1480.5" width="12" height="11" fill="#545b68"/><path d="M1141 1480.50H1153" stroke="#9ca8b3" stroke-width=".22"/><path d="M1141 1475.50H1153" stroke="#9ca8b3" stroke-opacity=".25" stroke-width=".07"/><path d="M1141 1476.35H1153" stroke="#9ca8b3" stroke-opacity=".25" stroke-width=".07"/><path d="M1141 1477.20H1153" stroke="#9ca8b3" stroke-opacity=".25" stroke-width=".07"/><path d="M1141 1478.05H1153" stroke="#9ca8b3" stroke-opacity=".25" stroke-width=".07"/><path d="M1141 1478.90H1153" stroke="#9ca8b3" stroke-opacity=".25" stroke-width=".07"/><path d="M1141 1479.75H1153" stroke="#9ca8b3" stroke-opacity=".25" stroke-width=".07"/><path d="M1141 1480.60H1153" stroke="#9ca8b3" stroke-opacity=".25" stroke-width=".07"/><path d="M1141 1481.45H1153" stroke="#9ca8b3" stroke-opacity=".25" stroke-width=".07"/><path d="M1141 1482.30H1153" stroke="#9ca8b3" stroke-opacity=".25" stroke-width=".07"/><path d="M1141 1483.15H1153" stroke="#9ca8b3" stroke-opacity=".25" stroke-width=".07"/><path d="M1141 1484.00H1153" stroke="#9ca8b3" stroke-opacity=".25" stroke-width=".07"/><path d="M1141 1484.85H1153" stroke="#9ca8b3" stroke-opacity=".25" stroke-width=".07"/><path d="M1141 1485.70H1153" stroke="#9ca8b3" stroke-opacity=".25" stroke-width=".07"/><rect x="1146.00" y="1479.10" width="1.2" height=".75" rx=".08" fill="#c4dadd" stroke="#545b68" stroke-width=".15"/><path d="M1146.60 1479.10v.75" stroke="#748995" stroke-width=".1"/><rect x="1142" y="1476" width="2.6" height="1.7" rx=".12" fill="#d4d6c4" stroke="#68797a" stroke-width=".12"/><circle cx="1142.7" cy="1476.8" r=".4" fill="#869490"/></g><defs><clipPath id="r29060"><path d="M1163.10,1479.50L1163.50,1479.16L1163.85,1479.50L1164.06,1480.50L1164.50,1480.99L1165.00,1481.50L1165.50,1482.01L1165.93,1482.50L1165.93,1483.50L1165.50,1483.99L1164.99,1484.50L1164.50,1484.93L1163.50,1485.07L1163.00,1485.50L1162.50,1485.93L1161.50,1485.92L1161.08,1485.50L1161.00,1484.50L1160.93,1483.50L1160.50,1483.00L1160.07,1482.50L1160.08,1481.50L1160.50,1481.08L1161.50,1480.93L1161.99,1480.50L1162.50,1480.00L1163.10,1479.50Z" fill-rule="evenodd"/></clipPath></defs><g clip-path="url(#r29060)"><path d="M1163.10,1479.50L1163.50,1479.16L1163.85,1479.50L1164.06,1480.50L1164.50,1480.99L1165.00,1481.50L1165.50,1482.01L1165.93,1482.50L1165.93,1483.50L1165.50,1483.99L1164.99,1484.50L1164.50,1484.93L1163.50,1485.07L1163.00,1485.50L1162.50,1485.93L1161.50,1485.92L1161.08,1485.50L1161.00,1484.50L1160.93,1483.50L1160.50,1483.00L1160.07,1482.50L1160.08,1481.50L1160.50,1481.08L1161.50,1480.93L1161.99,1480.50L1162.50,1480.00L1163.10,1479.50Z" fill="#647c93" stroke="#46514c" stroke-width=".30"/><rect x="1163.0" y="1479" width="6" height="7" fill="#445971"/><path d="M1163.00 1479V1486" stroke="#8da5b5" stroke-width=".22"/><path d="M1160 1479.50H1166" stroke="#8da5b5" stroke-opacity=".25" stroke-width=".07"/><path d="M1160 1480.35H1166" stroke="#8da5b5" stroke-opacity=".25" stroke-width=".07"/><path d="M1160 1481.20H1166" stroke="#8da5b5" stroke-opacity=".25" stroke-width=".07"/><path d="M1160 1482.05H1166" stroke="#8da5b5" stroke-opacity=".25" stroke-width=".07"/><path d="M1160 1482.90H1166" stroke="#8da5b5" stroke-opacity=".25" stroke-width=".07"/><path d="M1160 1483.75H1166" stroke="#8da5b5" stroke-opacity=".25" stroke-width=".07"/><path d="M1160 1484.60H1166" stroke="#8da5b5" stroke-opacity=".25" stroke-width=".07"/><path d="M1160 1485.45H1166" stroke="#8da5b5" stroke-opacity=".25" stroke-width=".07"/><rect x="1162.00" y="1481.10" width="1.2" height=".75" rx=".08" fill="#c4dadd" stroke="#445971" stroke-width=".15"/><path d="M1162.60 1481.10v.75" stroke="#748995" stroke-width=".1"/></g><defs><clipPath id="r29108"><path d="M1178.09,1481.50L1178.50,1481.15L1178.91,1481.50L1179.50,1482.00L1180.00,1482.50L1180.50,1483.00L1181.00,1483.50L1181.50,1484.00L1182.00,1484.50L1182.50,1485.09L1182.85,1485.50L1182.50,1485.91L1181.91,1486.50L1181.50,1486.85L1181.09,1486.50L1180.50,1486.00L1179.99,1485.50L1179.50,1485.07L1178.50,1484.93L1178.01,1484.50L1177.50,1483.99L1177.07,1483.50L1177.07,1482.50L1177.50,1482.01L1178.09,1481.50Z" fill-rule="evenodd"/></clipPath></defs><g clip-path="url(#r29108)"><path d="M1178.09,1481.50L1178.50,1481.15L1178.91,1481.50L1179.50,1482.00L1180.00,1482.50L1180.50,1483.00L1181.00,1483.50L1181.50,1484.00L1182.00,1484.50L1182.50,1485.09L1182.85,1485.50L1182.50,1485.91L1181.91,1486.50L1181.50,1486.85L1181.09,1486.50L1180.50,1486.00L1179.99,1485.50L1179.50,1485.07L1178.50,1484.93L1178.01,1484.50L1177.50,1483.99L1177.07,1483.50L1177.07,1482.50L1177.50,1482.01L1178.09,1481.50Z" fill="#aa755e" stroke="#46514c" stroke-width=".30"/><rect x="1177" y="1484.0" width="6" height="6" fill="#825746"/><path d="M1177 1484.00H1183" stroke="#c99775" stroke-width=".22"/><path d="M1177 1481.50H1183" stroke="#c99775" stroke-opacity=".25" stroke-width=".07"/><path d="M1177 1482.35H1183" stroke="#c99775" stroke-opacity=".25" stroke-width=".07"/><path d="M1177 1483.20H1183" stroke="#c99775" stroke-opacity=".25" stroke-width=".07"/><path d="M1177 1484.05H1183" stroke="#c99775" stroke-opacity=".25" stroke-width=".07"/><path d="M1177 1484.90H1183" stroke="#c99775" stroke-opacity=".25" stroke-width=".07"/><path d="M1177 1485.75H1183" stroke="#c99775" stroke-opacity=".25" stroke-width=".07"/><path d="M1177 1486.60H1183" stroke="#c99775" stroke-opacity=".25" stroke-width=".07"/><rect x="1179.00" y="1482.60" width="1.2" height=".75" rx=".08" fill="#c4dadd" stroke="#825746" stroke-width=".15"/><path d="M1179.60 1482.60v.75" stroke="#748995" stroke-width=".1"/></g><defs><clipPath id="r29170"><path d="M1155.00,1484.50L1155.50,1484.07L1156.50,1484.07L1156.99,1484.50L1157.50,1485.01L1157.93,1485.50L1158.07,1486.50L1158.50,1487.00L1158.93,1487.50L1159.00,1488.50L1158.92,1489.50L1158.50,1489.92L1157.50,1490.07L1156.92,1490.50L1156.50,1490.85L1156.08,1490.50L1155.50,1490.07L1154.50,1490.00L1153.50,1490.00L1152.50,1490.10L1152.16,1490.50L1152.50,1490.91L1152.93,1491.50L1153.00,1492.50L1152.92,1493.50L1152.50,1493.92L1151.50,1494.00L1150.50,1494.08L1150.08,1494.50L1149.92,1495.50L1149.50,1495.92L1148.50,1496.00L1147.50,1496.07L1147.00,1496.50L1146.50,1496.93L1145.50,1496.92L1145.08,1496.50L1144.93,1495.50L1144.50,1495.00L1144.07,1494.50L1143.93,1493.50L1143.50,1492.91L1143.16,1492.50L1143.50,1492.15L1144.50,1491.94L1145.00,1491.50L1145.50,1491.07L1146.50,1490.92L1146.92,1490.50L1147.08,1489.50L1147.50,1489.08L1148.50,1488.92L1148.93,1488.50L1149.15,1487.50L1149.50,1487.16L1150.00,1487.50L1150.50,1487.84L1150.91,1487.50L1151.08,1486.50L1151.50,1486.09L1152.50,1485.99L1153.00,1485.50L1153.50,1485.07L1154.50,1484.93L1155.00,1484.50ZM1152.50,1487.11L1152.10,1487.50L1152.16,1488.50L1152.50,1488.89L1152.83,1488.50L1152.83,1487.50L1152.50,1487.11ZM1148.50,1492.28L1148.28,1492.50L1148.50,1492.72L1148.72,1492.50L1148.50,1492.28Z" fill-rule="evenodd"/></clipPath></defs><g clip-path="url(#r29170)"><path d="M1155.00,1484.50L1155.50,1484.07L1156.50,1484.07L1156.99,1484.50L1157.50,1485.01L1157.93,1485.50L1158.07,1486.50L1158.50,1487.00L1158.93,1487.50L1159.00,1488.50L1158.92,1489.50L1158.50,1489.92L1157.50,1490.07L1156.92,1490.50L1156.50,1490.85L1156.08,1490.50L1155.50,1490.07L1154.50,1490.00L1153.50,1490.00L1152.50,1490.10L1152.16,1490.50L1152.50,1490.91L1152.93,1491.50L1153.00,1492.50L1152.92,1493.50L1152.50,1493.92L1151.50,1494.00L1150.50,1494.08L1150.08,1494.50L1149.92,1495.50L1149.50,1495.92L1148.50,1496.00L1147.50,1496.07L1147.00,1496.50L1146.50,1496.93L1145.50,1496.92L1145.08,1496.50L1144.93,1495.50L1144.50,1495.00L1144.07,1494.50L1143.93,1493.50L1143.50,1492.91L1143.16,1492.50L1143.50,1492.15L1144.50,1491.94L1145.00,1491.50L1145.50,1491.07L1146.50,1490.92L1146.92,1490.50L1147.08,1489.50L1147.50,1489.08L1148.50,1488.92L1148.93,1488.50L1149.15,1487.50L1149.50,1487.16L1150.00,1487.50L1150.50,1487.84L1150.91,1487.50L1151.08,1486.50L1151.50,1486.09L1152.50,1485.99L1153.00,1485.50L1153.50,1485.07L1154.50,1484.93L1155.00,1484.50ZM1152.50,1487.11L1152.10,1487.50L1152.16,1488.50L1152.50,1488.89L1152.83,1488.50L1152.83,1487.50L1152.50,1487.11ZM1148.50,1492.28L1148.28,1492.50L1148.50,1492.72L1148.72,1492.50L1148.50,1492.28Z" fill="#647c93" stroke="#46514c" stroke-width=".30"/><rect x="1143" y="1490.5" width="16" height="13" fill="#445971"/><path d="M1143 1490.50H1159" stroke="#8da5b5" stroke-width=".22"/><path d="M1143 1484.50H1159" stroke="#8da5b5" stroke-opacity=".25" stroke-width=".07"/><path d="M1143 1485.35H1159" stroke="#8da5b5" stroke-opacity=".25" stroke-width=".07"/><path d="M1143 1486.20H1159" stroke="#8da5b5" stroke-opacity=".25" stroke-width=".07"/><path d="M1143 1487.05H1159" stroke="#8da5b5" stroke-opacity=".25" stroke-width=".07"/><path d="M1143 1487.90H1159" stroke="#8da5b5" stroke-opacity=".25" stroke-width=".07"/><path d="M1143 1488.75H1159" stroke="#8da5b5" stroke-opacity=".25" stroke-width=".07"/><path d="M1143 1489.60H1159" stroke="#8da5b5" stroke-opacity=".25" stroke-width=".07"/><path d="M1143 1490.45H1159" stroke="#8da5b5" stroke-opacity=".25" stroke-width=".07"/><path d="M1143 1491.30H1159" stroke="#8da5b5" stroke-opacity=".25" stroke-width=".07"/><path d="M1143 1492.15H1159" stroke="#8da5b5" stroke-opacity=".25" stroke-width=".07"/><path d="M1143 1493.00H1159" stroke="#8da5b5" stroke-opacity=".25" stroke-width=".07"/><path d="M1143 1493.85H1159" stroke="#8da5b5" stroke-opacity=".25" stroke-width=".07"/><path d="M1143 1494.70H1159" stroke="#8da5b5" stroke-opacity=".25" stroke-width=".07"/><path d="M1143 1495.55H1159" stroke="#8da5b5" stroke-opacity=".25" stroke-width=".07"/><path d="M1143 1496.40H1159" stroke="#8da5b5" stroke-opacity=".25" stroke-width=".07"/><rect x="1150.00" y="1489.10" width="1.2" height=".75" rx=".08" fill="#c4dadd" stroke="#445971" stroke-width=".15"/><path d="M1150.60 1489.10v.75" stroke="#748995" stroke-width=".1"/><rect x="1144" y="1485" width="2.6" height="1.7" rx=".12" fill="#d4d6c4" stroke="#68797a" stroke-width=".12"/><circle cx="1144.7" cy="1485.8" r=".4" fill="#869490"/></g><defs><clipPath id="r29264"><path d="M1197.10,1487.50L1197.50,1487.16L1197.85,1487.50L1198.07,1488.50L1198.50,1488.92L1199.50,1489.08L1199.92,1489.50L1200.07,1490.50L1200.50,1491.00L1200.93,1491.50L1201.00,1492.50L1201.00,1493.50L1201.00,1494.50L1200.93,1495.50L1200.50,1495.99L1199.90,1496.50L1199.50,1496.84L1199.15,1496.50L1199.01,1495.50L1198.93,1494.50L1198.50,1494.01L1198.00,1493.50L1197.50,1493.00L1196.99,1492.50L1196.50,1492.07L1195.50,1491.92L1195.08,1491.50L1195.00,1490.50L1195.07,1489.50L1195.50,1489.01L1196.00,1488.50L1196.50,1488.00L1197.10,1487.50Z" fill-rule="evenodd"/></clipPath></defs><g clip-path="url(#r29264)"><path d="M1197.10,1487.50L1197.50,1487.16L1197.85,1487.50L1198.07,1488.50L1198.50,1488.92L1199.50,1489.08L1199.92,1489.50L1200.07,1490.50L1200.50,1491.00L1200.93,1491.50L1201.00,1492.50L1201.00,1493.50L1201.00,1494.50L1200.93,1495.50L1200.50,1495.99L1199.90,1496.50L1199.50,1496.84L1199.15,1496.50L1199.01,1495.50L1198.93,1494.50L1198.50,1494.01L1198.00,1493.50L1197.50,1493.00L1196.99,1492.50L1196.50,1492.07L1195.50,1491.92L1195.08,1491.50L1195.00,1490.50L1195.07,1489.50L1195.50,1489.01L1196.00,1488.50L1196.50,1488.00L1197.10,1487.50Z" fill="#a49573" stroke="#46514c" stroke-width=".30"/><rect x="1198.0" y="1487" width="6" height="10" fill="#7e7259"/><path d="M1198.00 1487V1497" stroke="#d1c09a" stroke-width=".22"/><path d="M1195 1487.50H1201" stroke="#d1c09a" stroke-opacity=".25" stroke-width=".07"/><path d="M1195 1488.35H1201" stroke="#d1c09a" stroke-opacity=".25" stroke-width=".07"/><path d="M1195 1489.20H1201" stroke="#d1c09a" stroke-opacity=".25" stroke-width=".07"/><path d="M1195 1490.05H1201" stroke="#d1c09a" stroke-opacity=".25" stroke-width=".07"/><path d="M1195 1490.90H1201" stroke="#d1c09a" stroke-opacity=".25" stroke-width=".07"/><path d="M1195 1491.75H1201" stroke="#d1c09a" stroke-opacity=".25" stroke-width=".07"/><path d="M1195 1492.60H1201" stroke="#d1c09a" stroke-opacity=".25" stroke-width=".07"/><path d="M1195 1493.45H1201" stroke="#d1c09a" stroke-opacity=".25" stroke-width=".07"/><path d="M1195 1494.30H1201" stroke="#d1c09a" stroke-opacity=".25" stroke-width=".07"/><path d="M1195 1495.15H1201" stroke="#d1c09a" stroke-opacity=".25" stroke-width=".07"/><path d="M1195 1496.00H1201" stroke="#d1c09a" stroke-opacity=".25" stroke-width=".07"/><path d="M1195 1496.85H1201" stroke="#d1c09a" stroke-opacity=".25" stroke-width=".07"/><rect x="1197.00" y="1490.60" width="1.2" height=".75" rx=".08" fill="#c4dadd" stroke="#7e7259" stroke-width=".15"/><path d="M1197.60 1490.60v.75" stroke="#748995" stroke-width=".1"/></g><defs><clipPath id="r29279"><path d="M1168.00,1488.50L1168.50,1488.07L1169.50,1488.07L1169.99,1488.50L1170.50,1489.01L1170.93,1489.50L1171.07,1490.50L1171.50,1491.00L1171.93,1491.50L1171.92,1492.50L1171.50,1492.92L1170.50,1493.07L1170.01,1493.50L1169.50,1494.09L1169.15,1494.50L1169.50,1495.01L1169.84,1495.50L1169.50,1495.85L1168.50,1496.06L1168.00,1496.50L1167.50,1496.93L1166.50,1497.07L1166.01,1497.50L1165.50,1498.00L1164.99,1498.50L1164.50,1498.93L1163.50,1499.07L1162.92,1499.50L1162.50,1499.85L1162.09,1499.50L1161.50,1498.99L1161.07,1498.50L1160.93,1497.50L1160.50,1497.00L1160.07,1496.50L1160.00,1495.50L1160.08,1494.50L1160.50,1494.08L1161.50,1493.93L1161.99,1493.50L1162.50,1493.00L1163.01,1492.50L1163.50,1492.07L1164.50,1491.93L1164.99,1491.50L1165.50,1490.99L1165.93,1490.50L1166.08,1489.50L1166.50,1489.08L1167.50,1488.93L1168.00,1488.50Z" fill-rule="evenodd"/></clipPath></defs><g clip-path="url(#r29279)"><path d="M1168.00,1488.50L1168.50,1488.07L1169.50,1488.07L1169.99,1488.50L1170.50,1489.01L1170.93,1489.50L1171.07,1490.50L1171.50,1491.00L1171.93,1491.50L1171.92,1492.50L1171.50,1492.92L1170.50,1493.07L1170.01,1493.50L1169.50,1494.09L1169.15,1494.50L1169.50,1495.01L1169.84,1495.50L1169.50,1495.85L1168.50,1496.06L1168.00,1496.50L1167.50,1496.93L1166.50,1497.07L1166.01,1497.50L1165.50,1498.00L1164.99,1498.50L1164.50,1498.93L1163.50,1499.07L1162.92,1499.50L1162.50,1499.85L1162.09,1499.50L1161.50,1498.99L1161.07,1498.50L1160.93,1497.50L1160.50,1497.00L1160.07,1496.50L1160.00,1495.50L1160.08,1494.50L1160.50,1494.08L1161.50,1493.93L1161.99,1493.50L1162.50,1493.00L1163.01,1492.50L1163.50,1492.07L1164.50,1491.93L1164.99,1491.50L1165.50,1490.99L1165.93,1490.50L1166.08,1489.50L1166.50,1489.08L1167.50,1488.93L1168.00,1488.50Z" fill="#a49573" stroke="#46514c" stroke-width=".30"/><rect x="1160" y="1494.0" width="12" height="12" fill="#7e7259"/><path d="M1160 1494.00H1172" stroke="#d1c09a" stroke-width=".22"/><path d="M1160 1488.50H1172" stroke="#d1c09a" stroke-opacity=".25" stroke-width=".07"/><path d="M1160 1489.35H1172" stroke="#d1c09a" stroke-opacity=".25" stroke-width=".07"/><path d="M1160 1490.20H1172" stroke="#d1c09a" stroke-opacity=".25" stroke-width=".07"/><path d="M1160 1491.05H1172" stroke="#d1c09a" stroke-opacity=".25" stroke-width=".07"/><path d="M1160 1491.90H1172" stroke="#d1c09a" stroke-opacity=".25" stroke-width=".07"/><path d="M1160 1492.75H1172" stroke="#d1c09a" stroke-opacity=".25" stroke-width=".07"/><path d="M1160 1493.60H1172" stroke="#d1c09a" stroke-opacity=".25" stroke-width=".07"/><path d="M1160 1494.45H1172" stroke="#d1c09a" stroke-opacity=".25" stroke-width=".07"/><path d="M1160 1495.30H1172" stroke="#d1c09a" stroke-opacity=".25" stroke-width=".07"/><path d="M1160 1496.15H1172" stroke="#d1c09a" stroke-opacity=".25" stroke-width=".07"/><path d="M1160 1497.00H1172" stroke="#d1c09a" stroke-opacity=".25" stroke-width=".07"/><path d="M1160 1497.85H1172" stroke="#d1c09a" stroke-opacity=".25" stroke-width=".07"/><path d="M1160 1498.70H1172" stroke="#d1c09a" stroke-opacity=".25" stroke-width=".07"/><path d="M1160 1499.55H1172" stroke="#d1c09a" stroke-opacity=".25" stroke-width=".07"/><rect x="1165.00" y="1492.60" width="1.2" height=".75" rx=".08" fill="#c4dadd" stroke="#7e7259" stroke-width=".15"/><path d="M1165.60 1492.60v.75" stroke="#748995" stroke-width=".1"/><rect x="1161" y="1489" width="2.6" height="1.7" rx=".12" fill="#d4d6c4" stroke="#68797a" stroke-width=".12"/><circle cx="1161.7" cy="1489.8" r=".4" fill="#869490"/></g><defs><clipPath id="r29309"><path d="M1186.01,1489.50L1186.50,1489.07L1187.50,1489.07L1187.99,1489.50L1188.50,1490.00L1189.00,1490.50L1189.50,1491.09L1189.85,1491.50L1189.50,1491.91L1188.91,1492.50L1188.50,1492.85L1188.08,1492.50L1187.50,1492.07L1186.50,1491.93L1186.01,1491.50L1185.50,1490.91L1185.15,1490.50L1185.50,1490.09L1186.01,1489.50Z" fill-rule="evenodd"/></clipPath></defs><g clip-path="url(#r29309)"><path d="M1186.01,1489.50L1186.50,1489.07L1187.50,1489.07L1187.99,1489.50L1188.50,1490.00L1189.00,1490.50L1189.50,1491.09L1189.85,1491.50L1189.50,1491.91L1188.91,1492.50L1188.50,1492.85L1188.08,1492.50L1187.50,1492.07L1186.50,1491.93L1186.01,1491.50L1185.50,1490.91L1185.15,1490.50L1185.50,1490.09L1186.01,1489.50Z" fill="#a49573" stroke="#46514c" stroke-width=".30"/><rect x="1185" y="1491.0" width="5" height="4" fill="#7e7259"/><path d="M1185 1491.00H1190" stroke="#d1c09a" stroke-width=".22"/><path d="M1185 1489.50H1190" stroke="#d1c09a" stroke-opacity=".25" stroke-width=".07"/><path d="M1185 1490.35H1190" stroke="#d1c09a" stroke-opacity=".25" stroke-width=".07"/><path d="M1185 1491.20H1190" stroke="#d1c09a" stroke-opacity=".25" stroke-width=".07"/><path d="M1185 1492.05H1190" stroke="#d1c09a" stroke-opacity=".25" stroke-width=".07"/><path d="M1185 1492.90H1190" stroke="#d1c09a" stroke-opacity=".25" stroke-width=".07"/></g><defs><clipPath id="r29474"><path d="M1157.08,1495.50L1157.50,1495.15L1157.91,1495.50L1158.50,1496.01L1158.93,1496.50L1159.07,1497.50L1159.50,1498.08L1159.85,1498.50L1159.50,1498.91L1159.00,1499.50L1158.50,1500.00L1158.00,1500.50L1157.50,1501.00L1156.99,1501.50L1156.50,1501.93L1155.50,1501.92L1155.08,1501.50L1154.93,1500.50L1154.50,1500.00L1154.07,1499.50L1153.92,1498.50L1153.50,1498.01L1152.50,1497.83L1152.17,1497.50L1152.50,1497.17L1153.50,1497.00L1154.00,1496.50L1154.50,1496.07L1155.50,1496.00L1156.50,1495.93L1157.08,1495.50Z" fill-rule="evenodd"/></clipPath></defs><g clip-path="url(#r29474)"><path d="M1157.08,1495.50L1157.50,1495.15L1157.91,1495.50L1158.50,1496.01L1158.93,1496.50L1159.07,1497.50L1159.50,1498.08L1159.85,1498.50L1159.50,1498.91L1159.00,1499.50L1158.50,1500.00L1158.00,1500.50L1157.50,1501.00L1156.99,1501.50L1156.50,1501.93L1155.50,1501.92L1155.08,1501.50L1154.93,1500.50L1154.50,1500.00L1154.07,1499.50L1153.92,1498.50L1153.50,1498.01L1152.50,1497.83L1152.17,1497.50L1152.50,1497.17L1153.50,1497.00L1154.00,1496.50L1154.50,1496.07L1155.50,1496.00L1156.50,1495.93L1157.08,1495.50Z" fill="#a49573" stroke="#46514c" stroke-width=".30"/><rect x="1152" y="1498.5" width="8" height="7" fill="#7e7259"/><path d="M1152 1498.50H1160" stroke="#d1c09a" stroke-width=".22"/><path d="M1152 1495.50H1160" stroke="#d1c09a" stroke-opacity=".25" stroke-width=".07"/><path d="M1152 1496.35H1160" stroke="#d1c09a" stroke-opacity=".25" stroke-width=".07"/><path d="M1152 1497.20H1160" stroke="#d1c09a" stroke-opacity=".25" stroke-width=".07"/><path d="M1152 1498.05H1160" stroke="#d1c09a" stroke-opacity=".25" stroke-width=".07"/><path d="M1152 1498.90H1160" stroke="#d1c09a" stroke-opacity=".25" stroke-width=".07"/><path d="M1152 1499.75H1160" stroke="#d1c09a" stroke-opacity=".25" stroke-width=".07"/><path d="M1152 1500.60H1160" stroke="#d1c09a" stroke-opacity=".25" stroke-width=".07"/><path d="M1152 1501.45H1160" stroke="#d1c09a" stroke-opacity=".25" stroke-width=".07"/><rect x="1155.00" y="1497.10" width="1.2" height=".75" rx=".08" fill="#c4dadd" stroke="#7e7259" stroke-width=".15"/><path d="M1155.60 1497.10v.75" stroke="#748995" stroke-width=".1"/></g><defs><clipPath id="r29475"><path d="M1192.09,1495.50L1192.50,1495.15L1192.91,1495.50L1193.50,1496.00L1194.01,1496.50L1194.50,1496.99L1195.50,1496.94L1196.08,1496.50L1196.50,1496.15L1196.92,1496.50L1197.50,1497.00L1198.50,1497.17L1198.83,1497.50L1198.50,1497.90L1197.50,1498.10L1197.17,1498.50L1197.50,1498.84L1198.50,1499.08L1198.91,1499.50L1199.50,1500.01L1200.50,1500.08L1200.92,1500.50L1201.00,1501.50L1201.00,1502.50L1200.92,1503.50L1200.50,1503.99L1199.50,1504.17L1199.17,1504.50L1199.50,1504.83L1200.50,1505.01L1200.92,1505.50L1200.99,1506.50L1200.85,1507.50L1200.50,1507.84L1200.09,1507.50L1199.50,1507.07L1198.50,1507.07L1197.92,1507.50L1197.50,1507.85L1197.09,1507.50L1196.50,1506.99L1196.06,1506.50L1195.85,1505.50L1195.50,1505.16L1195.09,1505.50L1194.50,1505.93L1193.50,1505.93L1193.01,1505.50L1192.50,1505.00L1191.99,1504.50L1191.50,1504.07L1190.50,1504.07L1189.92,1504.50L1189.50,1504.85L1189.09,1504.50L1188.50,1504.00L1188.00,1503.50L1187.50,1502.99L1187.07,1502.50L1187.00,1501.50L1187.07,1500.50L1187.50,1500.00L1187.94,1499.50L1188.15,1498.50L1188.50,1498.16L1188.91,1498.50L1189.50,1498.99L1190.02,1499.50L1190.50,1499.92L1191.50,1499.91L1191.98,1499.50L1191.50,1499.09L1190.99,1498.50L1190.50,1497.92L1190.14,1497.50L1190.50,1497.09L1191.00,1496.50L1191.50,1496.00L1192.09,1495.50ZM1194.50,1498.21L1194.22,1498.50L1194.50,1498.78L1194.74,1498.50L1194.50,1498.21ZM1193.50,1499.20L1193.14,1499.50L1193.50,1499.86L1193.80,1499.50L1193.50,1499.20ZM1192.50,1500.12L1192.18,1500.50L1192.50,1500.81L1192.88,1500.50L1192.50,1500.12ZM1198.50,1500.01L1198.15,1500.50L1198.09,1501.50L1198.50,1501.89L1198.85,1501.50L1198.91,1500.50L1198.50,1500.01ZM1193.50,1501.16L1193.22,1501.50L1193.50,1501.74L1193.74,1501.50L1193.50,1501.16ZM1196.50,1502.17L1196.17,1502.50L1196.50,1502.83L1197.50,1502.85L1197.89,1502.50L1197.50,1502.09L1196.50,1502.17Z" fill-rule="evenodd"/></clipPath></defs><g clip-path="url(#r29475)"><path d="M1192.09,1495.50L1192.50,1495.15L1192.91,1495.50L1193.50,1496.00L1194.01,1496.50L1194.50,1496.99L1195.50,1496.94L1196.08,1496.50L1196.50,1496.15L1196.92,1496.50L1197.50,1497.00L1198.50,1497.17L1198.83,1497.50L1198.50,1497.90L1197.50,1498.10L1197.17,1498.50L1197.50,1498.84L1198.50,1499.08L1198.91,1499.50L1199.50,1500.01L1200.50,1500.08L1200.92,1500.50L1201.00,1501.50L1201.00,1502.50L1200.92,1503.50L1200.50,1503.99L1199.50,1504.17L1199.17,1504.50L1199.50,1504.83L1200.50,1505.01L1200.92,1505.50L1200.99,1506.50L1200.85,1507.50L1200.50,1507.84L1200.09,1507.50L1199.50,1507.07L1198.50,1507.07L1197.92,1507.50L1197.50,1507.85L1197.09,1507.50L1196.50,1506.99L1196.06,1506.50L1195.85,1505.50L1195.50,1505.16L1195.09,1505.50L1194.50,1505.93L1193.50,1505.93L1193.01,1505.50L1192.50,1505.00L1191.99,1504.50L1191.50,1504.07L1190.50,1504.07L1189.92,1504.50L1189.50,1504.85L1189.09,1504.50L1188.50,1504.00L1188.00,1503.50L1187.50,1502.99L1187.07,1502.50L1187.00,1501.50L1187.07,1500.50L1187.50,1500.00L1187.94,1499.50L1188.15,1498.50L1188.50,1498.16L1188.91,1498.50L1189.50,1498.99L1190.02,1499.50L1190.50,1499.92L1191.50,1499.91L1191.98,1499.50L1191.50,1499.09L1190.99,1498.50L1190.50,1497.92L1190.14,1497.50L1190.50,1497.09L1191.00,1496.50L1191.50,1496.00L1192.09,1495.50ZM1194.50,1498.21L1194.22,1498.50L1194.50,1498.78L1194.74,1498.50L1194.50,1498.21ZM1193.50,1499.20L1193.14,1499.50L1193.50,1499.86L1193.80,1499.50L1193.50,1499.20ZM1192.50,1500.12L1192.18,1500.50L1192.50,1500.81L1192.88,1500.50L1192.50,1500.12ZM1198.50,1500.01L1198.15,1500.50L1198.09,1501.50L1198.50,1501.89L1198.85,1501.50L1198.91,1500.50L1198.50,1500.01ZM1193.50,1501.16L1193.22,1501.50L1193.50,1501.74L1193.74,1501.50L1193.50,1501.16ZM1196.50,1502.17L1196.17,1502.50L1196.50,1502.83L1197.50,1502.85L1197.89,1502.50L1197.50,1502.09L1196.50,1502.17Z" fill="#647c93" stroke="#46514c" stroke-width=".30"/><rect x="1187" y="1501.5" width="14" height="13" fill="#445971"/><path d="M1187 1501.50H1201" stroke="#8da5b5" stroke-width=".22"/><path d="M1187 1495.50H1201" stroke="#8da5b5" stroke-opacity=".25" stroke-width=".07"/><path d="M1187 1496.35H1201" stroke="#8da5b5" stroke-opacity=".25" stroke-width=".07"/><path d="M1187 1497.20H1201" stroke="#8da5b5" stroke-opacity=".25" stroke-width=".07"/><path d="M1187 1498.05H1201" stroke="#8da5b5" stroke-opacity=".25" stroke-width=".07"/><path d="M1187 1498.90H1201" stroke="#8da5b5" stroke-opacity=".25" stroke-width=".07"/><path d="M1187 1499.75H1201" stroke="#8da5b5" stroke-opacity=".25" stroke-width=".07"/><path d="M1187 1500.60H1201" stroke="#8da5b5" stroke-opacity=".25" stroke-width=".07"/><path d="M1187 1501.45H1201" stroke="#8da5b5" stroke-opacity=".25" stroke-width=".07"/><path d="M1187 1502.30H1201" stroke="#8da5b5" stroke-opacity=".25" stroke-width=".07"/><path d="M1187 1503.15H1201" stroke="#8da5b5" stroke-opacity=".25" stroke-width=".07"/><path d="M1187 1504.00H1201" stroke="#8da5b5" stroke-opacity=".25" stroke-width=".07"/><path d="M1187 1504.85H1201" stroke="#8da5b5" stroke-opacity=".25" stroke-width=".07"/><path d="M1187 1505.70H1201" stroke="#8da5b5" stroke-opacity=".25" stroke-width=".07"/><path d="M1187 1506.55H1201" stroke="#8da5b5" stroke-opacity=".25" stroke-width=".07"/><path d="M1187 1507.40H1201" stroke="#8da5b5" stroke-opacity=".25" stroke-width=".07"/><rect x="1193.00" y="1500.10" width="1.2" height=".75" rx=".08" fill="#c4dadd" stroke="#445971" stroke-width=".15"/><path d="M1193.60 1500.10v.75" stroke="#748995" stroke-width=".1"/><rect x="1188" y="1496" width="2.6" height="1.7" rx=".12" fill="#d4d6c4" stroke="#68797a" stroke-width=".12"/><circle cx="1188.7" cy="1496.8" r=".4" fill="#869490"/></g><defs><clipPath id="r29564"><path d="M1151.17,1498.50L1151.50,1498.17L1151.83,1498.50L1152.00,1499.50L1152.50,1500.00L1152.93,1500.50L1153.07,1501.50L1153.50,1502.08L1153.85,1502.50L1153.50,1502.91L1152.99,1503.50L1152.50,1503.93L1151.50,1504.07L1151.00,1504.50L1150.50,1504.93L1149.50,1504.92L1149.08,1504.50L1148.93,1503.50L1148.50,1503.00L1148.07,1502.50L1148.07,1501.50L1148.50,1501.01L1149.01,1500.50L1149.50,1500.07L1150.50,1499.92L1150.99,1499.50L1151.17,1498.50Z" fill-rule="evenodd"/></clipPath></defs><g clip-path="url(#r29564)"><path d="M1151.17,1498.50L1151.50,1498.17L1151.83,1498.50L1152.00,1499.50L1152.50,1500.00L1152.93,1500.50L1153.07,1501.50L1153.50,1502.08L1153.85,1502.50L1153.50,1502.91L1152.99,1503.50L1152.50,1503.93L1151.50,1504.07L1151.00,1504.50L1150.50,1504.93L1149.50,1504.92L1149.08,1504.50L1148.93,1503.50L1148.50,1503.00L1148.07,1502.50L1148.07,1501.50L1148.50,1501.01L1149.01,1500.50L1149.50,1500.07L1150.50,1499.92L1150.99,1499.50L1151.17,1498.50Z" fill="#a49573" stroke="#46514c" stroke-width=".30"/><rect x="1151.0" y="1498" width="6" height="7" fill="#7e7259"/><path d="M1151.00 1498V1505" stroke="#d1c09a" stroke-width=".22"/><path d="M1148 1498.50H1154" stroke="#d1c09a" stroke-opacity=".25" stroke-width=".07"/><path d="M1148 1499.35H1154" stroke="#d1c09a" stroke-opacity=".25" stroke-width=".07"/><path d="M1148 1500.20H1154" stroke="#d1c09a" stroke-opacity=".25" stroke-width=".07"/><path d="M1148 1501.05H1154" stroke="#d1c09a" stroke-opacity=".25" stroke-width=".07"/><path d="M1148 1501.90H1154" stroke="#d1c09a" stroke-opacity=".25" stroke-width=".07"/><path d="M1148 1502.75H1154" stroke="#d1c09a" stroke-opacity=".25" stroke-width=".07"/><path d="M1148 1503.60H1154" stroke="#d1c09a" stroke-opacity=".25" stroke-width=".07"/><path d="M1148 1504.45H1154" stroke="#d1c09a" stroke-opacity=".25" stroke-width=".07"/><rect x="1150.00" y="1500.10" width="1.2" height=".75" rx=".08" fill="#c4dadd" stroke="#7e7259" stroke-width=".15"/><path d="M1150.60 1500.10v.75" stroke="#748995" stroke-width=".1"/></g><defs><clipPath id="r29954"><path d="M1193.08,1512.50L1193.50,1512.15L1193.91,1512.50L1194.50,1513.00L1195.00,1513.50L1195.50,1514.10L1195.84,1514.50L1195.50,1514.85L1194.50,1514.99L1193.50,1515.00L1192.50,1515.00L1191.50,1515.07L1191.08,1515.50L1191.00,1516.50L1190.92,1517.50L1190.50,1517.92L1189.50,1518.00L1188.50,1517.99L1187.50,1517.93L1186.50,1517.83L1186.17,1517.50L1186.50,1517.17L1187.50,1517.01L1187.99,1516.50L1188.50,1515.99L1188.93,1515.50L1189.08,1514.50L1189.50,1514.08L1190.50,1513.94L1191.00,1513.50L1191.50,1513.07L1192.50,1512.93L1193.08,1512.50Z" fill-rule="evenodd"/></clipPath></defs><g clip-path="url(#r29954)"><path d="M1193.08,1512.50L1193.50,1512.15L1193.91,1512.50L1194.50,1513.00L1195.00,1513.50L1195.50,1514.10L1195.84,1514.50L1195.50,1514.85L1194.50,1514.99L1193.50,1515.00L1192.50,1515.00L1191.50,1515.07L1191.08,1515.50L1191.00,1516.50L1190.92,1517.50L1190.50,1517.92L1189.50,1518.00L1188.50,1517.99L1187.50,1517.93L1186.50,1517.83L1186.17,1517.50L1186.50,1517.17L1187.50,1517.01L1187.99,1516.50L1188.50,1515.99L1188.93,1515.50L1189.08,1514.50L1189.50,1514.08L1190.50,1513.94L1191.00,1513.50L1191.50,1513.07L1192.50,1512.93L1193.08,1512.50Z" fill="#a49573" stroke="#46514c" stroke-width=".30"/><rect x="1186" y="1515.0" width="10" height="6" fill="#7e7259"/><path d="M1186 1515.00H1196" stroke="#d1c09a" stroke-width=".22"/><path d="M1186 1512.50H1196" stroke="#d1c09a" stroke-opacity=".25" stroke-width=".07"/><path d="M1186 1513.35H1196" stroke="#d1c09a" stroke-opacity=".25" stroke-width=".07"/><path d="M1186 1514.20H1196" stroke="#d1c09a" stroke-opacity=".25" stroke-width=".07"/><path d="M1186 1515.05H1196" stroke="#d1c09a" stroke-opacity=".25" stroke-width=".07"/><path d="M1186 1515.90H1196" stroke="#d1c09a" stroke-opacity=".25" stroke-width=".07"/><path d="M1186 1516.75H1196" stroke="#d1c09a" stroke-opacity=".25" stroke-width=".07"/><path d="M1186 1517.60H1196" stroke="#d1c09a" stroke-opacity=".25" stroke-width=".07"/><rect x="1190.00" y="1513.60" width="1.2" height=".75" rx=".08" fill="#c4dadd" stroke="#7e7259" stroke-width=".15"/><path d="M1190.60 1513.60v.75" stroke="#748995" stroke-width=".1"/></g><defs><clipPath id="r30124"><path d="M1142.15,1518.50L1142.50,1518.16L1142.91,1518.50L1143.50,1518.93L1144.50,1519.08L1144.92,1519.50L1145.07,1520.50L1145.50,1521.08L1145.85,1521.50L1145.50,1521.92L1145.01,1522.50L1144.50,1523.01L1144.01,1523.50L1143.50,1524.10L1143.16,1524.50L1143.50,1524.90L1144.50,1524.93L1144.98,1524.50L1145.50,1523.99L1146.08,1523.50L1146.50,1523.14L1146.91,1523.50L1147.50,1524.00L1148.00,1524.50L1148.50,1525.00L1149.00,1525.50L1149.50,1526.00L1150.00,1526.50L1150.50,1527.00L1151.00,1527.50L1151.50,1528.01L1151.93,1528.50L1151.93,1529.50L1151.50,1529.99L1150.99,1530.50L1150.50,1530.93L1149.50,1531.00L1148.50,1530.93L1148.01,1530.50L1147.50,1530.00L1147.00,1529.50L1146.50,1528.99L1146.07,1528.50L1145.92,1527.50L1145.50,1527.08L1144.50,1527.00L1143.93,1527.50L1143.50,1528.00L1143.08,1528.50L1143.50,1529.00L1143.92,1529.50L1144.50,1530.00L1145.00,1530.50L1145.50,1531.09L1145.85,1531.50L1145.50,1531.91L1144.99,1532.50L1144.50,1532.93L1143.50,1533.00L1142.50,1533.00L1141.50,1533.00L1140.50,1532.99L1139.50,1532.85L1139.15,1532.50L1139.50,1532.00L1139.85,1531.50L1139.50,1531.15L1138.50,1531.08L1137.93,1531.50L1137.50,1531.85L1137.08,1531.50L1136.50,1531.06L1135.50,1530.85L1135.16,1530.50L1135.50,1530.01L1135.85,1529.50L1135.50,1529.09L1135.00,1528.50L1134.50,1528.00L1134.00,1527.50L1133.50,1526.91L1133.15,1526.50L1133.50,1526.09L1134.01,1525.50L1134.50,1525.07L1135.50,1524.93L1135.99,1524.50L1136.50,1524.00L1137.00,1523.50L1137.50,1522.99L1137.93,1522.50L1138.08,1521.50L1138.50,1521.08L1139.50,1520.93L1140.00,1520.50L1140.50,1520.07L1141.50,1519.92L1141.93,1519.50L1142.15,1518.50ZM1143.50,1526.21L1143.26,1526.50L1143.50,1526.85L1143.79,1526.50L1143.50,1526.21ZM1139.50,1528.28L1139.28,1528.50L1139.50,1528.72L1139.73,1528.50L1139.50,1528.28ZM1141.50,1529.09L1141.08,1529.50L1141.15,1530.50L1141.50,1530.84L1141.90,1530.50L1142.50,1529.91L1142.99,1529.50L1142.50,1529.09L1141.50,1529.09Z" fill-rule="evenodd"/></clipPath></defs><g clip-path="url(#r30124)"><path d="M1142.15,1518.50L1142.50,1518.16L1142.91,1518.50L1143.50,1518.93L1144.50,1519.08L1144.92,1519.50L1145.07,1520.50L1145.50,1521.08L1145.85,1521.50L1145.50,1521.92L1145.01,1522.50L1144.50,1523.01L1144.01,1523.50L1143.50,1524.10L1143.16,1524.50L1143.50,1524.90L1144.50,1524.93L1144.98,1524.50L1145.50,1523.99L1146.08,1523.50L1146.50,1523.14L1146.91,1523.50L1147.50,1524.00L1148.00,1524.50L1148.50,1525.00L1149.00,1525.50L1149.50,1526.00L1150.00,1526.50L1150.50,1527.00L1151.00,1527.50L1151.50,1528.01L1151.93,1528.50L1151.93,1529.50L1151.50,1529.99L1150.99,1530.50L1150.50,1530.93L1149.50,1531.00L1148.50,1530.93L1148.01,1530.50L1147.50,1530.00L1147.00,1529.50L1146.50,1528.99L1146.07,1528.50L1145.92,1527.50L1145.50,1527.08L1144.50,1527.00L1143.93,1527.50L1143.50,1528.00L1143.08,1528.50L1143.50,1529.00L1143.92,1529.50L1144.50,1530.00L1145.00,1530.50L1145.50,1531.09L1145.85,1531.50L1145.50,1531.91L1144.99,1532.50L1144.50,1532.93L1143.50,1533.00L1142.50,1533.00L1141.50,1533.00L1140.50,1532.99L1139.50,1532.85L1139.15,1532.50L1139.50,1532.00L1139.85,1531.50L1139.50,1531.15L1138.50,1531.08L1137.93,1531.50L1137.50,1531.85L1137.08,1531.50L1136.50,1531.06L1135.50,1530.85L1135.16,1530.50L1135.50,1530.01L1135.85,1529.50L1135.50,1529.09L1135.00,1528.50L1134.50,1528.00L1134.00,1527.50L1133.50,1526.91L1133.15,1526.50L1133.50,1526.09L1134.01,1525.50L1134.50,1525.07L1135.50,1524.93L1135.99,1524.50L1136.50,1524.00L1137.00,1523.50L1137.50,1522.99L1137.93,1522.50L1138.08,1521.50L1138.50,1521.08L1139.50,1520.93L1140.00,1520.50L1140.50,1520.07L1141.50,1519.92L1141.93,1519.50L1142.15,1518.50ZM1143.50,1526.21L1143.26,1526.50L1143.50,1526.85L1143.79,1526.50L1143.50,1526.21ZM1139.50,1528.28L1139.28,1528.50L1139.50,1528.72L1139.73,1528.50L1139.50,1528.28ZM1141.50,1529.09L1141.08,1529.50L1141.15,1530.50L1141.50,1530.84L1141.90,1530.50L1142.50,1529.91L1142.99,1529.50L1142.50,1529.09L1141.50,1529.09Z" fill="#a49573" stroke="#46514c" stroke-width=".30"/><rect x="1133" y="1525.5" width="19" height="15" fill="#7e7259"/><path d="M1133 1525.50H1152" stroke="#d1c09a" stroke-width=".22"/><path d="M1133 1518.50H1152" stroke="#d1c09a" stroke-opacity=".25" stroke-width=".07"/><path d="M1133 1519.35H1152" stroke="#d1c09a" stroke-opacity=".25" stroke-width=".07"/><path d="M1133 1520.20H1152" stroke="#d1c09a" stroke-opacity=".25" stroke-width=".07"/><path d="M1133 1521.05H1152" stroke="#d1c09a" stroke-opacity=".25" stroke-width=".07"/><path d="M1133 1521.90H1152" stroke="#d1c09a" stroke-opacity=".25" stroke-width=".07"/><path d="M1133 1522.75H1152" stroke="#d1c09a" stroke-opacity=".25" stroke-width=".07"/><path d="M1133 1523.60H1152" stroke="#d1c09a" stroke-opacity=".25" stroke-width=".07"/><path d="M1133 1524.45H1152" stroke="#d1c09a" stroke-opacity=".25" stroke-width=".07"/><path d="M1133 1525.30H1152" stroke="#d1c09a" stroke-opacity=".25" stroke-width=".07"/><path d="M1133 1526.15H1152" stroke="#d1c09a" stroke-opacity=".25" stroke-width=".07"/><path d="M1133 1527.00H1152" stroke="#d1c09a" stroke-opacity=".25" stroke-width=".07"/><path d="M1133 1527.85H1152" stroke="#d1c09a" stroke-opacity=".25" stroke-width=".07"/><path d="M1133 1528.70H1152" stroke="#d1c09a" stroke-opacity=".25" stroke-width=".07"/><path d="M1133 1529.55H1152" stroke="#d1c09a" stroke-opacity=".25" stroke-width=".07"/><path d="M1133 1530.40H1152" stroke="#d1c09a" stroke-opacity=".25" stroke-width=".07"/><path d="M1133 1531.25H1152" stroke="#d1c09a" stroke-opacity=".25" stroke-width=".07"/><path d="M1133 1532.10H1152" stroke="#d1c09a" stroke-opacity=".25" stroke-width=".07"/><path d="M1133 1532.95H1152" stroke="#d1c09a" stroke-opacity=".25" stroke-width=".07"/><rect x="1141.50" y="1524.10" width="1.2" height=".75" rx=".08" fill="#c4dadd" stroke="#7e7259" stroke-width=".15"/><path d="M1142.10 1524.10v.75" stroke="#748995" stroke-width=".1"/><rect x="1134" y="1519" width="2.6" height="1.7" rx=".12" fill="#d4d6c4" stroke="#68797a" stroke-width=".12"/><circle cx="1134.7" cy="1519.8" r=".4" fill="#869490"/></g><defs><clipPath id="r30441"><path d="M1151.00,1531.50L1151.50,1531.07L1152.50,1531.08L1152.92,1531.50L1152.92,1532.50L1152.50,1532.92L1151.50,1532.99L1150.50,1532.93L1149.50,1532.83L1149.17,1532.50L1149.50,1532.17L1150.50,1532.01L1151.00,1531.50Z" fill-rule="evenodd"/></clipPath></defs><g clip-path="url(#r30441)"><path d="M1151.00,1531.50L1151.50,1531.07L1152.50,1531.08L1152.92,1531.50L1152.92,1532.50L1152.50,1532.92L1151.50,1532.99L1150.50,1532.93L1149.50,1532.83L1149.17,1532.50L1149.50,1532.17L1150.50,1532.01L1151.00,1531.50Z" fill="#728f89" stroke="#46514c" stroke-width=".30"/><rect x="1149" y="1532.0" width="4" height="2" fill="#506c66"/><path d="M1149 1532.00H1153" stroke="#a2b7a0" stroke-width=".22"/><path d="M1149 1531.50H1153" stroke="#a2b7a0" stroke-opacity=".25" stroke-width=".07"/><path d="M1149 1532.35H1153" stroke="#a2b7a0" stroke-opacity=".25" stroke-width=".07"/></g></svg>