<svg xmlns="http://www.w3.org/2000/svg" width="1024" height="1024" viewBox="1472 1536 64 64"><rect x="1472" y="1536" width="64" height="64" fill="#ece8db"/><path fill="#d6dfa7" fill-rule="evenodd" d="M1468.08,1532.50L1468.50,1532.08L1469.50,1532.00L1470.50,1532.00L1471.50,1532.00L1472.50,1532.00L1473.50,1532.00L1474.50,1532.00L1475.50,1532.00L1476.50,1532.00L1477.50,1532.00L1478.50,1532.00L1479.50,1532.00L1480.50,1532.00L1481.50,1532.00L1482.50,1532.00L1483.50,1532.00L1484.50,1532.00L1485.50,1532.00L1486.50,1532.00L1487.50,1532.00L1488.50,1532.00L1489.50,1532.00L1490.50,1532.00L1491.50,1532.00L1492.50,1532.00L1493.50,1532.00L1494.50,1532.00L1495.50,1532.00L1496.50,1532.00L1497.50,1532.00L1498.50,1532.00L1499.50,1532.00L1500.50,1532.00L1501.50,1532.00L1502.50,1532.00L1503.50,1532.00L1504.50,1532.00L1505.50,1532.00L1506.50,1532.00L1507.50,1532.00L1508.50,1532.00L1509.50,1532.00L1510.50,1532.00L1511.50,1532.00L1512.50,1532.00L1513.50,1532.00L1514.50,1532.00L1515.50,1532.00L1516.50,1532.00L1517.50,1532.00L1518.50,1532.00L1519.50,1532.00L1520.50,1532.00L1521.50,1532.00L1522.50,1532.00L1523.50,1532.00L1524.50,1532.00L1525.50,1532.00L1526.50,1532.00L1527.50,1532.00L1528.50,1532.00L1529.50,1532.00L1530.50,1532.00L1531.50,1532.00L1532.50,1532.00L1533.50,1532.00L1534.50,1532.07L1535.00,1532.50L1535.50,1533.01L1536.50,1533.08L1537.50,1533.17L1537.83,1533.50L1537.50,1533.83L1536.50,1533.92L1535.50,1533.93L1534.50,1533.99L1533.50,1534.00L1532.50,1534.00L1531.50,1534.00L1530.50,1534.00L1529.50,1534.00L1528.50,1534.00L1527.50,1534.00L1526.50,1534.00L1525.50,1534.00L1524.50,1534.00L1523.50,1534.00L1522.50,1534.00L1521.50,1534.00L1520.50,1534.00L1519.50,1534.00L1518.50,1534.00L1517.50,1534.00L1516.50,1534.00L1515.50,1534.00L1514.50,1534.00L1513.50,1534.00L1512.50,1534.00L1511.50,1534.00L1510.50,1534.00L1509.50,1534.00L1508.50,1534.00L1507.50,1534.00L1506.50,1534.00L1505.50,1534.00L1504.50,1534.00L1503.50,1534.00L1502.50,1534.00L1501.50,1534.00L1500.50,1534.00L1499.50,1534.00L1498.50,1534.00L1497.50,1534.00L1496.50,1534.00L1495.50,1534.00L1494.50,1534.00L1493.50,1534.00L1492.50,1534.00L1491.50,1534.00L1490.50,1534.00L1489.50,1534.00L1488.50,1534.00L1487.50,1534.00L1486.50,1534.00L1485.50,1534.00L1484.50,1534.00L1483.50,1534.00L1482.50,1534.00L1481.50,1534.00L1480.50,1534.00L1479.50,1534.00L1478.50,1534.00L1477.50,1534.00L1476.50,1534.08L1476.08,1534.50L1476.00,1535.50L1476.00,1536.50L1475.92,1537.50L1475.50,1537.92L1474.50,1538.00L1473.50,1538.00L1472.50,1538.00L1471.50,1538.00L1470.50,1538.00L1469.50,1537.93L1469.01,1537.50L1468.50,1536.99L1468.07,1536.50L1468.00,1535.50L1468.00,1534.50L1468.00,1533.50L1468.08,1532.50Z"/><path fill="#adb8b8" fill-rule="evenodd" d="M1468.15,1532.50L1468.50,1532.16L1468.91,1532.50L1469.50,1532.93L1470.50,1533.07L1470.99,1533.50L1471.50,1534.00L1472.00,1534.50L1472.50,1535.00L1473.00,1535.50L1473.50,1536.10L1473.84,1536.50L1473.50,1536.85L1472.50,1536.99L1471.50,1537.00L1470.50,1537.00L1469.50,1536.93L1469.01,1536.50L1468.50,1535.99L1468.07,1535.50L1468.00,1534.50L1468.01,1533.50L1468.15,1532.50ZM1515.08,1532.50L1515.50,1532.08L1516.50,1532.00L1517.50,1532.00L1518.50,1532.01L1519.50,1532.15L1519.84,1532.50L1519.50,1532.90L1518.99,1533.50L1518.50,1533.93L1517.50,1534.00L1516.50,1534.00L1515.50,1533.92L1515.08,1533.50L1515.08,1532.50Z"/></svg>