<svg xmlns="http://www.w3.org/2000/svg" width="1024" height="1024" viewBox="1664 256 64 64"><rect x="1664" y="256" width="64" height="64" fill="#ece8db"/><path fill="#d6dfa7" fill-rule="evenodd" d="M1660.08,302.50L1660.50,302.08L1661.50,302.00L1662.50,302.00L1663.50,302.00L1664.50,302.00L1665.50,302.00L1666.50,302.00L1667.50,302.00L1668.50,302.00L1669.50,302.00L1670.50,302.00L1671.50,302.00L1672.50,302.08L1672.92,302.50L1673.00,303.50L1673.00,304.50L1673.00,305.50L1673.00,306.50L1673.00,307.50L1673.00,308.50L1673.00,309.50L1673.00,310.50L1673.08,311.50L1673.50,311.92L1674.50,312.00L1675.50,312.00L1676.50,312.00L1677.50,312.00L1678.50,312.00L1679.50,312.00L1680.50,312.00L1681.50,312.00L1682.50,312.00L1683.50,312.00L1684.50,312.00L1685.50,312.00L1686.50,312.00L1687.50,312.00L1688.50,312.07L1688.99,312.50L1689.50,313.01L1689.93,313.50L1690.00,314.50L1690.00,315.50L1690.00,316.50L1690.00,317.50L1690.00,318.50L1690.00,319.50L1690.00,320.50L1690.00,321.50L1690.00,322.50L1689.92,323.50L1689.50,323.92L1688.50,324.00L1687.50,324.00L1686.50,324.00L1685.50,324.00L1684.50,324.00L1683.50,324.00L1682.50,324.00L1681.50,324.00L1680.50,324.00L1679.50,324.00L1678.50,324.00L1677.50,324.00L1676.50,324.00L1675.50,324.00L1674.50,324.00L1673.50,324.00L1672.50,324.00L1671.50,324.00L1670.50,324.00L1669.50,324.00L1668.50,324.00L1667.50,324.00L1666.50,324.00L1665.50,324.00L1664.50,324.00L1663.50,324.00L1662.50,324.00L1661.50,324.00L1660.50,323.92L1660.08,323.50L1660.00,322.50L1660.00,321.50L1660.00,320.50L1660.00,319.50L1660.00,318.50L1660.00,317.50L1660.00,316.50L1660.00,315.50L1660.00,314.50L1660.00,313.50L1660.00,312.50L1660.00,311.50L1660.00,310.50L1660.00,309.50L1660.00,308.50L1660.00,307.50L1660.00,306.50L1660.00,305.50L1660.00,304.50L1660.00,303.50L1660.08,302.50Z"/><path fill="#adb8b8" fill-rule="evenodd" d="M1660.17,304.50L1660.50,304.17L1660.83,304.50L1660.99,305.50L1661.50,306.00L1661.93,306.50L1661.99,307.50L1662.00,308.50L1662.50,309.01L1662.92,309.50L1663.00,310.50L1663.50,310.99L1664.00,311.50L1664.50,312.01L1664.93,312.50L1665.07,313.50L1665.50,314.00L1665.93,314.50L1666.07,315.50L1666.50,316.00L1666.93,316.50L1666.99,317.50L1667.00,318.50L1667.50,319.01L1667.92,319.50L1668.00,320.50L1668.50,321.01L1668.92,321.50L1669.00,322.50L1669.50,323.09L1669.84,323.50L1669.50,323.85L1668.50,323.91L1668.09,323.50L1668.00,322.50L1667.50,321.99L1667.08,321.50L1667.00,320.50L1666.50,319.99L1666.08,319.50L1666.00,318.50L1665.50,318.01L1665.00,317.50L1664.50,316.99L1664.07,316.50L1663.93,315.50L1663.50,315.00L1663.07,314.50L1662.93,313.50L1662.50,313.00L1662.07,312.50L1662.01,311.50L1662.00,310.50L1661.50,309.99L1661.08,309.50L1661.00,308.50L1660.50,308.00L1660.07,307.50L1660.01,306.50L1660.07,305.50L1660.17,304.50Z"/><defs><clipPath id="r3077"><path d="M1661.02,313.50L1661.50,313.08L1662.50,313.15L1662.84,313.50L1662.50,313.99L1662.14,314.50L1662.50,314.92L1662.93,315.50L1663.07,316.50L1663.50,316.99L1664.00,317.50L1664.50,318.00L1665.00,318.50L1665.50,319.01L1665.93,319.50L1666.07,320.50L1666.50,321.08L1666.85,321.50L1666.50,321.91L1665.99,322.50L1665.50,322.93L1664.50,323.00L1663.50,323.00L1662.50,323.07L1661.91,323.50L1661.50,323.84L1661.15,323.50L1660.94,322.50L1660.50,322.00L1660.07,321.50L1660.00,320.50L1659.93,319.50L1659.50,319.01L1659.00,318.50L1658.50,317.99L1658.07,317.50L1657.93,316.50L1657.50,315.91L1657.16,315.50L1657.50,315.15L1658.50,315.01L1659.50,314.93L1659.99,314.50L1660.50,314.00L1661.02,313.50Z" fill-rule="evenodd"/></clipPath></defs><g clip-path="url(#r3077)"><path d="M1661.02,313.50L1661.50,313.08L1662.50,313.15L1662.84,313.50L1662.50,313.99L1662.14,314.50L1662.50,314.92L1662.93,315.50L1663.07,316.50L1663.50,316.99L1664.00,317.50L1664.50,318.00L1665.00,318.50L1665.50,319.01L1665.93,319.50L1666.07,320.50L1666.50,321.08L1666.85,321.50L1666.50,321.91L1665.99,322.50L1665.50,322.93L1664.50,323.00L1663.50,323.00L1662.50,323.07L1661.91,323.50L1661.50,323.84L1661.15,323.50L1660.94,322.50L1660.50,322.00L1660.07,321.50L1660.00,320.50L1659.93,319.50L1659.50,319.01L1659.00,318.50L1658.50,317.99L1658.07,317.50L1657.93,316.50L1657.50,315.91L1657.16,315.50L1657.50,315.15L1658.50,315.01L1659.50,314.93L1659.99,314.50L1660.50,314.00L1661.02,313.50Z" fill="#747b87" stroke="#46514c" stroke-width=".30"/><rect x="1662.0" y="313" width="10" height="11" fill="#545b68"/><path d="M1662.00 313V324" stroke="#9ca8b3" stroke-width=".22"/><path d="M1657 313.50H1667" stroke="#9ca8b3" stroke-opacity=".25" stroke-width=".07"/><path d="M1657 314.35H1667" stroke="#9ca8b3" stroke-opacity=".25" stroke-width=".07"/><path d="M1657 315.20H1667" stroke="#9ca8b3" stroke-opacity=".25" stroke-width=".07"/><path d="M1657 316.05H1667" stroke="#9ca8b3" stroke-opacity=".25" stroke-width=".07"/><path d="M1657 316.90H1667" stroke="#9ca8b3" stroke-opacity=".25" stroke-width=".07"/><path d="M1657 317.75H1667" stroke="#9ca8b3" stroke-opacity=".25" stroke-width=".07"/><path d="M1657 318.60H1667" stroke="#9ca8b3" stroke-opacity=".25" stroke-width=".07"/><path d="M1657 319.45H1667" stroke="#9ca8b3" stroke-opacity=".25" stroke-width=".07"/><path d="M1657 320.30H1667" stroke="#9ca8b3" stroke-opacity=".25" stroke-width=".07"/><path d="M1657 321.15H1667" stroke="#9ca8b3" stroke-opacity=".25" stroke-width=".07"/><path d="M1657 322.00H1667" stroke="#9ca8b3" stroke-opacity=".25" stroke-width=".07"/><path d="M1657 322.85H1667" stroke="#9ca8b3" stroke-opacity=".25" stroke-width=".07"/><path d="M1657 323.70H1667" stroke="#9ca8b3" stroke-opacity=".25" stroke-width=".07"/><rect x="1661.00" y="317.10" width="1.2" height=".75" rx=".08" fill="#c4dadd" stroke="#545b68" stroke-width=".15"/><path d="M1661.60 317.10v.75" stroke="#748995" stroke-width=".1"/><rect x="1658" y="314" width="2.6" height="1.7" rx=".12" fill="#d4d6c4" stroke="#68797a" stroke-width=".12"/><circle cx="1658.7" cy="314.8" r=".4" fill="#869490"/></g></svg>