<svg xmlns="http://www.w3.org/2000/svg" width="1024" height="1024" viewBox="256 1792 64 64"><rect x="256" y="1792" width="64" height="64" fill="#ece8db"/><path fill="#d6dfa7" fill-rule="evenodd" d="M252.08,1788.50L252.50,1788.08L253.50,1788.00L254.50,1788.00L255.50,1788.00L256.50,1788.00L257.50,1788.00L258.50,1788.00L259.50,1788.00L260.50,1788.00L261.50,1788.00L262.50,1788.00L263.50,1788.00L264.50,1788.00L265.50,1788.00L266.50,1788.00L267.50,1788.00L268.50,1788.00L269.50,1788.00L270.50,1788.00L271.50,1788.00L272.50,1788.00L273.50,1788.00L274.50,1788.00L275.50,1788.00L276.50,1788.00L277.50,1788.00L278.50,1788.00L279.50,1788.00L280.50,1788.00L281.50,1788.00L282.50,1788.00L283.50,1788.00L284.50,1788.00L285.50,1788.00L286.50,1788.00L287.50,1788.00L288.50,1788.00L289.50,1788.00L290.50,1788.00L291.50,1788.00L292.50,1788.00L293.50,1788.00L294.50,1788.00L295.50,1788.00L296.50,1788.00L297.50,1788.00L298.50,1788.00L299.50,1788.00L300.50,1788.00L301.50,1788.00L302.50,1788.00L303.50,1788.00L304.50,1788.00L305.50,1788.00L306.50,1788.00L307.50,1788.00L308.50,1788.00L309.50,1788.00L310.50,1788.00L311.50,1788.00L312.50,1788.00L313.50,1788.00L314.50,1788.00L315.50,1788.00L316.50,1788.00L317.50,1788.00L318.50,1788.00L319.50,1788.00L320.50,1788.00L321.50,1788.00L322.50,1788.00L323.50,1788.08L323.92,1788.50L324.00,1789.50L324.00,1790.50L324.00,1791.50L324.00,1792.50L324.00,1793.50L324.00,1794.50L324.00,1795.50L324.00,1796.50L324.00,1797.50L324.00,1798.50L324.00,1799.50L324.00,1800.50L324.00,1801.50L324.00,1802.50L324.00,1803.50L324.00,1804.50L324.00,1805.50L324.00,1806.50L324.00,1807.50L324.00,1808.50L324.00,1809.50L324.00,1810.50L324.00,1811.50L324.00,1812.50L324.00,1813.50L324.00,1814.50L324.00,1815.50L324.00,1816.50L324.00,1817.50L324.00,1818.50L324.00,1819.50L324.00,1820.50L324.00,1821.50L324.00,1822.50L324.00,1823.50L324.00,1824.50L324.00,1825.50L324.00,1826.50L324.00,1827.50L324.00,1828.50L324.00,1829.50L324.00,1830.50L324.00,1831.50L324.00,1832.50L324.00,1833.50L324.00,1834.50L324.00,1835.50L324.00,1836.50L324.00,1837.50L324.00,1838.50L324.00,1839.50L324.00,1840.50L324.00,1841.50L324.00,1842.50L324.00,1843.50L324.00,1844.50L324.00,1845.50L324.00,1846.50L324.00,1847.50L324.00,1848.50L324.00,1849.50L324.00,1850.50L324.00,1851.50L324.00,1852.50L324.00,1853.50L323.99,1854.50L323.85,1855.50L323.50,1855.84L323.09,1855.50L322.50,1855.07L321.50,1855.00L320.50,1855.00L319.50,1855.00L318.50,1855.00L317.50,1855.00L316.50,1855.00L315.50,1855.00L314.50,1854.92L314.08,1854.50L314.00,1853.50L314.00,1852.50L314.00,1851.50L314.00,1850.50L314.00,1849.50L314.00,1848.50L314.00,1847.50L314.00,1846.50L314.00,1845.50L313.92,1844.50L313.50,1844.08L312.50,1844.00L311.50,1844.00L310.50,1844.00L309.50,1844.00L308.50,1844.00L307.50,1844.00L306.50,1844.00L305.50,1844.00L304.50,1844.00L303.50,1843.92L303.08,1843.50L303.00,1842.50L303.00,1841.50L302.92,1840.50L302.50,1840.08L301.50,1840.00L300.50,1840.00L299.50,1839.92L299.08,1839.50L299.00,1838.50L299.00,1837.50L299.00,1836.50L299.00,1835.50L299.00,1834.50L299.00,1833.50L299.00,1832.50L299.00,1831.50L299.00,1830.50L299.00,1829.50L298.92,1828.50L298.50,1828.08L297.50,1828.00L296.50,1828.00L295.50,1828.00L294.50,1828.00L293.50,1828.00L292.50,1828.00L291.50,1828.00L290.50,1828.00L289.50,1828.00L288.50,1828.00L287.50,1827.92L287.08,1827.50L287.00,1826.50L287.00,1825.50L287.00,1824.50L287.00,1823.50L287.00,1822.50L287.00,1821.50L287.00,1820.50L287.00,1819.50L287.00,1818.50L287.00,1817.50L287.00,1816.50L287.00,1815.50L287.00,1814.50L287.00,1813.50L286.92,1812.50L286.50,1812.08L285.50,1812.00L284.50,1812.00L283.50,1812.00L282.50,1812.00L281.50,1812.00L280.50,1812.00L279.50,1812.00L278.50,1812.00L277.50,1812.00L276.50,1812.00L275.50,1812.00L274.50,1812.00L273.50,1812.00L272.50,1812.00L271.50,1811.93L271.00,1811.50L270.50,1811.07L269.50,1811.00L268.50,1810.92L268.08,1810.50L268.00,1809.50L268.00,1808.50L268.00,1807.50L268.00,1806.50L268.00,1805.50L268.00,1804.50L268.00,1803.50L268.00,1802.50L268.00,1801.50L268.00,1800.50L268.00,1799.50L268.00,1798.50L267.92,1797.50L267.50,1797.08L266.50,1797.00L265.50,1797.00L264.50,1797.00L263.50,1797.00L262.50,1797.00L261.50,1797.00L260.50,1797.00L259.50,1797.00L258.50,1797.00L257.50,1797.00L256.50,1797.00L255.50,1797.00L254.50,1796.93L254.01,1796.50L253.50,1796.00L253.00,1795.50L252.50,1794.99L252.07,1794.50L252.00,1793.50L252.00,1792.50L252.00,1791.50L252.00,1790.50L252.00,1789.50L252.08,1788.50Z"/><path fill="#7fbabf" fill-rule="evenodd" d="M296.28,1791.50L296.50,1791.28L296.72,1791.50L296.50,1791.72L296.28,1791.50Z"/><path fill="#adb8b8" fill-rule="evenodd" d="M282.16,1788.50L282.50,1788.15L283.50,1788.08L283.98,1788.50L284.50,1789.00L285.00,1789.50L285.50,1790.02L285.92,1790.50L286.00,1791.50L286.50,1792.00L286.93,1792.50L287.06,1793.50L287.50,1794.01L287.92,1794.50L288.00,1795.50L288.50,1796.00L288.99,1796.50L289.50,1797.02L289.92,1797.50L290.00,1798.50L290.50,1798.99L291.01,1799.50L291.50,1799.93L292.50,1799.93L293.00,1799.50L293.50,1799.07L294.50,1798.92L294.92,1798.50L295.08,1797.50L295.50,1797.08L296.50,1796.93L296.99,1796.50L297.50,1795.99L297.93,1795.50L297.93,1794.50L297.50,1794.01L297.00,1793.50L296.50,1792.92L296.08,1792.50L296.50,1791.87L296.76,1791.50L296.50,1791.19L296.00,1791.50L295.50,1791.80L295.25,1791.50L295.50,1791.13L295.93,1790.50L295.50,1790.07L295.01,1789.50L294.50,1788.90L294.16,1788.50L294.50,1788.15L295.50,1788.08L295.98,1788.50L296.50,1789.01L296.99,1789.50L297.50,1790.01L297.99,1790.50L298.50,1791.01L298.93,1791.50L299.08,1792.50L299.50,1792.92L300.50,1792.93L300.99,1792.50L301.50,1792.00L302.00,1791.50L302.50,1791.00L303.00,1790.50L303.50,1790.00L304.01,1789.50L304.50,1789.07L305.50,1788.93L306.00,1788.50L306.50,1788.07L307.50,1788.01L308.50,1788.15L308.84,1788.50L308.50,1788.90L308.00,1789.50L307.50,1790.01L307.07,1790.50L306.93,1791.50L306.50,1791.99L306.00,1792.50L305.50,1793.00L304.99,1793.50L304.50,1793.93L303.50,1794.07L303.01,1794.50L302.50,1795.00L302.00,1795.50L301.50,1796.00L301.00,1796.50L300.50,1797.00L300.00,1797.50L299.50,1798.00L299.00,1798.50L298.50,1799.00L297.99,1799.50L297.50,1799.93L296.50,1800.07L296.01,1800.50L295.50,1801.00L295.00,1801.50L294.50,1802.00L294.00,1802.50L293.50,1803.00L292.99,1803.50L292.50,1803.93L291.50,1804.07L291.01,1804.50L290.50,1805.00L289.99,1805.50L289.50,1805.93L288.50,1806.07L288.00,1806.50L287.50,1806.93L286.50,1807.07L286.01,1807.50L285.50,1808.00L284.99,1808.50L284.50,1808.93L283.50,1809.07L283.01,1809.50L282.50,1810.00L281.99,1810.50L281.50,1810.93L280.50,1811.00L279.50,1811.00L278.50,1810.99L277.50,1810.85L277.16,1810.50L277.50,1810.10L278.01,1809.50L278.50,1809.07L279.50,1808.93L279.99,1808.50L280.50,1808.00L281.00,1807.50L281.50,1807.00L282.01,1806.50L282.50,1806.07L283.50,1805.93L284.00,1805.50L284.50,1805.07L285.50,1804.93L286.00,1804.50L286.50,1804.07L287.50,1803.93L287.99,1803.50L288.50,1802.99L288.93,1802.50L289.00,1801.50L289.00,1800.50L289.01,1799.50L289.00,1798.50L288.50,1798.00L288.01,1797.50L287.50,1796.98L287.08,1796.50L287.00,1795.50L286.50,1795.00L286.01,1794.50L285.50,1793.99L285.07,1793.50L285.01,1792.50L284.99,1791.50L284.50,1791.07L283.50,1790.92L283.08,1790.50L282.94,1789.50L282.50,1788.91L282.16,1788.50ZM322.02,1788.50L322.50,1788.08L323.50,1788.15L323.84,1788.50L323.50,1788.90L322.98,1789.50L322.50,1789.92L321.50,1789.85L321.16,1789.50L321.50,1789.10L322.02,1788.50ZM323.09,1802.50L323.50,1802.16L323.85,1802.50L323.92,1803.50L323.50,1803.98L323.00,1804.50L322.50,1805.00L321.99,1805.50L321.50,1805.93L320.50,1806.06L320.00,1806.50L319.50,1806.99L319.00,1807.50L318.50,1808.00L318.00,1808.50L317.50,1809.00L316.99,1809.50L316.50,1809.93L315.50,1810.07L315.01,1810.50L314.50,1811.00L313.99,1811.50L313.50,1811.93L312.50,1812.06L312.01,1812.50L311.50,1813.00L311.00,1813.50L310.50,1814.00L309.99,1814.50L309.50,1814.93L308.50,1815.07L308.01,1815.50L307.50,1816.00L306.90,1816.50L306.50,1816.84L306.15,1816.50L306.01,1815.50L306.07,1814.50L306.50,1814.01L307.01,1813.50L307.50,1813.07L308.50,1812.93L308.99,1812.50L309.50,1812.00L310.01,1811.50L310.50,1811.07L311.50,1810.94L311.99,1810.50L312.50,1810.00L313.00,1809.50L313.50,1809.00L314.01,1808.50L314.50,1808.07L315.50,1807.93L315.99,1807.50L316.50,1807.00L317.01,1806.50L317.50,1806.07L318.50,1805.94L319.00,1805.50L319.50,1805.01L320.00,1804.50L320.50,1804.00L321.01,1803.50L321.50,1803.07L322.50,1802.94L323.09,1802.50Z"/><defs><clipPath id="r34126"><path d="M349.09,1767.50L349.50,1767.15L349.91,1767.50L350.50,1768.00L351.00,1768.50L351.50,1769.01L351.93,1769.50L352.07,1770.50L352.50,1770.99L353.00,1771.50L353.50,1772.09L353.85,1772.50L353.50,1772.91L352.99,1773.50L352.50,1773.93L351.50,1774.07L351.00,1774.50L350.50,1774.93L349.50,1775.07L349.01,1775.50L348.50,1776.00L348.00,1776.50L347.50,1777.00L346.92,1777.50L346.50,1777.92L346.00,1778.50L345.93,1779.50L345.50,1779.99L344.92,1780.50L344.50,1780.92L344.00,1781.50L343.92,1782.50L343.50,1782.92L342.50,1783.07L342.00,1783.50L341.50,1783.93L340.50,1784.07L340.01,1784.50L339.50,1785.00L338.90,1785.50L338.50,1785.84L338.15,1785.50L337.94,1784.50L337.50,1784.01L336.99,1783.50L336.50,1783.07L335.50,1783.07L335.01,1783.50L334.50,1784.00L333.99,1784.50L333.50,1785.09L333.10,1785.50L333.50,1785.85L334.50,1786.07L334.92,1786.50L335.00,1787.50L334.93,1788.50L334.50,1788.99L334.00,1789.50L333.50,1790.00L332.99,1790.50L332.50,1790.93L331.50,1791.00L330.50,1791.07L330.01,1791.50L329.50,1792.00L329.00,1792.50L328.50,1793.00L327.99,1793.50L327.50,1793.93L326.50,1794.07L326.01,1794.50L325.50,1795.00L325.00,1795.50L324.50,1796.00L323.99,1796.50L323.50,1796.93L322.50,1797.00L321.93,1797.50L321.50,1798.01L321.15,1798.50L321.50,1799.00L321.85,1799.50L321.50,1799.91L321.00,1800.50L320.50,1801.00L319.99,1801.50L319.50,1801.93L318.50,1802.07L318.00,1802.50L317.50,1802.93L316.50,1802.93L316.01,1802.50L315.50,1802.00L314.99,1801.50L314.50,1801.05L313.50,1800.85L313.16,1800.50L313.50,1800.10L314.08,1799.50L314.50,1799.08L315.00,1798.50L315.01,1797.50L314.99,1796.50L314.50,1796.01L314.00,1795.50L313.50,1794.91L313.15,1794.50L313.50,1794.09L314.00,1793.50L314.50,1793.00L315.00,1792.50L315.50,1792.00L316.10,1791.50L316.50,1791.16L316.85,1791.50L317.06,1792.50L317.50,1792.99L318.01,1793.50L318.50,1793.93L319.50,1793.94L319.99,1793.50L320.50,1793.00L321.00,1792.50L321.50,1791.91L321.85,1791.50L321.50,1790.99L321.16,1790.50L321.50,1790.15L322.50,1789.94L323.08,1789.50L323.50,1789.15L324.00,1789.50L324.50,1789.85L324.91,1789.50L325.50,1789.00L326.00,1788.50L326.50,1788.00L327.01,1787.50L327.50,1787.01L328.01,1786.50L328.50,1786.07L329.50,1786.00L330.50,1786.06L331.09,1786.50L331.50,1786.84L331.85,1786.50L331.98,1785.50L331.50,1784.92L331.16,1784.50L331.50,1784.15L332.50,1783.94L332.93,1783.50L333.07,1782.50L333.50,1782.01L334.00,1781.50L334.50,1780.99L334.93,1780.50L335.07,1779.50L335.50,1779.01L336.09,1778.50L336.50,1778.15L337.00,1778.50L337.50,1778.90L337.91,1778.50L338.06,1777.50L338.50,1777.01L339.00,1776.50L339.50,1776.00L340.00,1775.50L340.50,1775.00L341.09,1774.50L341.50,1774.15L341.92,1774.50L342.50,1774.99L343.10,1775.50L343.50,1775.84L343.85,1775.50L343.92,1774.50L343.50,1774.01L343.06,1773.50L343.08,1772.50L343.50,1772.08L344.50,1771.92L344.93,1771.50L345.15,1770.50L345.50,1770.16L345.91,1770.50L346.50,1770.93L347.50,1770.93L347.99,1770.50L348.50,1769.91L348.85,1769.50L348.50,1769.00L348.15,1768.50L348.50,1768.09L349.09,1767.50ZM345.50,1777.26L345.26,1777.50L345.50,1777.79L345.85,1777.50L345.50,1777.26ZM338.50,1779.21L338.22,1779.50L338.50,1779.74L338.74,1779.50L338.50,1779.21ZM343.50,1780.26L343.26,1780.50L343.50,1780.79L343.85,1780.50L343.50,1780.26ZM328.50,1788.27L328.27,1788.50L328.50,1788.72L328.72,1788.50L328.50,1788.27ZM320.50,1795.26L320.26,1795.50L320.50,1795.78L320.78,1795.50L320.50,1795.26ZM316.50,1796.28L316.23,1796.50L316.50,1796.72L316.72,1796.50L316.50,1796.28ZM321.50,1796.20L321.20,1796.50L321.50,1796.87L321.81,1796.50L321.50,1796.20ZM315.50,1799.21L315.14,1799.50L315.50,1799.74L315.74,1799.50L315.50,1799.21Z" fill-rule="evenodd"/></clipPath></defs><g clip-path="url(#r34126)"><path d="M349.09,1767.50L349.50,1767.15L349.91,1767.50L350.50,1768.00L351.00,1768.50L351.50,1769.01L351.93,1769.50L352.07,1770.50L352.50,1770.99L353.00,1771.50L353.50,1772.09L353.85,1772.50L353.50,1772.91L352.99,1773.50L352.50,1773.93L351.50,1774.07L351.00,1774.50L350.50,1774.93L349.50,1775.07L349.01,1775.50L348.50,1776.00L348.00,1776.50L347.50,1777.00L346.92,1777.50L346.50,1777.92L346.00,1778.50L345.93,1779.50L345.50,1779.99L344.92,1780.50L344.50,1780.92L344.00,1781.50L343.92,1782.50L343.50,1782.92L342.50,1783.07L342.00,1783.50L341.50,1783.93L340.50,1784.07L340.01,1784.50L339.50,1785.00L338.90,1785.50L338.50,1785.84L338.15,1785.50L337.94,1784.50L337.50,1784.01L336.99,1783.50L336.50,1783.07L335.50,1783.07L335.01,1783.50L334.50,1784.00L333.99,1784.50L333.50,1785.09L333.10,1785.50L333.50,1785.85L334.50,1786.07L334.92,1786.50L335.00,1787.50L334.93,1788.50L334.50,1788.99L334.00,1789.50L333.50,1790.00L332.99,1790.50L332.50,1790.93L331.50,1791.00L330.50,1791.07L330.01,1791.50L329.50,1792.00L329.00,1792.50L328.50,1793.00L327.99,1793.50L327.50,1793.93L326.50,1794.07L326.01,1794.50L325.50,1795.00L325.00,1795.50L324.50,1796.00L323.99,1796.50L323.50,1796.93L322.50,1797.00L321.93,1797.50L321.50,1798.01L321.15,1798.50L321.50,1799.00L321.85,1799.50L321.50,1799.91L321.00,1800.50L320.50,1801.00L319.99,1801.50L319.50,1801.93L318.50,1802.07L318.00,1802.50L317.50,1802.93L316.50,1802.93L316.01,1802.50L315.50,1802.00L314.99,1801.50L314.50,1801.05L313.50,1800.85L313.16,1800.50L313.50,1800.10L314.08,1799.50L314.50,1799.08L315.00,1798.50L315.01,1797.50L314.99,1796.50L314.50,1796.01L314.00,1795.50L313.50,1794.91L313.15,1794.50L313.50,1794.09L314.00,1793.50L314.50,1793.00L315.00,1792.50L315.50,1792.00L316.10,1791.50L316.50,1791.16L316.85,1791.50L317.06,1792.50L317.50,1792.99L318.01,1793.50L318.50,1793.93L319.50,1793.94L319.99,1793.50L320.50,1793.00L321.00,1792.50L321.50,1791.91L321.85,1791.50L321.50,1790.99L321.16,1790.50L321.50,1790.15L322.50,1789.94L323.08,1789.50L323.50,1789.15L324.00,1789.50L324.50,1789.85L324.91,1789.50L325.50,1789.00L326.00,1788.50L326.50,1788.00L327.01,1787.50L327.50,1787.01L328.01,1786.50L328.50,1786.07L329.50,1786.00L330.50,1786.06L331.09,1786.50L331.50,1786.84L331.85,1786.50L331.98,1785.50L331.50,1784.92L331.16,1784.50L331.50,1784.15L332.50,1783.94L332.93,1783.50L333.07,1782.50L333.50,1782.01L334.00,1781.50L334.50,1780.99L334.93,1780.50L335.07,1779.50L335.50,1779.01L336.09,1778.50L336.50,1778.15L337.00,1778.50L337.50,1778.90L337.91,1778.50L338.06,1777.50L338.50,1777.01L339.00,1776.50L339.50,1776.00L340.00,1775.50L340.50,1775.00L341.09,1774.50L341.50,1774.15L341.92,1774.50L342.50,1774.99L343.10,1775.50L343.50,1775.84L343.85,1775.50L343.92,1774.50L343.50,1774.01L343.06,1773.50L343.08,1772.50L343.50,1772.08L344.50,1771.92L344.93,1771.50L345.15,1770.50L345.50,1770.16L345.91,1770.50L346.50,1770.93L347.50,1770.93L347.99,1770.50L348.50,1769.91L348.85,1769.50L348.50,1769.00L348.15,1768.50L348.50,1768.09L349.09,1767.50ZM345.50,1777.26L345.26,1777.50L345.50,1777.79L345.85,1777.50L345.50,1777.26ZM338.50,1779.21L338.22,1779.50L338.50,1779.74L338.74,1779.50L338.50,1779.21ZM343.50,1780.26L343.26,1780.50L343.50,1780.79L343.85,1780.50L343.50,1780.26ZM328.50,1788.27L328.27,1788.50L328.50,1788.72L328.72,1788.50L328.50,1788.27ZM320.50,1795.26L320.26,1795.50L320.50,1795.78L320.78,1795.50L320.50,1795.26ZM316.50,1796.28L316.23,1796.50L316.50,1796.72L316.72,1796.50L316.50,1796.28ZM321.50,1796.20L321.20,1796.50L321.50,1796.87L321.81,1796.50L321.50,1796.20ZM315.50,1799.21L315.14,1799.50L315.50,1799.74L315.74,1799.50L315.50,1799.21Z" fill="#728f89" stroke="#46514c" stroke-width=".30"/><rect x="313" y="1785.0" width="41" height="36" fill="#506c66"/><path d="M313 1785.00H354" stroke="#a2b7a0" stroke-width=".22"/><path d="M313 1767.50H354" stroke="#a2b7a0" stroke-opacity=".25" stroke-width=".07"/><path d="M313 1768.35H354" stroke="#a2b7a0" stroke-opacity=".25" stroke-width=".07"/><path d="M313 1769.20H354" stroke="#a2b7a0" stroke-opacity=".25" stroke-width=".07"/><path d="M313 1770.05H354" stroke="#a2b7a0" stroke-opacity=".25" stroke-width=".07"/><path d="M313 1770.90H354" stroke="#a2b7a0" stroke-opacity=".25" stroke-width=".07"/><path d="M313 1771.75H354" stroke="#a2b7a0" stroke-opacity=".25" stroke-width=".07"/><path d="M313 1772.60H354" stroke="#a2b7a0" stroke-opacity=".25" stroke-width=".07"/><path d="M313 1773.45H354" stroke="#a2b7a0" stroke-opacity=".25" stroke-width=".07"/><path d="M313 1774.30H354" stroke="#a2b7a0" stroke-opacity=".25" stroke-width=".07"/><path d="M313 1775.15H354" stroke="#a2b7a0" stroke-opacity=".25" stroke-width=".07"/><path d="M313 1776.00H354" stroke="#a2b7a0" stroke-opacity=".25" stroke-width=".07"/><path d="M313 1776.85H354" stroke="#a2b7a0" stroke-opacity=".25" stroke-width=".07"/><path d="M313 1777.70H354" stroke="#a2b7a0" stroke-opacity=".25" stroke-width=".07"/><path d="M313 1778.55H354" stroke="#a2b7a0" stroke-opacity=".25" stroke-width=".07"/><path d="M313 1779.40H354" stroke="#a2b7a0" stroke-opacity=".25" stroke-width=".07"/><path d="M313 1780.25H354" stroke="#a2b7a0" stroke-opacity=".25" stroke-width=".07"/><path d="M313 1781.10H354" stroke="#a2b7a0" stroke-opacity=".25" stroke-width=".07"/><path d="M313 1781.95H354" stroke="#a2b7a0" stroke-opacity=".25" stroke-width=".07"/><path d="M313 1782.80H354" stroke="#a2b7a0" stroke-opacity=".25" stroke-width=".07"/><path d="M313 1783.65H354" stroke="#a2b7a0" stroke-opacity=".25" stroke-width=".07"/><path d="M313 1784.50H354" stroke="#a2b7a0" stroke-opacity=".25" stroke-width=".07"/><path d="M313 1785.35H354" stroke="#a2b7a0" stroke-opacity=".25" stroke-width=".07"/><path d="M313 1786.20H354" stroke="#a2b7a0" stroke-opacity=".25" stroke-width=".07"/><path d="M313 1787.05H354" stroke="#a2b7a0" stroke-opacity=".25" stroke-width=".07"/><path d="M313 1787.90H354" stroke="#a2b7a0" stroke-opacity=".25" stroke-width=".07"/><path d="M313 1788.75H354" stroke="#a2b7a0" stroke-opacity=".25" stroke-width=".07"/><path d="M313 1789.60H354" stroke="#a2b7a0" stroke-opacity=".25" stroke-width=".07"/><path d="M313 1790.45H354" stroke="#a2b7a0" stroke-opacity=".25" stroke-width=".07"/><path d="M313 1791.30H354" stroke="#a2b7a0" stroke-opacity=".25" stroke-width=".07"/><path d="M313 1792.15H354" stroke="#a2b7a0" stroke-opacity=".25" stroke-width=".07"/><path d="M313 1793.00H354" stroke="#a2b7a0" stroke-opacity=".25" stroke-width=".07"/><path d="M313 1793.85H354" stroke="#a2b7a0" stroke-opacity=".25" stroke-width=".07"/><path d="M313 1794.70H354" stroke="#a2b7a0" stroke-opacity=".25" stroke-width=".07"/><path d="M313 1795.55H354" stroke="#a2b7a0" stroke-opacity=".25" stroke-width=".07"/><path d="M313 1796.40H354" stroke="#a2b7a0" stroke-opacity=".25" stroke-width=".07"/><path d="M313 1797.25H354" stroke="#a2b7a0" stroke-opacity=".25" stroke-width=".07"/><path d="M313 1798.10H354" stroke="#a2b7a0" stroke-opacity=".25" stroke-width=".07"/><path d="M313 1798.95H354" stroke="#a2b7a0" stroke-opacity=".25" stroke-width=".07"/><path d="M313 1799.80H354" stroke="#a2b7a0" stroke-opacity=".25" stroke-width=".07"/><path d="M313 1800.65H354" stroke="#a2b7a0" stroke-opacity=".25" stroke-width=".07"/><path d="M313 1801.50H354" stroke="#a2b7a0" stroke-opacity=".25" stroke-width=".07"/><path d="M313 1802.35H354" stroke="#a2b7a0" stroke-opacity=".25" stroke-width=".07"/><rect x="332.50" y="1783.60" width="1.2" height=".75" rx=".08" fill="#c4dadd" stroke="#506c66" stroke-width=".15"/><path d="M333.10 1783.60v.75" stroke="#748995" stroke-width=".1"/><rect x="314" y="1768" width="2.6" height="1.7" rx=".12" fill="#d4d6c4" stroke="#68797a" stroke-width=".12"/><circle cx="314.7" cy="1768.8" r=".4" fill="#869490"/></g><defs><clipPath id="r34189"><path d="M272.10,1775.50L272.50,1775.16L272.85,1775.50L273.07,1776.50L273.50,1776.92L274.50,1777.08L274.92,1777.50L275.07,1778.50L275.50,1779.00L275.93,1779.50L275.92,1780.50L275.50,1780.92L274.50,1781.07L274.01,1781.50L273.50,1782.00L272.99,1782.50L272.50,1782.93L271.50,1783.01L270.50,1783.07L269.50,1783.17L269.11,1783.50L269.50,1783.83L270.50,1783.99L270.99,1784.50L271.50,1785.01L271.93,1785.50L272.07,1786.50L272.50,1787.00L272.93,1787.50L273.07,1788.50L273.50,1789.08L273.85,1789.50L273.50,1789.91L273.00,1790.50L272.50,1791.00L272.00,1791.50L271.50,1792.00L270.91,1792.50L270.50,1792.85L270.00,1792.50L269.50,1792.15L269.09,1792.50L268.50,1793.00L267.91,1793.50L267.50,1793.85L267.08,1793.50L266.50,1793.07L265.50,1792.92L265.08,1792.50L264.93,1791.50L264.50,1791.01L264.00,1790.50L263.50,1789.99L263.07,1789.50L263.07,1788.50L263.50,1788.01L264.01,1787.50L264.50,1787.07L265.50,1786.93L265.99,1786.50L266.50,1786.00L267.00,1785.50L267.50,1784.99L267.94,1784.50L267.99,1783.50L267.50,1783.00L267.07,1782.50L266.93,1781.50L266.50,1780.92L266.15,1780.50L266.50,1780.08L266.93,1779.50L267.08,1778.50L267.50,1778.08L268.50,1778.00L269.50,1777.93L269.99,1777.50L270.50,1777.00L271.00,1776.50L271.50,1776.00L272.10,1775.50Z" fill-rule="evenodd"/></clipPath></defs><g clip-path="url(#r34189)"><path d="M272.10,1775.50L272.50,1775.16L272.85,1775.50L273.07,1776.50L273.50,1776.92L274.50,1777.08L274.92,1777.50L275.07,1778.50L275.50,1779.00L275.93,1779.50L275.92,1780.50L275.50,1780.92L274.50,1781.07L274.01,1781.50L273.50,1782.00L272.99,1782.50L272.50,1782.93L271.50,1783.01L270.50,1783.07L269.50,1783.17L269.11,1783.50L269.50,1783.83L270.50,1783.99L270.99,1784.50L271.50,1785.01L271.93,1785.50L272.07,1786.50L272.50,1787.00L272.93,1787.50L273.07,1788.50L273.50,1789.08L273.85,1789.50L273.50,1789.91L273.00,1790.50L272.50,1791.00L272.00,1791.50L271.50,1792.00L270.91,1792.50L270.50,1792.85L270.00,1792.50L269.50,1792.15L269.09,1792.50L268.50,1793.00L267.91,1793.50L267.50,1793.85L267.08,1793.50L266.50,1793.07L265.50,1792.92L265.08,1792.50L264.93,1791.50L264.50,1791.01L264.00,1790.50L263.50,1789.99L263.07,1789.50L263.07,1788.50L263.50,1788.01L264.01,1787.50L264.50,1787.07L265.50,1786.93L265.99,1786.50L266.50,1786.00L267.00,1785.50L267.50,1784.99L267.94,1784.50L267.99,1783.50L267.50,1783.00L267.07,1782.50L266.93,1781.50L266.50,1780.92L266.15,1780.50L266.50,1780.08L266.93,1779.50L267.08,1778.50L267.50,1778.08L268.50,1778.00L269.50,1777.93L269.99,1777.50L270.50,1777.00L271.00,1776.50L271.50,1776.00L272.10,1775.50Z" fill="#a49573" stroke="#46514c" stroke-width=".30"/><rect x="269.5" y="1775" width="13" height="19" fill="#7e7259"/><path d="M269.50 1775V1794" stroke="#d1c09a" stroke-width=".22"/><path d="M263 1775.50H276" stroke="#d1c09a" stroke-opacity=".25" stroke-width=".07"/><path d="M263 1776.35H276" stroke="#d1c09a" stroke-opacity=".25" stroke-width=".07"/><path d="M263 1777.20H276" stroke="#d1c09a" stroke-opacity=".25" stroke-width=".07"/><path d="M263 1778.05H276" stroke="#d1c09a" stroke-opacity=".25" stroke-width=".07"/><path d="M263 1778.90H276" stroke="#d1c09a" stroke-opacity=".25" stroke-width=".07"/><path d="M263 1779.75H276" stroke="#d1c09a" stroke-opacity=".25" stroke-width=".07"/><path d="M263 1780.60H276" stroke="#d1c09a" stroke-opacity=".25" stroke-width=".07"/><path d="M263 1781.45H276" stroke="#d1c09a" stroke-opacity=".25" stroke-width=".07"/><path d="M263 1782.30H276" stroke="#d1c09a" stroke-opacity=".25" stroke-width=".07"/><path d="M263 1783.15H276" stroke="#d1c09a" stroke-opacity=".25" stroke-width=".07"/><path d="M263 1784.00H276" stroke="#d1c09a" stroke-opacity=".25" stroke-width=".07"/><path d="M263 1784.85H276" stroke="#d1c09a" stroke-opacity=".25" stroke-width=".07"/><path d="M263 1785.70H276" stroke="#d1c09a" stroke-opacity=".25" stroke-width=".07"/><path d="M263 1786.55H276" stroke="#d1c09a" stroke-opacity=".25" stroke-width=".07"/><path d="M263 1787.40H276" stroke="#d1c09a" stroke-opacity=".25" stroke-width=".07"/><path d="M263 1788.25H276" stroke="#d1c09a" stroke-opacity=".25" stroke-width=".07"/><path d="M263 1789.10H276" stroke="#d1c09a" stroke-opacity=".25" stroke-width=".07"/><path d="M263 1789.95H276" stroke="#d1c09a" stroke-opacity=".25" stroke-width=".07"/><path d="M263 1790.80H276" stroke="#d1c09a" stroke-opacity=".25" stroke-width=".07"/><path d="M263 1791.65H276" stroke="#d1c09a" stroke-opacity=".25" stroke-width=".07"/><path d="M263 1792.50H276" stroke="#d1c09a" stroke-opacity=".25" stroke-width=".07"/><path d="M263 1793.35H276" stroke="#d1c09a" stroke-opacity=".25" stroke-width=".07"/><rect x="268.50" y="1783.10" width="1.2" height=".75" rx=".08" fill="#c4dadd" stroke="#7e7259" stroke-width=".15"/><path d="M269.10 1783.10v.75" stroke="#748995" stroke-width=".1"/><rect x="264" y="1776" width="2.6" height="1.7" rx=".12" fill="#d4d6c4" stroke="#68797a" stroke-width=".12"/><circle cx="264.7" cy="1776.8" r=".4" fill="#869490"/></g><defs><clipPath id="r34237"><path d="M287.09,1780.50L287.50,1780.15L287.91,1780.50L288.50,1781.01L288.93,1781.50L289.07,1782.50L289.50,1783.00L289.93,1783.50L290.07,1784.50L290.50,1785.00L290.93,1785.50L291.07,1786.50L291.50,1786.99L292.01,1787.50L292.50,1787.94L293.50,1788.15L293.84,1788.50L293.50,1788.90L292.99,1789.50L292.50,1789.93L291.50,1790.07L291.00,1790.50L290.50,1790.93L289.50,1791.00L288.50,1791.08L288.00,1791.50L287.83,1792.50L287.50,1792.83L287.17,1792.50L287.07,1791.50L286.94,1790.50L286.50,1790.00L286.07,1789.50L286.00,1788.50L285.93,1787.50L285.50,1787.01L285.00,1786.50L284.50,1785.99L284.07,1785.50L284.00,1784.50L284.08,1783.50L284.50,1783.08L285.50,1782.99L285.99,1782.50L286.07,1781.50L286.50,1781.01L287.09,1780.50ZM286.50,1783.19L286.19,1783.50L286.50,1783.80L286.80,1783.50L286.50,1783.19ZM287.50,1784.22L287.22,1784.50L287.50,1784.74L287.74,1784.50L287.50,1784.22ZM288.50,1786.27L288.28,1786.50L288.50,1786.72L288.72,1786.50L288.50,1786.27Z" fill-rule="evenodd"/></clipPath></defs><g clip-path="url(#r34237)"><path d="M287.09,1780.50L287.50,1780.15L287.91,1780.50L288.50,1781.01L288.93,1781.50L289.07,1782.50L289.50,1783.00L289.93,1783.50L290.07,1784.50L290.50,1785.00L290.93,1785.50L291.07,1786.50L291.50,1786.99L292.01,1787.50L292.50,1787.94L293.50,1788.15L293.84,1788.50L293.50,1788.90L292.99,1789.50L292.50,1789.93L291.50,1790.07L291.00,1790.50L290.50,1790.93L289.50,1791.00L288.50,1791.08L288.00,1791.50L287.83,1792.50L287.50,1792.83L287.17,1792.50L287.07,1791.50L286.94,1790.50L286.50,1790.00L286.07,1789.50L286.00,1788.50L285.93,1787.50L285.50,1787.01L285.00,1786.50L284.50,1785.99L284.07,1785.50L284.00,1784.50L284.08,1783.50L284.50,1783.08L285.50,1782.99L285.99,1782.50L286.07,1781.50L286.50,1781.01L287.09,1780.50ZM286.50,1783.19L286.19,1783.50L286.50,1783.80L286.80,1783.50L286.50,1783.19ZM287.50,1784.22L287.22,1784.50L287.50,1784.74L287.74,1784.50L287.50,1784.22ZM288.50,1786.27L288.28,1786.50L288.50,1786.72L288.72,1786.50L288.50,1786.27Z" fill="#747b87" stroke="#46514c" stroke-width=".30"/><rect x="289.0" y="1780" width="10" height="13" fill="#545b68"/><path d="M289.00 1780V1793" stroke="#9ca8b3" stroke-width=".22"/><path d="M284 1780.50H294" stroke="#9ca8b3" stroke-opacity=".25" stroke-width=".07"/><path d="M284 1781.35H294" stroke="#9ca8b3" stroke-opacity=".25" stroke-width=".07"/><path d="M284 1782.20H294" stroke="#9ca8b3" stroke-opacity=".25" stroke-width=".07"/><path d="M284 1783.05H294" stroke="#9ca8b3" stroke-opacity=".25" stroke-width=".07"/><path d="M284 1783.90H294" stroke="#9ca8b3" stroke-opacity=".25" stroke-width=".07"/><path d="M284 1784.75H294" stroke="#9ca8b3" stroke-opacity=".25" stroke-width=".07"/><path d="M284 1785.60H294" stroke="#9ca8b3" stroke-opacity=".25" stroke-width=".07"/><path d="M284 1786.45H294" stroke="#9ca8b3" stroke-opacity=".25" stroke-width=".07"/><path d="M284 1787.30H294" stroke="#9ca8b3" stroke-opacity=".25" stroke-width=".07"/><path d="M284 1788.15H294" stroke="#9ca8b3" stroke-opacity=".25" stroke-width=".07"/><path d="M284 1789.00H294" stroke="#9ca8b3" stroke-opacity=".25" stroke-width=".07"/><path d="M284 1789.85H294" stroke="#9ca8b3" stroke-opacity=".25" stroke-width=".07"/><path d="M284 1790.70H294" stroke="#9ca8b3" stroke-opacity=".25" stroke-width=".07"/><path d="M284 1791.55H294" stroke="#9ca8b3" stroke-opacity=".25" stroke-width=".07"/><path d="M284 1792.40H294" stroke="#9ca8b3" stroke-opacity=".25" stroke-width=".07"/><rect x="288.00" y="1785.10" width="1.2" height=".75" rx=".08" fill="#c4dadd" stroke="#545b68" stroke-width=".15"/><path d="M288.60 1785.10v.75" stroke="#748995" stroke-width=".1"/><rect x="285" y="1781" width="2.6" height="1.7" rx=".12" fill="#d4d6c4" stroke="#68797a" stroke-width=".12"/><circle cx="285.7" cy="1781.8" r=".4" fill="#869490"/></g><defs><clipPath id="r34282"><path d="M274.01,1784.50L274.50,1784.07L275.50,1784.07L276.00,1784.50L276.50,1784.93L277.50,1785.08L277.92,1785.50L278.07,1786.50L278.50,1786.99L279.01,1787.50L279.50,1787.93L280.50,1788.08L280.92,1788.50L281.07,1789.50L281.50,1790.09L281.84,1790.50L281.50,1790.85L280.50,1791.06L280.01,1791.50L279.50,1792.00L278.91,1792.50L278.50,1792.85L278.09,1792.50L277.50,1791.99L277.07,1791.50L276.93,1790.50L276.50,1790.01L276.00,1789.50L275.50,1789.00L275.00,1788.50L274.50,1788.00L274.00,1787.50L273.50,1786.99L273.07,1786.50L273.07,1785.50L273.50,1785.01L274.01,1784.50Z" fill-rule="evenodd"/></clipPath></defs><g clip-path="url(#r34282)"><path d="M274.01,1784.50L274.50,1784.07L275.50,1784.07L276.00,1784.50L276.50,1784.93L277.50,1785.08L277.92,1785.50L278.07,1786.50L278.50,1786.99L279.01,1787.50L279.50,1787.93L280.50,1788.08L280.92,1788.50L281.07,1789.50L281.50,1790.09L281.84,1790.50L281.50,1790.85L280.50,1791.06L280.01,1791.50L279.50,1792.00L278.91,1792.50L278.50,1792.85L278.09,1792.50L277.50,1791.99L277.07,1791.50L276.93,1790.50L276.50,1790.01L276.00,1789.50L275.50,1789.00L275.00,1788.50L274.50,1788.00L274.00,1787.50L273.50,1786.99L273.07,1786.50L273.07,1785.50L273.50,1785.01L274.01,1784.50Z" fill="#747b87" stroke="#46514c" stroke-width=".30"/><rect x="273" y="1788.5" width="9" height="9" fill="#545b68"/><path d="M273 1788.50H282" stroke="#9ca8b3" stroke-width=".22"/><path d="M273 1784.50H282" stroke="#9ca8b3" stroke-opacity=".25" stroke-width=".07"/><path d="M273 1785.35H282" stroke="#9ca8b3" stroke-opacity=".25" stroke-width=".07"/><path d="M273 1786.20H282" stroke="#9ca8b3" stroke-opacity=".25" stroke-width=".07"/><path d="M273 1787.05H282" stroke="#9ca8b3" stroke-opacity=".25" stroke-width=".07"/><path d="M273 1787.90H282" stroke="#9ca8b3" stroke-opacity=".25" stroke-width=".07"/><path d="M273 1788.75H282" stroke="#9ca8b3" stroke-opacity=".25" stroke-width=".07"/><path d="M273 1789.60H282" stroke="#9ca8b3" stroke-opacity=".25" stroke-width=".07"/><path d="M273 1790.45H282" stroke="#9ca8b3" stroke-opacity=".25" stroke-width=".07"/><path d="M273 1791.30H282" stroke="#9ca8b3" stroke-opacity=".25" stroke-width=".07"/><path d="M273 1792.15H282" stroke="#9ca8b3" stroke-opacity=".25" stroke-width=".07"/><rect x="276.50" y="1787.10" width="1.2" height=".75" rx=".08" fill="#c4dadd" stroke="#545b68" stroke-width=".15"/><path d="M277.10 1787.10v.75" stroke="#748995" stroke-width=".1"/></g><defs><clipPath id="r34368"><path d="M307.01,1791.50L307.50,1791.07L308.50,1791.07L308.99,1791.50L309.50,1792.01L309.93,1792.50L309.92,1793.50L309.50,1793.92L308.50,1794.07L308.01,1794.50L307.50,1795.00L306.99,1795.50L306.50,1795.93L305.50,1795.92L305.08,1795.50L305.00,1794.50L305.07,1793.50L305.50,1793.01L306.00,1792.50L306.50,1792.00L307.01,1791.50Z" fill-rule="evenodd"/></clipPath></defs><g clip-path="url(#r34368)"><path d="M307.01,1791.50L307.50,1791.07L308.50,1791.07L308.99,1791.50L309.50,1792.01L309.93,1792.50L309.92,1793.50L309.50,1793.92L308.50,1794.07L308.01,1794.50L307.50,1795.00L306.99,1795.50L306.50,1795.93L305.50,1795.92L305.08,1795.50L305.00,1794.50L305.07,1793.50L305.50,1793.01L306.00,1792.50L306.50,1792.00L307.01,1791.50Z" fill="#aa755e" stroke="#46514c" stroke-width=".30"/><rect x="305" y="1793.5" width="5" height="5" fill="#825746"/><path d="M305 1793.50H310" stroke="#c99775" stroke-width=".22"/><path d="M305 1791.50H310" stroke="#c99775" stroke-opacity=".25" stroke-width=".07"/><path d="M305 1792.35H310" stroke="#c99775" stroke-opacity=".25" stroke-width=".07"/><path d="M305 1793.20H310" stroke="#c99775" stroke-opacity=".25" stroke-width=".07"/><path d="M305 1794.05H310" stroke="#c99775" stroke-opacity=".25" stroke-width=".07"/><path d="M305 1794.90H310" stroke="#c99775" stroke-opacity=".25" stroke-width=".07"/><path d="M305 1795.75H310" stroke="#c99775" stroke-opacity=".25" stroke-width=".07"/><rect x="306.50" y="1792.10" width="1.2" height=".75" rx=".08" fill="#c4dadd" stroke="#825746" stroke-width=".15"/><path d="M307.10 1792.10v.75" stroke="#748995" stroke-width=".1"/></g><defs><clipPath id="r34412"><path d="M284.01,1797.50L284.50,1797.07L285.50,1797.00L286.50,1797.01L287.50,1797.15L287.84,1797.50L287.50,1797.99L287.15,1798.50L287.50,1798.91L288.00,1799.50L288.50,1800.09L288.85,1800.50L288.50,1800.92L288.07,1801.50L287.92,1802.50L287.50,1802.92L286.50,1803.08L286.01,1803.50L285.83,1804.50L285.50,1804.83L285.17,1804.50L285.00,1803.50L284.50,1803.00L284.07,1802.50L284.00,1801.50L283.93,1800.50L283.50,1800.00L283.07,1799.50L283.07,1798.50L283.50,1798.01L284.01,1797.50Z" fill-rule="evenodd"/></clipPath></defs><g clip-path="url(#r34412)"><path d="M284.01,1797.50L284.50,1797.07L285.50,1797.00L286.50,1797.01L287.50,1797.15L287.84,1797.50L287.50,1797.99L287.15,1798.50L287.50,1798.91L288.00,1799.50L288.50,1800.09L288.85,1800.50L288.50,1800.92L288.07,1801.50L287.92,1802.50L287.50,1802.92L286.50,1803.08L286.01,1803.50L285.83,1804.50L285.50,1804.83L285.17,1804.50L285.00,1803.50L284.50,1803.00L284.07,1802.50L284.00,1801.50L283.93,1800.50L283.50,1800.00L283.07,1799.50L283.07,1798.50L283.50,1798.01L284.01,1797.50Z" fill="#747b87" stroke="#46514c" stroke-width=".30"/><rect x="286.0" y="1797" width="6" height="8" fill="#545b68"/><path d="M286.00 1797V1805" stroke="#9ca8b3" stroke-width=".22"/><path d="M283 1797.50H289" stroke="#9ca8b3" stroke-opacity=".25" stroke-width=".07"/><path d="M283 1798.35H289" stroke="#9ca8b3" stroke-opacity=".25" stroke-width=".07"/><path d="M283 1799.20H289" stroke="#9ca8b3" stroke-opacity=".25" stroke-width=".07"/><path d="M283 1800.05H289" stroke="#9ca8b3" stroke-opacity=".25" stroke-width=".07"/><path d="M283 1800.90H289" stroke="#9ca8b3" stroke-opacity=".25" stroke-width=".07"/><path d="M283 1801.75H289" stroke="#9ca8b3" stroke-opacity=".25" stroke-width=".07"/><path d="M283 1802.60H289" stroke="#9ca8b3" stroke-opacity=".25" stroke-width=".07"/><path d="M283 1803.45H289" stroke="#9ca8b3" stroke-opacity=".25" stroke-width=".07"/><path d="M283 1804.30H289" stroke="#9ca8b3" stroke-opacity=".25" stroke-width=".07"/><rect x="285.00" y="1799.60" width="1.2" height=".75" rx=".08" fill="#c4dadd" stroke="#545b68" stroke-width=".15"/><path d="M285.60 1799.60v.75" stroke="#748995" stroke-width=".1"/></g><defs><clipPath id="r34427"><path d="M277.00,1800.50L277.50,1800.07L278.50,1800.08L278.92,1800.50L279.00,1801.50L279.08,1802.50L279.50,1802.99L280.50,1803.17L280.83,1803.50L280.50,1803.83L279.50,1804.00L279.00,1804.50L278.50,1804.93L277.50,1805.07L277.00,1805.50L276.50,1805.93L275.50,1806.07L274.92,1806.50L274.50,1806.85L274.09,1806.50L273.50,1806.00L273.00,1805.50L272.50,1805.00L272.00,1804.50L271.50,1803.90L271.16,1803.50L271.50,1803.15L272.50,1802.94L273.00,1802.50L273.50,1802.07L274.50,1801.93L275.00,1801.50L275.50,1801.07L276.50,1800.93L277.00,1800.50Z" fill-rule="evenodd"/></clipPath></defs><g clip-path="url(#r34427)"><path d="M277.00,1800.50L277.50,1800.07L278.50,1800.08L278.92,1800.50L279.00,1801.50L279.08,1802.50L279.50,1802.99L280.50,1803.17L280.83,1803.50L280.50,1803.83L279.50,1804.00L279.00,1804.50L278.50,1804.93L277.50,1805.07L277.00,1805.50L276.50,1805.93L275.50,1806.07L274.92,1806.50L274.50,1806.85L274.09,1806.50L273.50,1806.00L273.00,1805.50L272.50,1805.00L272.00,1804.50L271.50,1803.90L271.16,1803.50L271.50,1803.15L272.50,1802.94L273.00,1802.50L273.50,1802.07L274.50,1801.93L275.00,1801.50L275.50,1801.07L276.50,1800.93L277.00,1800.50Z" fill="#747b87" stroke="#46514c" stroke-width=".30"/><rect x="271" y="1803.5" width="10" height="7" fill="#545b68"/><path d="M271 1803.50H281" stroke="#9ca8b3" stroke-width=".22"/><path d="M271 1800.50H281" stroke="#9ca8b3" stroke-opacity=".25" stroke-width=".07"/><path d="M271 1801.35H281" stroke="#9ca8b3" stroke-opacity=".25" stroke-width=".07"/><path d="M271 1802.20H281" stroke="#9ca8b3" stroke-opacity=".25" stroke-width=".07"/><path d="M271 1803.05H281" stroke="#9ca8b3" stroke-opacity=".25" stroke-width=".07"/><path d="M271 1803.90H281" stroke="#9ca8b3" stroke-opacity=".25" stroke-width=".07"/><path d="M271 1804.75H281" stroke="#9ca8b3" stroke-opacity=".25" stroke-width=".07"/><path d="M271 1805.60H281" stroke="#9ca8b3" stroke-opacity=".25" stroke-width=".07"/><path d="M271 1806.45H281" stroke="#9ca8b3" stroke-opacity=".25" stroke-width=".07"/><rect x="275.00" y="1802.10" width="1.2" height=".75" rx=".08" fill="#c4dadd" stroke="#545b68" stroke-width=".15"/><path d="M275.60 1802.10v.75" stroke="#748995" stroke-width=".1"/><rect x="272" y="1801" width="2.6" height="1.7" rx=".12" fill="#d4d6c4" stroke="#68797a" stroke-width=".12"/><circle cx="272.7" cy="1801.8" r=".4" fill="#869490"/></g><defs><clipPath id="r34449"><path d="M309.01,1803.50L309.50,1803.07L310.50,1803.07L310.99,1803.50L311.50,1804.01L311.93,1804.50L312.00,1805.50L311.93,1806.50L311.50,1806.99L310.99,1807.50L310.50,1807.93L309.50,1808.07L308.92,1808.50L308.50,1808.85L308.09,1808.50L307.50,1808.00L307.00,1807.50L306.50,1806.91L306.15,1806.50L306.50,1806.09L307.00,1805.50L307.50,1805.00L308.00,1804.50L308.50,1804.00L309.01,1803.50Z" fill-rule="evenodd"/></clipPath></defs><g clip-path="url(#r34449)"><path d="M309.01,1803.50L309.50,1803.07L310.50,1803.07L310.99,1803.50L311.50,1804.01L311.93,1804.50L312.00,1805.50L311.93,1806.50L311.50,1806.99L310.99,1807.50L310.50,1807.93L309.50,1808.07L308.92,1808.50L308.50,1808.85L308.09,1808.50L307.50,1808.00L307.00,1807.50L306.50,1806.91L306.15,1806.50L306.50,1806.09L307.00,1805.50L307.50,1805.00L308.00,1804.50L308.50,1804.00L309.01,1803.50Z" fill="#a49573" stroke="#46514c" stroke-width=".30"/><rect x="306" y="1806.0" width="6" height="6" fill="#7e7259"/><path d="M306 1806.00H312" stroke="#d1c09a" stroke-width=".22"/><path d="M306 1803.50H312" stroke="#d1c09a" stroke-opacity=".25" stroke-width=".07"/><path d="M306 1804.35H312" stroke="#d1c09a" stroke-opacity=".25" stroke-width=".07"/><path d="M306 1805.20H312" stroke="#d1c09a" stroke-opacity=".25" stroke-width=".07"/><path d="M306 1806.05H312" stroke="#d1c09a" stroke-opacity=".25" stroke-width=".07"/><path d="M306 1806.90H312" stroke="#d1c09a" stroke-opacity=".25" stroke-width=".07"/><path d="M306 1807.75H312" stroke="#d1c09a" stroke-opacity=".25" stroke-width=".07"/><path d="M306 1808.60H312" stroke="#d1c09a" stroke-opacity=".25" stroke-width=".07"/><rect x="308.00" y="1804.60" width="1.2" height=".75" rx=".08" fill="#c4dadd" stroke="#7e7259" stroke-width=".15"/><path d="M308.60 1804.60v.75" stroke="#748995" stroke-width=".1"/></g><defs><clipPath id="r34566"><path d="M304.09,1819.50L304.50,1819.15L304.91,1819.50L305.50,1820.00L306.00,1820.50L306.50,1821.01L306.93,1821.50L307.07,1822.50L307.50,1822.99L308.01,1823.50L308.50,1823.93L309.50,1824.08L309.92,1824.50L310.07,1825.50L310.50,1825.99L311.00,1826.50L311.50,1827.01L311.93,1827.50L312.00,1828.50L311.93,1829.50L311.50,1829.99L311.00,1830.50L310.50,1831.00L309.91,1831.50L309.50,1831.85L309.09,1831.50L308.50,1831.00L308.00,1830.50L307.50,1829.98L307.08,1829.50L306.99,1828.50L306.50,1828.00L306.07,1827.50L305.93,1826.50L305.50,1826.01L305.00,1825.50L304.50,1825.00L304.00,1824.50L303.50,1824.00L303.00,1823.50L302.50,1822.99L302.07,1822.50L302.07,1821.50L302.50,1821.01L303.00,1820.50L303.50,1820.00L304.09,1819.50ZM308.50,1828.28L308.23,1828.50L308.50,1828.73L308.72,1828.50L308.50,1828.28Z" fill-rule="evenodd"/></clipPath></defs><g clip-path="url(#r34566)"><path d="M304.09,1819.50L304.50,1819.15L304.91,1819.50L305.50,1820.00L306.00,1820.50L306.50,1821.01L306.93,1821.50L307.07,1822.50L307.50,1822.99L308.01,1823.50L308.50,1823.93L309.50,1824.08L309.92,1824.50L310.07,1825.50L310.50,1825.99L311.00,1826.50L311.50,1827.01L311.93,1827.50L312.00,1828.50L311.93,1829.50L311.50,1829.99L311.00,1830.50L310.50,1831.00L309.91,1831.50L309.50,1831.85L309.09,1831.50L308.50,1831.00L308.00,1830.50L307.50,1829.98L307.08,1829.50L306.99,1828.50L306.50,1828.00L306.07,1827.50L305.93,1826.50L305.50,1826.01L305.00,1825.50L304.50,1825.00L304.00,1824.50L303.50,1824.00L303.00,1823.50L302.50,1822.99L302.07,1822.50L302.07,1821.50L302.50,1821.01L303.00,1820.50L303.50,1820.00L304.09,1819.50ZM308.50,1828.28L308.23,1828.50L308.50,1828.73L308.72,1828.50L308.50,1828.28Z" fill="#728f89" stroke="#46514c" stroke-width=".30"/><rect x="307.0" y="1819" width="10" height="13" fill="#506c66"/><path d="M307.00 1819V1832" stroke="#a2b7a0" stroke-width=".22"/><path d="M302 1819.50H312" stroke="#a2b7a0" stroke-opacity=".25" stroke-width=".07"/><path d="M302 1820.35H312" stroke="#a2b7a0" stroke-opacity=".25" stroke-width=".07"/><path d="M302 1821.20H312" stroke="#a2b7a0" stroke-opacity=".25" stroke-width=".07"/><path d="M302 1822.05H312" stroke="#a2b7a0" stroke-opacity=".25" stroke-width=".07"/><path d="M302 1822.90H312" stroke="#a2b7a0" stroke-opacity=".25" stroke-width=".07"/><path d="M302 1823.75H312" stroke="#a2b7a0" stroke-opacity=".25" stroke-width=".07"/><path d="M302 1824.60H312" stroke="#a2b7a0" stroke-opacity=".25" stroke-width=".07"/><path d="M302 1825.45H312" stroke="#a2b7a0" stroke-opacity=".25" stroke-width=".07"/><path d="M302 1826.30H312" stroke="#a2b7a0" stroke-opacity=".25" stroke-width=".07"/><path d="M302 1827.15H312" stroke="#a2b7a0" stroke-opacity=".25" stroke-width=".07"/><path d="M302 1828.00H312" stroke="#a2b7a0" stroke-opacity=".25" stroke-width=".07"/><path d="M302 1828.85H312" stroke="#a2b7a0" stroke-opacity=".25" stroke-width=".07"/><path d="M302 1829.70H312" stroke="#a2b7a0" stroke-opacity=".25" stroke-width=".07"/><path d="M302 1830.55H312" stroke="#a2b7a0" stroke-opacity=".25" stroke-width=".07"/><path d="M302 1831.40H312" stroke="#a2b7a0" stroke-opacity=".25" stroke-width=".07"/><rect x="306.00" y="1824.10" width="1.2" height=".75" rx=".08" fill="#c4dadd" stroke="#506c66" stroke-width=".15"/><path d="M306.60 1824.10v.75" stroke="#748995" stroke-width=".1"/><rect x="303" y="1820" width="2.6" height="1.7" rx=".12" fill="#d4d6c4" stroke="#68797a" stroke-width=".12"/><circle cx="303.7" cy="1820.8" r=".4" fill="#869490"/></g><defs><clipPath id="r34608"><path d="M293.00,1825.50L293.50,1825.07L294.50,1825.08L294.92,1825.50L295.00,1826.50L294.92,1827.50L294.50,1827.92L293.50,1828.00L292.50,1828.00L291.50,1827.92L291.08,1827.50L291.08,1826.50L291.50,1826.08L292.50,1825.93L293.00,1825.50Z" fill-rule="evenodd"/></clipPath></defs><g clip-path="url(#r34608)"><path d="M293.00,1825.50L293.50,1825.07L294.50,1825.08L294.92,1825.50L295.00,1826.50L294.92,1827.50L294.50,1827.92L293.50,1828.00L292.50,1828.00L291.50,1827.92L291.08,1827.50L291.08,1826.50L291.50,1826.08L292.50,1825.93L293.00,1825.50Z" fill="#aa755e" stroke="#46514c" stroke-width=".30"/><rect x="291" y="1826.5" width="4" height="3" fill="#825746"/><path d="M291 1826.50H295" stroke="#c99775" stroke-width=".22"/><path d="M291 1825.50H295" stroke="#c99775" stroke-opacity=".25" stroke-width=".07"/><path d="M291 1826.35H295" stroke="#c99775" stroke-opacity=".25" stroke-width=".07"/><path d="M291 1827.20H295" stroke="#c99775" stroke-opacity=".25" stroke-width=".07"/></g><defs><clipPath id="r34647"><path d="M306.10,1830.50L306.50,1830.16L306.85,1830.50L307.06,1831.50L307.50,1831.99L308.00,1832.50L308.50,1833.10L308.84,1833.50L308.50,1833.85L307.50,1834.06L307.01,1834.50L306.50,1835.00L305.91,1835.50L305.50,1835.85L305.08,1835.50L304.50,1835.07L303.50,1834.92L303.08,1834.50L303.07,1833.50L303.50,1833.01L304.00,1832.50L304.50,1832.00L305.00,1831.50L305.50,1831.00L306.10,1830.50Z" fill-rule="evenodd"/></clipPath></defs><g clip-path="url(#r34647)"><path d="M306.10,1830.50L306.50,1830.16L306.85,1830.50L307.06,1831.50L307.50,1831.99L308.00,1832.50L308.50,1833.10L308.84,1833.50L308.50,1833.85L307.50,1834.06L307.01,1834.50L306.50,1835.00L305.91,1835.50L305.50,1835.85L305.08,1835.50L304.50,1835.07L303.50,1834.92L303.08,1834.50L303.07,1833.50L303.50,1833.01L304.00,1832.50L304.50,1832.00L305.00,1831.50L305.50,1831.00L306.10,1830.50Z" fill="#747b87" stroke="#46514c" stroke-width=".30"/><rect x="303" y="1833.0" width="6" height="6" fill="#545b68"/><path d="M303 1833.00H309" stroke="#9ca8b3" stroke-width=".22"/><path d="M303 1830.50H309" stroke="#9ca8b3" stroke-opacity=".25" stroke-width=".07"/><path d="M303 1831.35H309" stroke="#9ca8b3" stroke-opacity=".25" stroke-width=".07"/><path d="M303 1832.20H309" stroke="#9ca8b3" stroke-opacity=".25" stroke-width=".07"/><path d="M303 1833.05H309" stroke="#9ca8b3" stroke-opacity=".25" stroke-width=".07"/><path d="M303 1833.90H309" stroke="#9ca8b3" stroke-opacity=".25" stroke-width=".07"/><path d="M303 1834.75H309" stroke="#9ca8b3" stroke-opacity=".25" stroke-width=".07"/><path d="M303 1835.60H309" stroke="#9ca8b3" stroke-opacity=".25" stroke-width=".07"/><rect x="305.00" y="1831.60" width="1.2" height=".75" rx=".08" fill="#c4dadd" stroke="#545b68" stroke-width=".15"/><path d="M305.60 1831.60v.75" stroke="#748995" stroke-width=".1"/></g></svg>